/* XPM */
static char *result[] = {
/* columns rows colors chars-per-pixel */
"50 50 214 2 ",
"   c #000000",
".  c #050709",
"X  c #1A0B01",
"o  c #0B1602",
"O  c #0C1802",
"+  c #020A18",
"@  c #0F1610",
"#  c #361C03",
"$  c #3F0A1C",
"%  c #1D3011",
"&  c #263509",
"*  c #37330A",
"=  c #282A17",
"-  c #0A0835",
";  c #3D0423",
":  c #3B042B",
">  c #3A092E",
",  c #3B152F",
"<  c #390433",
"1  c #36043D",
"2  c #380438",
"3  c #380C3B",
"4  c #3D1F30",
"5  c #3E262A",
"6  c #3D3929",
"7  c #352836",
"8  c #401D1A",
"9  c #442704",
"0  c #452C05",
"q  c #43280A",
"w  c #473B0A",
"e  c #433825",
"r  c #423C3C",
"t  c #294607",
"y  c #304C0E",
"u  c #285901",
"i  c #285E00",
"p  c #3A5E09",
"a  c #314A15",
"s  c #385318",
"d  c #2D6201",
"f  c #356B01",
"g  c #356A07",
"h  c #356A0D",
"j  c #3E7301",
"k  c #3E740C",
"l  c #3F6016",
"z  c #3B6D11",
"x  c #3E7011",
"c  c #25473C",
"v  c #2F573C",
"b  c #3E6C2C",
"n  c #484607",
"m  c #49450B",
"M  c #4A4C0E",
"N  c #4A570A",
"B  c #4C4F13",
"V  c #4A5415",
"C  c #4E5C13",
"Z  c #44541A",
"A  c #486C09",
"S  c #447606",
"D  c #4A7E02",
"F  c #467C0D",
"G  c #4B7D0B",
"H  c #527D0B",
"J  c #486917",
"K  c #4B641B",
"L  c #526418",
"P  c #536A19",
"I  c #477715",
"U  c #4A7D14",
"Y  c #45741B",
"T  c #4C751D",
"R  c #4C7B1C",
"E  c #537915",
"W  c #517D1C",
"Q  c #5A7C1C",
"!  c #404325",
"~  c #475A28",
"^  c #444636",
"/  c #465734",
"(  c #4A652B",
")  c #546C27",
"_  c #447423",
"`  c #4A7621",
"'  c #4C7C24",
"]  c #457629",
"[  c #4C7C2A",
"{  c #527C22",
"}  c #55782C",
"|  c #496A3A",
" . c #516E3A",
".. c #4C7633",
"X. c #4E7339",
"o. c #567836",
"O. c #110F46",
"+. c #350444",
"@. c #340B46",
"#. c #371847",
"$. c #0B3445",
"%. c #143744",
"&. c #0F2250",
"*. c #0F2E51",
"=. c #112A58",
"-. c #392A44",
";. c #3E394A",
":. c #211B70",
">. c #162C65",
",. c #1A2A6C",
"<. c #1F2775",
"1. c #1D2871",
"2. c #233B65",
"3. c #22257B",
"4. c #2D3A7B",
"5. c #403D46",
"6. c #284947",
"7. c #3D6548",
"8. c #2B406F",
"9. c #395567",
"0. c #36477A",
"q. c #475843",
"w. c #466647",
"e. c #446B57",
"r. c #4D7659",
"t. c #435D75",
"y. c #486374",
"u. c #56747C",
"i. c #4D8201",
"p. c #4E830C",
"a. c #518706",
"s. c #52860D",
"d. c #568C0C",
"f. c #588E0D",
"g. c #4D8114",
"h. c #4F801C",
"j. c #538414",
"k. c #568A12",
"l. c #588C16",
"z. c #54851D",
"x. c #598719",
"c. c #56881B",
"v. c #5B8C1C",
"b. c #5D9313",
"n. c #5E911D",
"m. c #619716",
"M. c #62951B",
"N. c #659A1B",
"B. c #699E1E",
"V. c #6AA11F",
"C. c #4E8021",
"Z. c #4F8128",
"A. c #548422",
"S. c #598522",
"D. c #578923",
"F. c #5C8C22",
"G. c #548229",
"H. c #5A8529",
"J. c #5B8A29",
"K. c #5F9122",
"L. c #5D9029",
"P. c #5D8735",
"I. c #618723",
"U. c #608F25",
"Y. c #628E29",
"T. c #629424",
"R. c #669825",
"E. c #699C25",
"W. c #64932A",
"Q. c #69972B",
"!. c #67992A",
"~. c #6A9D2A",
"^. c #648B32",
"/. c #618B3C",
"(. c #699534",
"). c #699537",
"_. c #6E9C34",
"`. c #719E36",
"'. c #6DA223",
"]. c #6EA12C",
"[. c #73A827",
"{. c #71A42F",
"}. c #75AB2A",
"|. c #72A333",
" X c #76AA33",
".X c #79AC35",
"XX c #77A33C",
"oX c #7BAC3A",
"OX c #7EB532",
"+X c #7EB13B",
"@X c #5B864D",
"#X c #618F45",
"$X c #66944D",
"%X c #79A541",
"&X c #7DA941",
"*X c #83BA36",
"=X c #81B33D",
"-X c #83B83C",
";X c #86B942",
":X c #2F1F91",
">X c #311E95",
",X c #351C9C",
"<X c #262482",
"1X c #292486",
"2X c #2C218C",
"3X c #38279C",
"4X c #3A3397",
"5X c #371BA0",
"6X c #3A1AA4",
"7X c #3D27A5",
"8X c #425285",
"9X c #434698",
"0X c #4E6581",
"qX c #556F80",
/* pixels */
"|.Q.G.E.F.T.T.(.;X~.!.R.F.R.K.C.] F.R.R.R.~.T.~.].J.R.F.c.L.F.T.!.].~.~.J._ !..X~.~.+XF.K.R.R. Xv.K.",
"H.R.E.W.d.F.{.OXQ.z Y U.b.F.x.k.H.d.F.v.d.Y.k.c.F.f._.T.k.^.w.F.v.d.W.k.c.S.f._.].E.Q.d.F.v.d.D.s.c.",
"d z.n.i.T.s.k.!.i.T.v.a.~.i.z.c.D ;Xn.k.T.i.K.z.S ~.E.E.v.X.#.{ U ' i.T.l.i.!.N.D.` i.R.s.l.K.f F.l.",
"T.K.v.~.F.oXoXF.].F.n.R.J.A.A.z.~.~.R.T.F.~.v.T.'.).R.n.H.;.+.#X!.T ~.v.F.R.F.R.D.T J.F.K.K.z.E.v.K.",
"_.T.l.`.d.T.T.d.W.j.c.F.d.A.z.k.Y.s.v.F.d.Y.k.v.~.*XQ.v.| +.+.q.F.p.J.k.x.U.f.XXW.k.J.d.F.z.h W.d.T.",
"B.{. XN.!.s.k.T.i._ I k.;Xp.z.n.i.G.G j.T.i. X].f.|.i.|.5.+.+.@...J.i.' U i.!.}.].n.i.R.s.k.M.i.K.M.",
"T.R.R.~.A.` ` F.~.W _ Z.|.~.K.v.!.' F.T.z.[ J.!.~.Y.R./.+.+.+.+.-.o.G.` F.].J.R.F.F.].F.&X+Xv.~.T.T.",
"F.x.k.Y.k ' z.p.Y.k.F.(.k.F.c.k.Y.p.W.R.d.H.z T U.f.U.w.+.+.+.+.+.-.X.k.z.F.b.S.h.p.J.d.R.T.b.`.E.T.",
"i.v.v.D T.s.j.K.D K.R.B._.a.P.n.i.' v.M.T.D T.k.a.!.a.| +.+.+.+.+.+.@.| U j H.j c.F.j ~.D.X.R.N.K.k.",
"T.F.c.~.F.T.T.v.~.F.R.{.P.@Xu.D.{._ F.T.U.~.F.K.T.(.E.w.+.+.+.@.+.+.+.+./ T.G.] ' v.~.F.o.r v.E.z.F.",
"S.v.k.W.d.F.v.d.W.k.v.T.D.9X8Xh G.h { R.'.W.l.v.~.*XW.^.+.+.+.#.-.1 1 1 +.} b.{ c.d.Y.c.^ 1 G._.k.!.",
"i.v.v.i.|.k.k.T.i.T.v.i.qX6X9XA.d |.l.k.T.i.oX~.i.Q.i._.5.1 1 2  .r 1 2 < / W.j R R U ^ < :  .b.C.T.",
"T.K.v.~._.R.T.F.~.A.F.#X7X5X3XP.~.R.].~.v.~.~.R.R.S. X{.P.3 2 2 6 /.4 < < / (.].H.~ 4 < : : / J.R K.",
"c.v.k.W.OXQ.v.d.U.x R 0X6X,X:Xy.%Xk.Q.Q.s.U.U W F.G U.v.s./ 2 < 2 ~ o.< < ( }.^.5 > : : : : ) J.d.F.",
"i.v.n.i.~.s.v.~.D _ ] 4X,X2X:X1X$X!.n.N.T.D T.j.D J.D R _ i ) , : > K 6 : J Z.! : ; 5 5 ; ; } i.K.k.",
"T.U.v.~.F.T.T.T.!.T r.,X>X:X2X<X4.X.T l t %             @ @ = s 6 : 6 ( 6 _ /.8 ; e ) ; ; e Q. X!.T.",
"F.v.j.G.d.F.v.d.`.U y.>X:X2X3.O.+                                 O = Z ) _.*Xe e K ; $ e W.}.H.'.R.",
"i.v.v.j oXv.k.R.N.R.t.>X:.-                                             & E =XZ C 8 $ ) U k.T.f T.l.",
"T.F.v.~.~.R.R.F.~.F.9.O.                                                    a } ) { +Xv.K.K.v.E.z.F.",
"F.l.k.W.d.F.v.d.G.A .                                                         o I v.XXp.F.v.d.W.h R ",
"D h.h.i.R.s.k.T.u                                                                 Q B.~.s.k.M.i.R g.",
"+XQ.z.~.F.' ' W o                                                                 o ~.F.~.~.T.-XF.F.",
"F.n.k.J.d.A.v.t                                                                     a d.U.n.d.!.k.v.",
"i.h.R i.F.p.c.                                                                        oXv.l.T.S K.k.",
"R.A.R ~.A.F.z.                                                                        J.~.K.c.Z.z.A.",
"|.G.Y `.f.v.T                                                                         G F.v.d.F.d.c.",
"E.R.M.m.R.p.j.                                                                        K.s.~.&Xi.oX!.",
"T.K.c.L.S.F.T.y                                                                     s D.D.W.oX].].~.",
"F.v.k.J.d.F.F.7..                                                                   V A F.~.OX&Xb.h.",
"e.$X_.p./.e.8.,.&.                                                                # 9 0 H j.F.}.T.I ",
"r.7X7X4X:X1X3.3.1.&..                                                           # 9 9 9 S.F.R ~.D.F.",
"v.t.6X,X>X2X<X3.<.2.6.%                                                     X 9 9 9 9 9 Q v.d.T.d.v.",
"i.x.y.6X,X>X1X<X<.1.>.=.$.+ .                                           X # 9 9 9 9 9 9 9 m E D T.k.",
"T.F.D.qX5X>X:X1X3.<.,.>.=.*.c s &                                 O * * C P Z C C M 0 9 9 9 9 oXT.n.",
"T.Y x W.r.4X2X2X<X3.,.,.2.7.h.h.&Xp.J s + +             & a p ` A.d.J.k.c.A.d.S.Y x J.A P E s.|.k.T.",
"i.v.v.i.T.] 9.0.1X0.9.7.L.i.v.R.'.!.p.k.6.$.X.L.i.!.i.h.A.N.|.N.m.T.j K.R d G.i.h.z.i.R.s.~.=Xm.T.M.",
"T.K.v.~.F.T.F.A.~.F.K.R.F.R.K.v.~.F.K.T.v $.7. X;XG.K.G.z.~.R.T.T.F.~.F.F.T.G.].J.z.~.(.!.!.~.J.F.oX",
"(.T.v.XXd.A.z.d.[ j.T._.f.F.v.k.L.f.z.c.b $.v n.T.h ).W.k.Y.d.F.v.d.Y.d.v.F.k.K.h.I W.*XW.z.d.W.'.].",
"E. X.X[.R.S I F.d F.R.'.!.i.c.n.i.!.F F ..$.7.k.i.!.'.E.v.i.' F k.T.D K.l.i.!.i.v.v.i.=XR F.+Xd.].n.",
"_ D.R.~.F.R.!.F.~.v.K.T.F.R.K.T.+XF.K.K.| $.%.].+XJ.A.J.H.] ` F.T.v.~.F.F.R.F.F.A.z.~.Q.R.!.~.Z.F.T.",
"{ x.k.W.f.F.v.f.J.k.v.F.f.F.v.k.Q.f.F.v.( $.$...T.f.S.~.'.H.d.W.W.d.W.j.z.W.d.G.Y z W.d.W.T.d.J.d.v.",
"a.v.n.D R.s.k.T.i.T.c.i.J.i.n.n.i.oXx.N 9 q 7 c D H.D z.c.i.W.N.N.T.i.K.v.d.R.S c.n.i.R.n.m.T.i.C.g.",
"T.F.v.~.S.=XoXF.~.F.F.R.S. X~.v.P 9 9 9 9 9 9 q 9 w B M m P I.T.K.A.[ A.n.R.W.F.A.R ] S.~.~.A.-XG.c.",
"H.x.n.XXd.T.T.d.W.d.x.F.f.T.v.j.0 9 9 9 9 9 9 9 9 9 9 9 9 9 A v.v.d.).v.z.F.V.J.R z G.d.F.z.h J.h R ",
"g z.R.'.R.d.U ' D M.l.j.&Xs.E m 9 9 9 9 9 9 9 9 9 9 9 9 9 9 C s.k.R.'.R.j.j !.i.v.v.i.T.s.k.F.i F.k.",
"-X|.v.~.I.{.].` ~.Y.Q 9 9 9 9 9 9 9 9 9 9 9 9 9 9 9 9 9 9 9 L Y.T.F.~.F.G.Z.Y.R.W.T.~.F.T.K.v.~.z.|.",
"!.n.k.G.d.U.n.d.Y.B.Q 9 9 9 9 9 9 9 9 9 9 9 9 9 9 9 9 9 9 9 n I.v.d.Y.b.v.F.N.U.~.'.W.d.F.v.d.T.F A.",
"i.z.R d W.s.k.T.D T.l.A V 9 9 9 9 9 9 9 9 9 9 9 9 9 9 9 9 9 9 9 n Q i.' U d. Xa.T.!.i.!.s.k.T.i.K.k.",
"oX_.F.~.F._.~.A.~.F.F.R.F.T.Q L L N m 9 m m M C P C C w 9 9 0 0 9 9 I.A.S.E.R.R.T.U.E.F.T.T.v.~.W.W.",
"T.'.E.Y.m.`.Y.k W.l.v.F.f.F.v.k.W.d.(.(.F H.k.z.A.d.F.M.H ( N C C H U.k.c.F.f.G.c.d.Y.f.v.x.d.[ }.!."
};
