/* XPM */
static char *result[] = {
/* columns rows colors chars-per-pixel */
"50 50 194 2 ",
"   c #0D2600",
".  c #142602",
"X  c #152A02",
"o  c #1A2C04",
"O  c #1A2C09",
"+  c #1D3305",
"@  c #1E3109",
"#  c #213507",
"$  c #233B04",
"%  c #23370B",
"&  c #253C0A",
"*  c #283E0C",
"=  c #1E4607",
"-  c #274302",
";  c #274207",
":  c #244F01",
">  c #2C4B03",
",  c #2A440B",
"<  c #2F4B0C",
"1  c #314D0D",
"2  c #295507",
"3  c #245A00",
"4  c #285E00",
"5  c #325504",
"6  c #355B03",
"7  c #34530D",
"8  c #2E4711",
"9  c #334D12",
"0  c #2F5015",
"q  c #365611",
"w  c #385611",
"e  c #3C5C14",
"r  c #375C1B",
"t  c #2D6201",
"y  c #2D630D",
"u  c #326404",
"i  c #3D6606",
"p  c #356A02",
"a  c #396E01",
"s  c #3C640C",
"d  c #36680D",
"f  c #366B0D",
"g  c #3E7302",
"h  c #3F720D",
"j  c #3A6214",
"k  c #3B6D12",
"l  c #3E7011",
"z  c #416E01",
"x  c #446F08",
"c  c #417602",
"v  c #457902",
"b  c #497E01",
"n  c #44750B",
"m  c #467B0D",
"M  c #4B7D0D",
"N  c #426316",
"B  c #436B15",
"V  c #416419",
"C  c #446B1B",
"Z  c #486F19",
"A  c #467716",
"S  c #4A7415",
"D  c #477915",
"F  c #4B7D14",
"G  c #44731B",
"H  c #4C751B",
"J  c #4C7B1C",
"K  c #50751E",
"L  c #517D1C",
"P  c #466B24",
"I  c #447523",
"U  c #4B7621",
"Y  c #477824",
"T  c #4D7C23",
"R  c #447529",
"E  c #4C7B29",
"W  c #527D22",
"Q  c #547629",
"!  c #4E7937",
"~  c #4D8201",
"^  c #4E820D",
"/  c #508605",
"(  c #528806",
")  c #52860D",
"_  c #568C0C",
"`  c #588E0D",
"'  c #4E8115",
"]  c #4E801C",
"[  c #528513",
"{  c #568A12",
"}  c #588C16",
"|  c #54841D",
" . c #59861D",
".. c #56881C",
"X. c #5B8C1C",
"o. c #5E9414",
"O. c #5E911D",
"+. c #609614",
"@. c #629817",
"#. c #61951C",
"$. c #659A1B",
"%. c #699E1E",
"&. c #6AA11F",
"*. c #4E8022",
"=. c #4F8128",
"-. c #548322",
";. c #598623",
":. c #578923",
">. c #5C8C22",
",. c #548329",
"<. c #5B8629",
"1. c #5C8B29",
"2. c #5F9122",
"3. c #5D9029",
"4. c #5F8B36",
"5. c #608E25",
"6. c #628F29",
"7. c #629424",
"8. c #669825",
"9. c #699C25",
"0. c #64932A",
"q. c #68962C",
"w. c #679929",
"e. c #6A9D2A",
"r. c #618938",
"t. c #659232",
"y. c #699533",
"u. c #6E9B34",
"i. c #699339",
"p. c #6E993B",
"a. c #719E36",
"s. c #729E3A",
"d. c #6DA224",
"f. c #6EA12C",
"g. c #70A625",
"h. c #72A827",
"j. c #71A32E",
"k. c #75AB2A",
"l. c #78AF2C",
"z. c #7AB12E",
"x. c #6FA030",
"c. c #73A333",
"v. c #76A933",
"b. c #79AC35",
"n. c #76A43B",
"m. c #7BAC39",
"M. c #7EB532",
"N. c #7EB13B",
"B. c #6D9649",
"V. c #70974F",
"C. c #739656",
"Z. c #79A541",
"A. c #7CA942",
"S. c #78A051",
"D. c #7B9D61",
"F. c #80B735",
"G. c #83BA36",
"H. c #81B43D",
"J. c #85B93F",
"K. c #83B442",
"L. c #85B940",
"P. c #88BD42",
"I. c #8ABA49",
"U. c #8AB35F",
"Y. c #85AA66",
"T. c #92B86C",
"R. c #8AA775",
"E. c #98B979",
"W. c #8CC046",
"Q. c #91C54B",
"!. c #94AE83",
"~. c #97AB8B",
"^. c #9EB293",
"/. c #A4B898",
"(. c #A7BA99",
"). c #B1B8AF",
"_. c #A1C086",
"`. c #B6C6AD",
"'. c #B9C4B4",
"]. c #BDCAB4",
"[. c #C2CDBC",
"{. c #C5D3BC",
"}. c #CBD6C5",
"|. c #D3DCCD",
" X c #D9DFD6",
".X c #DDE9D4",
"XX c #DEE3DA",
"oX c #E0E7DB",
"OX c #E4E9E0",
"+X c #EBEEEB",
"@X c #ECF0E9",
"#X c #F3F6F2",
"$X c #F7F8F6",
"%X c #FFFFFF",
/* pixels */
"v.0.<.9.:.7.0.y.P.u.7.8.>.8.2.W R >.8.8.0.9.7.e.j.>.8.>...3.:.7.e.e.e.e.1.Y w.b.e.w.H.>.7.7.8.v.>.2.",
"<.w.9.0._ X.c.M.e.k G 6.o.>.} [ <._ >.X._ 0.{ ..>._ u.0.{ 0._ >.X._ 0.{ | ;.` u.j.9.w._ >...) >._ } ",
"t | O.~ 0.) { 8.~ 7.} / w.~ ..-.~ K.O.{ 7.~ 7.[ b w.&.9.#._ w.) F Y ~ 7.} ~ 9.$.:.T ~ 0.) } O.p >.{ ",
"7.2.X.w.>.m.m.X.f.>.2.7.>.-.-...e.e.8.7.:.e.>.7.e.p.0.O.X.e.>.e.w.H e.:.2.0.>.8.-.H 1.X.7.2.| 9.X.2.",
"y.0.} a._ 7.0._ 6.) ..5._ -...{ 0.) X.:._ 6.{ >.f.G.0.X.{ ,._ 7.1.^ >._ ..6._ n.w.{ 1._ X.| f 0._ 3.",
"%.v.v.@.8.) { 7.~ Y A } I.M ..X.~ T M { 7.~ v.e._ j./ c.c.u 7.{ } X.~ T F ~ w.h.f.X.~ 0.) } #.~ 7.#.",
"#.w.0.e.-.Y T ..w.W I T c.9.7.X.e.T >.7...E 1.w.e.5.7.e.b.Q.6.7.0.4.=.U >.f.>.8.X.X.f.>.N.N.X.e.3.7.",
">.X._ 6.h T ..^ 6._ 6.y._ 6.X.{ 0.^ 0.0._ <.k H 5.` 5.X.} c.` 0.n.M.1._ ..1.o.<.| ' 1._ w.0.` a.9.$.",
"b } X.~ 7.) { 7.b 2.8.%.w.( X.X.~ T } $.7.~ >.} / w./ } O.` w.$.%.0.~ 7.[ g <.g ..X.g e.{ { 8.$.2.[ ",
"7.5.X.w.>.7.0. .e.X.8.j.5.8.>.:.v.I 2.0.6.e.X.7.8.y.w.5.5.e.>. .:. .e.X.>.7.,.I T X.9.3.7.2.} e...>.",
":.X.{ 6._ X.X._ 0.{ X.0.` 6.J k E f L 0.d.0.{ X.q.F.5.9.9.1._ >.X.` 6._ X.7.+.W | { 0._ y.u._ e.{ q.",
"/ X.X.~ c.{ { 7.~ 8.} ~ w._ X...t c.} { 7.~ m.e./ e./ f.c.v x.{ 0.K.~ 7.../ w.g H ] ~ w.d.d.8.o.*.7.",
"#.>.X.e.a.0.7.>.e.-.2.7.>.9.2.X.e.w.f.e. .e.w.8.8.:.v.f.9.e.7.7.w.j.J.0.:.2.y.f.3.-.v.0.-.-.1.1.J 3.",
">.X.{ 0.z.w.X._ 6.k H 7.` y.7.X.Z._ q.0.) 0.F | :.m 6.O.) E _ >.X._ e.{ ..0.l.w.O._ q.d.0.2.@.>._ X.",
"~ } O.~ e.) } e.~ Y D ~ w.+.7.9.l.w.#.#.7.~ 2.} ~ 0.~ J G 3 7.) R.].^.2.} ~ E / O.X.~ <.^ } 7.~ #.} ",
"7.5.X.e.5.7.0.7.w.G -.0.:.:.:.X.e.>.w.w.:.e.X.>.8.;.8.;.1.P.X.).%X%X%X].T I r.7.2.X.e.T >.w.w.v.w.0.",
">.} { ,.` X.X._ p.F | >.` >.} { 0._ -..._ 3.{ ..-._ s.7.} e.! $X%X%X%X%XV.u.G.0.X.{ 0._ :.9.k.;.d.9.",
"~ ..X.g m.X.{ 9.$.7.} _ m.) X.X.~ 7.m F 2.~ 2.' g w.g.c.e./ U.%X%X%X%X%XY.$.m./ X.X.~ 0.^ } 7.p 2.} ",
"0.>.X.e.q.e.8.:.e.X.>.8.q.8.6.X.e.>.7.7.-.E -.L Y :.j.w.2.Y.}.%X%X%X%X$X~.I c.H.f.0.H.>.7.#.X.9.| :.",
"X.X.{ 6.` X.>._ ,.{ | W _ >.} { 6._ -.X._ P [ | <._ t./.XX%X%X%X%X%X%X%X%X'.l.e.} } n.^ :.X._ 6.f H ",
"~ J *.~ 0.) { 7.a Y k f e.~ X.O.~ 0.^ ' 7.3 :.} D.{.#X%X%X%X%X%X%X%X%X%X%X+X9./ X.8.%.9.) } #.~ ] ' ",
"m.e.| e.:.T T X.e.<.1.7.,.:.-.X.w.X.7.0.>.K.(.oX%X%X%X%X%X%X%X%X+X%X%X%X%X.X>.0.2.0.v.>.e.e.7.P.>.>.",
">.O.{ 6._ ...._ 6.l.j.-.y W ..{ 0._ >.C.{.#X%X%X%X%X%X%X%X$X|.R.X.].$X$X|.C._ 6.#.O.6._ 5.O._ w.{ X.",
"~ ] J ~ 1.^ ..e.~ y.!.R.w.~ | *.[ (.XX%X%X%X%X%X%X%X%X@X`.4.3.) { 6.v | B 6 7.) X.>.c N.O.{ 7.c 2.{ ",
"7.<.J e.-.7.7.7.E.#X%X%X].0.C.[.#X%X%X%X%X%X%X%X$X|._.e.X.0.-.2.2.L L e s Z P I T X.9.f.0.7...=.| :.",
"c.-.G u._ :.X._ OX%X%X%X%XXX%X%X%X%X%X%X%X%X+X`.C.+.u.0.{ 6._ X. .x P * # % = r J { 0._ X.X._ 1._ ..",
"9.9.#.@.8.^ } e.#X%X%X%X%X%X%X%X%X%X%X%X X~.W H ~ w.%.8.X.b <.m M K 7 & . . e : L #.~ 0.) e.H.~ m.w.",
"2.2...3.:.>.>.>.}.%X%X%X%X%X%X%X%X#X{.Y.L N.;.T =.>.:.-.| w.J | K w , o O # 1 H ;.X.e.:.-.q.m.e.d.w.",
";.X.{ 6.` X.X.` i.`.$X%X%X%X%XoX/.I ;.7.` 0.{  .;._ ;.C j W n N w $ # o o o ; e S [ q._ X.e.M.A.O.| ",
"~ e.f.~ 0.) ' -.b T.%X%X%X%X%XB.b 6.) O.b./ 2.{ v U c B e 4 e - + O X o . . & - ;.s.` q.) ' >.l.2.A ",
",.1.f.W.>.7.>.L c.E.%X%X%X%X%XB.w...2.0.w.w.J -.;.V Z w , 1 & # # @ * % # # % 9 K 5.E t.0.2.] e...2.",
"..G k u._ X.>._ 0.} OX%X%X%X[.{ 6._ 0.0.) E 2 q N 5 < & o O $ & 9 N e 5 1 9 V w B M <.l.w.X._ 3._ X.",
"~ } >.~ 8.) { 7.~ c.S.}.OX).V J b 5.}  .L > 0 ; $ & o o @   9 5 s K z C j u r 2 H ..~ >.' { 8.~ O.} ",
"7.:...e.:.7.7.X.w.w.5.L V B j U a.K S N 7 1 # & ; # * 8 9 0 C K -.| 0.J -.>.Z W W ..e.T 2.2.O.J.0.O.",
"0.H k 0._ *.| _ 6.) S N > * * < Q 6 1 ; + O o # * > w K 6.Q { 6.6.) 1.{ | *._ ;.G l 0.n -.X._ c.` 7.",
"~ ..X.~ 0.h k -.~ 5.S 5 * X o ; < * o o #   9 w 6 H z G J +.c.$.+.7.c X.J t ,.~ | ] ~ 7.) 9.J.o.7.O.",
"7.X...e.>.2.3.J e. .F e & o X X o O # & , e N 5.a.H :.L L e.7.0.7.X.w.X.5.7.W f.>.| e.y.0.9.e.1.6.m.",
"y.7.O.Z._ | | _ Q { L Q > + . . o # ; w x U M  .6.d i.0.{ 0._ :.:._ 6.{ ..>._ 0.J D w.G.0.| _ 3.d.d.",
"9.v.b.h.9.n D 2.4 >.7. .N # X X X 1 5 e L b 5.} ~ w.g.9.X.~ T ^ { 7.b 7.} / 0.~ } 2.~ N.J 1.N._ f.O.",
"G 1.8.e.1.8.7.>.e.X.>. .N 1 o O 9 w S 5. .e. .f.m.>.,.1.,.R U >.7.X.e.X.7.7.>.>.,...e.e.0.e.e.=.>.7.",
"W } { 6._ >.X._ 6.{ X. .x 9 $ $ 9 i K  ._ 6._ >.0._ ;.e.d.<.` 0.w._ 0.' ..0._ -.G k 0._ 0.7._ 1._ X.",
"/ X.2.~ 9.) { 7.b 7...b U 6 7 7 6 t.{ { 7.b 7.{ ~ 1.b | ..~ 0.$.#.7.~ 2.} _ w.g ..X.~ 0.o.#.#.~ *.' ",
"7.6.>.9.>.m.m.>.e.5.2.#.K q.L Z <.7.v.c. .e.>.2.8.-.0.>.| w.:.7.7...E -.>.8.0.1.-.J R :.e.q.:.J.,...",
";.| 2.n.` 7.7._ 5.{  .>.` 5. .[ 0._ 6.7.` Z.X.X.>._ >...[ E _ X.>._ p.} ..1.d.>.H l ,.` >.| f 1.d J ",
"p | 8.d.9.) F U ~ O.} { I.) X.O.` 0.) _ 9.h.1.F / w.~ } ..3 0.^ { 8.d.9.' g e.~ X.X.~ 0.) { 2.4 :.{ ",
"L.c.X.e.:.j.j.T e.0.7.9.c.7.-. .e.;.7.7.>.e.-.X.8.>.I.c.| ,.6.0.7.;.w.>.-.=.6.w.0.0.d.:.2.2.X.e...c.",
"w.O.{ W ` 6.X._ 6.$.7.5.` ;.H k 6._ >.#.+.6.{ ..>.` c.0.[ E g.0.X._ 6.o.X.>.$.0.e.d.6._ >.X._ 0.m -.",
"~ | T t 7.) { 7.~ 7.../ e.b ..X.b 7.) { 0.~ 7.} / 9.@.8. .u P.7.{ 7.~ T ' ) v.~ 7.w.~ w._ { O.~ O.} ",
"N.u.1.8.>.f.e.-.e.>.2.8.>.8.>.>.e.>.7.2.| ,.-.>.8.>.8.0.>.e.j.9.7.X.w.W :.9.0.9.7.7.9.>.7.7.X.w.0.w.",
"7.9.%.0.$.u.t.h 1.{ } 6.` >.} { 0._ u.y.m 1.{ ..-._ >.#.} E _ >.X._ 6.{ ..5._ -.| _ 0._ X..._ E k.q."
};
