/* XPM */
static char *result[] = {
/* columns rows colors chars-per-pixel */
"50 50 109 2 ",
"   c #010100",
".  c #161B00",
"X  c #12130C",
"o  c #171810",
"O  c #1B1C13",
"+  c #1C2101",
"@  c #272D01",
"#  c #343C01",
"$  c #24251A",
"%  c #2C2D21",
"&  c #333526",
"*  c #373929",
"=  c #3E412F",
"-  c #3F4230",
";  c #465002",
":  c #4B5502",
">  c #4E5902",
",  c #525E02",
"<  c #556102",
"1  c #596503",
"2  c #5E6A03",
"3  c #576209",
"4  c #5B660A",
"5  c #606D03",
"6  c #616D0B",
"7  c #657403",
"8  c #6A7903",
"9  c #65710C",
"0  c #68750D",
"q  c #6C790E",
"w  c #717E0F",
"e  c #575B43",
"r  c #75795A",
"t  c #738304",
"y  c #7F9004",
"u  c #798711",
"i  c #7D8C12",
"p  c #829405",
"a  c #8A9D05",
"s  c #839314",
"d  c #8C9C15",
"f  c #8DA005",
"g  c #92A605",
"h  c #95A906",
"j  c #98AD06",
"k  c #9DB206",
"l  c #8FA016",
"z  c #92A317",
"x  c #97A818",
"c  c #9BAC19",
"v  c #A1B608",
"b  c #A4BA0B",
"n  c #A3B61A",
"m  c #A7BA1B",
"M  c #869521",
"N  c #ACC210",
"B  c #AFC21E",
"V  c #B1C713",
"C  c #B4CA15",
"Z  c #B7CC1F",
"A  c #BCD319",
"S  c #B0C32E",
"D  c #BDD321",
"F  c #C0D71B",
"G  c #C2D91C",
"H  c #C1D622",
"J  c #C5DB23",
"K  c #CCE323",
"L  c #D5EC26",
"P  c #D9F127",
"I  c #D9F12B",
"U  c #DAF131",
"Y  c #DBF13A",
"T  c #888C69",
"R  c #8D926E",
"E  c #90946F",
"W  c #929771",
"Q  c #969C75",
"!  c #9AA078",
"~  c #A1A77D",
"^  c #A9AF7F",
"/  c #DCF243",
"(  c #DEF255",
")  c #DFF25C",
"_  c #D5E66A",
"`  c #D8E86E",
"'  c #DFF262",
"]  c #D7E672",
"[  c #E0F364",
"{  c #E1F369",
"}  c #E2F378",
"|  c #A6AC81",
" . c #A8AE83",
".. c #ADB386",
"X. c #B7BD8D",
"o. c #BEC68C",
"O. c #BCC292",
"+. c #C0C793",
"@. c #C5CC97",
"#. c #C6CD9A",
"$. c #E6F48F",
"%. c #D3DAA4",
"&. c #E1E9AF",
"*. c #EAF5A1",
"=. c #ECF5AC",
"-. c #E5EDB2",
";. c #ECF5B5",
":. c #EEF6B9",
">. c None",
/* pixels */
">.>.>.>.>.>.>.>.>.>.>.>.>.>.>.>.>.>.>.>.>.>.>.>.>.>.>.>.>.>.>.>.>.>.>.>.>.>.>.>.>.>.>.>.>.>.>.>.>.>.",
">.>.>.>.>.>.>.>.>.>.>.>.>.>.>.>.>.>.>.>.>.>.>.>.>.>.>.>.>.>.>.>.>.>.>.>.>.>.>.>.>.>.>.>.>.>.>.>.>.>.",
">.>.>.>.>.>.>.>.>.>.>.>.>.>.>.>.>.>.>.>.>.>.>.>.>.>.>.>.>.>.>.>.>.>.>.>.>.>.>.>.>.>.>.>.>.>.>.>.>.>.",
">.>.>.>.>.>.>.>.>.>.>.>.>.>.>.>.>.>.>.>.>.>.>.>.>.>.>.>.>.>.>.>.>.>.>.>.>.>.>.>.>.>.>.>.>.>.>.>.>.>.",
">.>.>.>.>.>.>.>.>.>.>.>.>.>.>.>.>.>.>.>.>.>.>.>.>.>.>.>.>.>.>.>.>.>.>.>.>.>.>.>.>.>.>.>.>.>.>.>.>.>.",
">.>.>.>.>.>.>.>.>.>.>.>.>.>.>.>.>.>.>.>.>.>.>.>.>.>.>.>.>.>.>.>.>.>.>.>.>.>.>.>.>.>.>.>.>.>.>.>.>.>.",
">.>.>.>.>.>.>.>.>.>.>.>.>.>.>.>.>.>.                        >.>.>.>.>.>.>.>.>.>.>.>.>.>.>.>.>.>.>.>.",
">.>.>.>.>.>.>.>.>.>.>.>.>.>.>.>.>.>.T E M s s s s s s i 5 , >.>.>.>.>.>.>.>.>.>.>.>.>.>.>.>.>.>.>.>.",
">.>.>.>.>.>.>.>.>.>.>.>.>.>.      $ %.=.Y P P I I I P K k t         >.>.>.>.>.>.>.>.>.>.>.>.>.>.>.>.",
">.>.>.>.>.>.>.>.>.>.>.>.>.X Q ......` { I L c z x m L K k f t t t <   >.>.>.>.>.>.>.>.>.>.>.>.>.>.>.",
">.>.>.>.>.>.>.>.>.>.>.>.  O @.:.;.;./ P P K 9 3 3 s L K k k k k k 8   >.>.>.>.>.>.>.>.>.>.>.>.>.>.>.",
">.>.>.>.>.>.>.>.>.>.>.  ! +._ ' [ ) U P I K 9 3 3 s L L G K K C k f y >   >.>.>.>.>.>.>.>.>.>.>.>.>.",
">.>.>.>.>.>.>.>.>.>.    X.;.) P P P P P P K 6 3 3 s L P P L P A k k k 2   >.>.>.>.>.>.>.>.>.>.>.>.>.",
">.>.>.>.>.>.>.>.>.  W #._ ( U P P L d i i u 4 3 3 6 i i s n P L K C k f p :   >.>.>.>.>.>.>.>.>.>.>.",
">.>.>.>.>.>.>.>.$ $ ^ ;.' P P P P L q 3 3 3 3 3 3 3 3 3 3 l P P P G v k j , . >.>.>.>.>.>.>.>.>.>.>.",
">.>.>.>.>.>.>.  Q %.] / U P P P P L q 3 3 3 3 3 3 3 3 3 3 z P P L L L C k g a ;   >.>.>.>.>.>.>.>.>.",
">.>.>.>.>.>.>.  | :.} P P P P P P L q 4 9 0 3 3 3 4 0 0 0 x P P P P P A b v k :   >.>.>.>.>.>.>.>.>.",
">.>.>.>.>.>.>.  | ;.} P P P P P P L q 9 J J 9 3 3 i K K L L P P P P P L L V j :   >.>.>.>.>.>.>.>.>.",
">.>.>.>.>.>.& - ..;.} P P P P P P L q 0 K L 9 3 3 s P P P P P P P P P P P C k 1 @ >.>.>.>.>.>.>.>.>.",
">.>.>.>.>.  T -.;.:.} P P P P P P P q 0 K K 9 3 3 s L P P P P P P P P P P V k j h #   >.>.>.>.>.>.>.",
">.>.>.>.>.  W :.:.:.} P P P P P P L q 9 D B 6 3 3 u D H D K I P P P P P L A N v k #   >.>.>.>.>.>.>.",
">.>.>.>.>.  R :.:.:.} P P P P P P P q 3 4 4 3 3 3 4 4 4 4 z P P P P P P P P P V k #   >.>.>.>.>.>.>.",
">.>.>.>.>.  E :.:.:.} P P P P P P L q 3 3 3 3 3 3 3 3 3 3 l P P P P P P P P P V k #   >.>.>.>.>.>.>.",
">.>.>.>.>.  E :.:.;.} P P P P P P L q 3 3 3 3 3 3 3 3 3 3 d P P P P P P P P P V k #   >.>.>.>.>.>.>.",
">.>.>.>.>.  W :.*.$.) P P P P P P P c z z l 4 3 3 0 l s 3 l P P P P P P P P P V k #   >.>.>.>.>.>.>.",
">.>.>.>.>.  E :.} P P P P P P P P P P P P K 9 3 3 s L D 3 l P P P P P P P P P V k #   >.>.>.>.>.>.>.",
">.>.>.>.>.  E :.} P P P P P P P P P P P P K 9 3 3 i P D 3 l P P P P P P P P P V k #   >.>.>.>.>.>.>.",
">.>.>.>.>.  W :.} P P P P P P P P P P P P K 9 3 3 s L D 3 l P P P P P P P P P V j #   >.>.>.>.>.>.>.",
">.>.>.>.>.  E :.*.$.' P P P P P P P c z z d 4 3 3 0 z s 3 l P P P P P P P G C b k #   >.>.>.>.>.>.>.",
">.>.>.>.>.  E :.:.:.} P P P P P P P q 3 3 3 3 3 3 3 3 3 3 l P P P P P P P C k k k #   >.>.>.>.>.>.>.",
">.>.>.>.>.>.e r O.:.} P P P P P P L q 3 3 3 3 3 3 3 3 3 3 l P P P P P P P V k 7 : >.>.>.>.>.>.>.>.>.",
">.>.>.>.>.>.>.  | :.} I I P P P P L w 4 4 4 3 3 3 4 4 4 4 z P P P P P P P V k :   >.>.>.>.>.>.>.>.>.",
">.>.>.>.>.>.>.  | :.=.*.) P P P P P J D J Z 6 3 3 u D H H K L P P P P A N b k :   >.>.>.>.>.>.>.>.>.",
">.>.>.>.>.>.>.  ! -.-.:.' U I P P P P P P K 6 3 3 s P P P P P P P P L A k h h :   >.>.>.>.>.>.>.>.>.",
">.>.>.>.>.>.>.>.* - ..:.=.=.( P P P P P P K 9 3 3 s L P P P P P P G b k k 1 @ >.>.>.>.>.>.>.>.>.>.>.",
">.>.>.>.>.>.>.>.    | &.;.:.' Y I P P P P K u 9 9 d L P P P P P L A k j h >   >.>.>.>.>.>.>.>.>.>.>.",
">.>.>.>.>.>.>.>.>.>.% % O.;.=.=.( P P P P P K K K K P P P P L G b v k 2 + >.>.>.>.>.>.>.>.>.>.>.>.>.",
">.>.>.>.>.>.>.>.>.>.>.  | %.-.;.[ / / / P P P P P P P L K L L A k h a ,   >.>.>.>.>.>.>.>.>.>.>.>.>.",
">.>.>.>.>.>.>.>.>.>.>.>.$ % #.:.;.;.;.=.Y P P P P P P K v v v k k 8 . >.>.>.>.>.>.>.>.>.>.>.>.>.>.>.",
">.>.>.>.>.>.>.>.>.>.>.>.  X | #.#.#.;.=.Y P P P P P P K k g p p p 2   >.>.>.>.>.>.>.>.>.>.>.>.>.>.>.",
">.>.>.>.>.>.>.>.>.>.>.>.>.>.      O %.=.Y P P P P P P L k t         >.>.>.>.>.>.>.>.>.>.>.>.>.>.>.>.",
">.>.>.>.>.>.>.>.>.>.>.>.>.>.      O ..o.S S B B B B B m p 7       >.>.>.>.>.>.>.>.>.>.>.>.>.>.>.>.>.",
">.>.>.>.>.>.>.>.>.>.>.>.>.>.>.>.>.>.  X     X               >.>.>.>.>.>.>.>.>.>.>.>.>.>.>.>.>.>.>.>.",
">.>.>.>.>.>.>.>.>.>.>.>.>.>.>.>.>.>.                      >.>.>.>.>.>.>.>.>.>.>.>.>.>.>.>.>.>.>.>.>.",
">.>.>.>.>.>.>.>.>.>.>.>.>.>.>.>.>.>.>.>.>.>.>.>.>.>.>.>.>.>.>.>.>.>.>.>.>.>.>.>.>.>.>.>.>.>.>.>.>.>.",
">.>.>.>.>.>.>.>.>.>.>.>.>.>.>.>.>.>.>.>.>.>.>.>.>.>.>.>.>.>.>.>.>.>.>.>.>.>.>.>.>.>.>.>.>.>.>.>.>.>.",
">.>.>.>.>.>.>.>.>.>.>.>.>.>.>.>.>.>.>.>.>.>.>.>.>.>.>.>.>.>.>.>.>.>.>.>.>.>.>.>.>.>.>.>.>.>.>.>.>.>.",
">.>.>.>.>.>.>.>.>.>.>.>.>.>.>.>.>.>.>.>.>.>.>.>.>.>.>.>.>.>.>.>.>.>.>.>.>.>.>.>.>.>.>.>.>.>.>.>.>.>.",
">.>.>.>.>.>.>.>.>.>.>.>.>.>.>.>.>.>.>.>.>.>.>.>.>.>.>.>.>.>.>.>.>.>.>.>.>.>.>.>.>.>.>.>.>.>.>.>.>.>.",
">.>.>.>.>.>.>.>.>.>.>.>.>.>.>.>.>.>.>.>.>.>.>.>.>.>.>.>.>.>.>.>.>.>.>.>.>.>.>.>.>.>.>.>.>.>.>.>.>.>."
};
