/* XPM */
static char *result[] = {
/* columns rows colors chars-per-pixel */
"50 50 185 2 ",
"   c #255A00",
".  c #285E00",
"X  c #2E6201",
"o  c #2D630D",
"O  c #316504",
"+  c #366B02",
"@  c #396E01",
"#  c #31670D",
"$  c #356A0D",
"%  c #396E0C",
"&  c #3D7302",
"*  c #3F720D",
"=  c #3B6D12",
"-  c #3E7011",
";  c #3D6823",
":  c #427602",
">  c #457901",
",  c #4A7F01",
"<  c #43760D",
"1  c #467B0C",
"2  c #497C0D",
"3  c #436D18",
"4  c #486F1B",
"5  c #467714",
"6  c #4B7717",
"7  c #477915",
"8  c #4B7C15",
"9  c #45751B",
"0  c #4B761D",
"q  c #4C7B1D",
"w  c #517F1D",
"e  c #415C27",
"r  c #456525",
"t  c #466D25",
"y  c #4A6F21",
"u  c #447522",
"i  c #4B7621",
"p  c #477824",
"a  c #4C7C23",
"s  c #447529",
"d  c #4E722B",
"f  c #4D7B29",
"g  c #517E22",
"h  c #567B2B",
"j  c #526D38",
"k  c #547637",
"l  c #547C30",
"z  c #535353",
"x  c gray35",
"c  c #566E43",
"v  c #5A6B4E",
"b  c #5A7344",
"n  c #5E7B46",
"m  c #617B4F",
"M  c #697E59",
"N  c #606060",
"B  c #646B62",
"V  c #6C7369",
"C  c gray45",
"Z  c #787F76",
"A  c #4D8201",
"S  c #4E820D",
"D  c #508605",
"F  c #528806",
"G  c #52860D",
"H  c #568C0C",
"J  c #588E0D",
"K  c #4E8214",
"L  c #4E801B",
"P  c #528513",
"I  c #568A12",
"U  c #598C16",
"Y  c #54841D",
"T  c #58851F",
"R  c #56881C",
"E  c #5B8C1C",
"W  c #5E9413",
"Q  c #5E911D",
"!  c #609614",
"~  c #629817",
"^  c #61951C",
"/  c #659B1B",
"(  c #699E1E",
")  c #6AA11F",
"_  c #4E8022",
"`  c #4F8128",
"'  c #548423",
"]  c #598623",
"[  c #568923",
"{  c #5C8C22",
"}  c #538329",
"|  c #5A842A",
" . c #5C8A29",
".. c #5F9122",
"X. c #5D9029",
"o. c #5F8B31",
"O. c #608F25",
"+. c #628F29",
"@. c #629424",
"#. c #669825",
"$. c #699C25",
"%. c #64932A",
"&. c #68972C",
"*. c #679929",
"=. c #6A9C2A",
"-. c #688F35",
";. c #648B39",
":. c #649131",
">. c #699534",
",. c #6E9B34",
"<. c #6C9739",
"1. c #719E36",
"2. c #739F3B",
"3. c #6EA225",
"4. c #6EA12C",
"5. c #70A625",
"6. c #72A827",
"7. c #71A32E",
"8. c #75AB2A",
"9. c #78AF2C",
"0. c #7AB12E",
"q. c #73A433",
"w. c #76AA32",
"e. c #79AC35",
"r. c #76A33C",
"t. c #7BAC3A",
"y. c #7DB431",
"u. c #7EB13B",
"i. c #668747",
"p. c #698453",
"a. c #6B825B",
"s. c #73905B",
"d. c #79A541",
"f. c #7CA942",
"g. c #728766",
"h. c #7D8C74",
"j. c #80B734",
"k. c #83BA36",
"l. c #81B43D",
"z. c #85B93F",
"x. c #84B543",
"c. c #85B940",
"v. c #88BD42",
"b. c #8ABA49",
"n. c #819570",
"m. c #86947D",
"M. c #87987B",
"N. c #8A9B7E",
"B. c #8EA17E",
"V. c #8CC046",
"C. c #898D86",
"Z. c #898A88",
"A. c #869080",
"S. c #899383",
"D. c #8D9C83",
"F. c #91968D",
"G. c #939C8D",
"H. c #959794",
"J. c #949A91",
"K. c #999F97",
"L. c #9E9F9E",
"P. c #94A389",
"I. c #9EA599",
"U. c #A1AA9B",
"Y. c #A5A5A4",
"T. c #A6ABA2",
"R. c #A9ACA7",
"E. c #AAABA9",
"W. c #A7B1A0",
"Q. c #ACB3A7",
"!. c #AFB9A8",
"~. c #B4B4B3",
"^. c #B6B9B3",
"/. c #B8BBB7",
"(. c #BDBDBD",
"). c #C0C2BE",
"_. c #C3C3C2",
"`. c #C7C9C6",
"'. c #CCCCCC",
"]. c #CFD0CF",
"[. c #D3D3D3",
"{. c #DBDBDB",
"}. c #E4E4E4",
"|. c #ECECEC",
" X c #F1F1F1",
/* pixels */
"w.%.' =.{ @.%.>.v.=.%.#.{ #.{ Y s  .@.#.%.=.@.=.7.{ @.O.Y  .{ @.#.=.4.=. .s %.e.=.=.u.{ @.@.#.w.{ Q ",
"| *.$.+.H E q.y.=.= 9 O.W { U I | n.h.T H +.J T { J 1.@.I %.H V A.H %.I R ] J ,.7.$.&.H { E H ] G R ",
"X Y Q A @.G P #.A @.U D &.A Y Y D W.`.F.T , w m S.G.s.{ E D D.`.~.a A ..U A =./ [ q A #.G I ..@ ..U ",
"@...E =.{ u.t.{ 4.{ @.@.{ } ' Y =.G.[.{.Y.I.{. X X X X{.E.R.[.[.T.0 *.{ E #.{ #.[ 0  .] @.{ Y $.E ..",
">.@.U 1.H @.@.H +.I Y O.J ' R I +.a.[.{.{. X X X X X X X X|.[.{.m.1 +.H E { J 2.%.I  .H E Y $ @.H ..",
"( w.w.~ #.G I @., u 7 I b.2 R Q A t _.{. X X X X X X X X X X[.].k [ A a 8 F %.8.4.E A %.S U @.A @.^ ",
"@.%.#.=.' p a ] =.w u f q.$.{ E =.a k }. X{.[. X X X X{.[. X XM %.o.} i { =.{ #.{ E 7.{ x.u.E =.X.@.",
"E E I O.* g Y S +.I { >.J O.E I +.G O.'.|.].E.]. X X{.L.[.}.}.| t.y. .I R { W [ Y S  .H @.@.I q.( @.",
"D R E , @.G I @., ..#.( =.F E E A f E (.[.(.z ~.|. X_.x (.(.].Q / %.A ..Y & | & Y { & =.I U #./ ..P ",
"@.{ E =.] @.@.] =.E #.7.{ #.{ { 7.u E U.|.|.}.'.|. X'.}.|. X^.] { E =.E { @.| s a E =.{ @...U 4.Y ..",
"] E I +.H E E H +.I E @.J %.0 = h $ Y M. X|.'.|. X X X].}. XI.E T J O.I U @.~ a Y H %.H >.=.H =.I *.",
"A E E A q.U I @.A #.E A %.H Q Y . w.E k |.[. X|.E.E.}. X[. Xn.U #.x.A @.U A &.& 9 Y A #.4.3.@.W _ @.",
"@.^ E =.,.%.@.{ =.[ { @.{ =.@.E =.%.7.@.[.{. X}.C N {. X{.}.h *.=.7.z.#.{ X.>.4.X.{ 7.%.} ' {  .q @.",
"] E I %.0.=.E J +.% q O.J &.O.E d.H &.%.~.[. X X{.`. X X[._.G O.E H &.I R %.8.=.E I &.5.@...~  .I E ",
"A E ^ A =.I U =., p 5 A *.! @.$.8.=.^ ^ M {.{.{._.`.{.}.{.Z @.G P @.A Q U , f A Q E A ' S U @.A @.U ",
"@.{ E =.{ @.@.O.*.i ' @.{ [ [ E =.{ *.*.4 ~.{. X X X X{./.-.] O...[ =.{ a u ;.@...{ =.g ..%.*.w.%.@.",
"] E P | H E E H 1.8 Y { J ] E I %.H [ Y Z |.Y.(._.(._.Y.}.C.% q g 1  .H { ,.k.%.E I %.H { $.8.[ 3.$.",
"A U E @ t.Q I @.~ @.R H t.F U Q A @.1 5 _. X X|.|. X|. X X[.;.w ] t.: { ^ / t.F E E A #.S U @.+ { U ",
"#...E =.=.=.*.{ =.{ { $.&.#.{ { =.{ @.h |. X X X X X X X X XU.7.7.=.w.{ a p q.l.,.@.u.{ ....E =.Y { ",
"] U I +.H { E H | I Y a H { U I +.H ] D. X X X X X X X X X X{.| *.J %.I Y | 9.=.E U r.S ] E H @.# q ",
"A L L A #.G I ..@ p = O =.A E Q A #.1 '. X X X X X X X X X X XS./ @.A @.Y : =.A E #.( %.G U ^ A L K ",
"u.>.L =.{ a a { =.|  .#.} [ ] { =.] S.|. X X X X X X X X X X X`.{ E =.{ q.c.] #.@.@.w.{ 4.=...v.] { ",
"{ Q I %.H ] Y G %.w.4.] o ' E U +.l }. X X X X X X X X X X X X|.p.H %.I E  .H +.^ Q +.H { ^ H &.I E ",
"A L q A [ S Q 4.A @.U A @.A q L A I. X X X X X X X X X X X X X XT.@., @.q & =.H E E : u.Q I @.: ..U ",
"@.' q =.' ..@.@.e...' _ ' @.] ' %.]. X X X X X X X X X X X X X X`.E =.E O.@.} a g E 4.=.#.@.R ` R ' ",
"r.' 9 1.H { { H r.U R g # ] @.^ ] }. X X X X X X X X X X X X X X[.G 2.E Y u o ; L I X.H { E H ] H R ",
"$.$.^ W *.S I =.) #.E A  .A q 9 > }. X X X X X X X X X X X X X X|.i.) %.6 X %.. [ @.A @.G =.l.A t.*.",
"....R X.{ { { { %.[ 0 p ] #.[ q +.}. X X X}.|. X X X X|.|. X X X XM.=.%.@.X.{ #.@.E 4.] ' &.t.$.4.$.",
"] U I +.H { E H +.K Y ] J O.E I m |. X X X].|. X X X X}.{. X X X XU.+.8.4.{ J { E U >.H { =.y.f.U Y ",
"A =.7.A @.G K _ A t.=.F *.A E E h. X X X X'. X X X X X X]. X X X XU., @.U D *.D w.t.J #.G K  .0.#.5 ",
"} ] ,.V.{ @.{ ' w.4.=.#.[ #.Q E P. X X X|.[. X X X X X X'. X X X XU.=.E O.$.>.#.=.%.f :.@.{ L =.R { ",
"] 9 = =.H { E H %.I R { 2 i Y J U. X X X{.}. X X X X X|.}.}. X X X!.%.I E &.j. .Y I  .9.=.E H X.H E ",
"A E E A @.G I @., q.=.A %.X 9 Y ^. X X X`.|.|. X X|. X X}.'. X X X).A a 8 , f X Y E A { K I ^ A ^ U ",
"@.{ Y =.{ ..@.{ =.=.#.#.{ #.[  .). X X X'.^.n D.!.Q.P.p.J.'. X X X`.=.g { #.f ' ' [ =.a ..@...z.@...",
"@.9 - X.H ' Y H +.I E { J { q 5 {. X X X].Q.G Q @.J E w.B.]. X X X`. .I Y ' I { 9 - %.* Y E J q.J ..",
"A E E A #.% = ' A @.U F $.D E h |. X X X].K.q.%.D $.D q g.[. X X X'.& { q O } , Y L A @.G =.l.~ #.Q ",
"@...{ =.{ @.{ g =.{ ^ @.{ #.{ i }. X X X].N.%.e.c.h X.' j '. X X X[.*.{ { @.g 4.{ Y =.>.@.=.=.[ X.e.",
">.@.U d.H Y Y H f I @.1.J { E 2 {. X X X'.M J Q @.% <.%.q (. X X X[.{ I E O.J O.L 7 %.k.%.' H %.3.4.",
"$.w.e.6.=.< 7 { . { $.( %.D E w [. X X X(.3 O.U F %.5.$.Y L.|. X X[., @.U D %.A E E A l.0  .u.H 4.Q ",
"u [ #.=.{ @.#.{ =.{ O.^ O.#.O.T [. X X|.Z.%.{ 4.t.{ '  .] B }. X X].=.E E #.{ { ' ' =.=.@.=.=.` { @.",
"g E I +.J { E J O.I E { J O.E I '. X X}.e +.J E %.H ] $.3.r {. X X].+.P R %.J ' 9 = %.G %.@.H  .I U ",
"D E E A #.G I @., @.U A { , U T `. X X{.w A O.U A  ., Y Y : [. X X'.> { U H *.& R Q A #.~ ^ @.A L K ",
"@.O.{ =.] l.t.E =.E O.@.] e.=.0 _.{.|.`.w =.] Q @.' @.{ Y %._. X X`.= g ..#.%.] ' q s [ =.*.Y z.a [ ",
"' E Q 2.J @.@.J +.I E O.H +.8 L. X X}.~.J d.E E { J { E P f R.}.{.|.E.q R ] 3. .9 - | H { Y $  .= 6 ",
"+ Y %.5.$.G 8 i , ^ U U b.G Z.|. X X XH.=.6.{ 8 F %.A E Y   A. X X X XH.8 : &.A U Q A @.G U { . { U ",
"c.q.E $.{ 7.1.q =.+.O.$.q.w ).}. X X|.b { =.' ] #.{ v.q.Y | j }. X X[.{.t a +.#.%.X.=.{ @...E $.Y w.",
"%.Q I h J O.^ H +./ @.O.J y E.}.'. X).w W +.H E { J q.%.P f @.~. X[. XE.d { / @.=.3.%.H { E H %.< [ ",
"A Y q X +.G I @., @.U D &.> V ~. X}.v I #.A @.U D *.~ #.T O c.c {.].'.C 7 G t.A @.=.A *.G U Q A ..U ",
"u.4.{ *.{ 4.=.' =.{ ..#.{ #.T e G.v { @.Y } ' { #.{ #.O.{ =.q.#.c J.j 0 ] @.*.$.@.^ =.{ @.O.E =.&.%.",
"%.$.$.%.~ 1.:.$  .W U O.I { E I @.J ,.>.1  .H R ' H { @.W f H { { H +.I E { J ' Y I +.J E E G a 6.*."
};
