/* XPM */
static char *result[] = {
/* columns rows colors chars-per-pixel */
"50 50 188 2 ",
"   c #205000",
".  c #255B00",
"X  c #285E00",
"o  c #365D00",
"O  c #375C12",
"+  c #39591A",
"@  c #2E6201",
"#  c #2D630D",
"$  c #306404",
"%  c #366B02",
"&  c #396E01",
"*  c #31670D",
"=  c #356A0D",
"-  c #396E0C",
";  c #3D7302",
":  c #3F720D",
">  c #3B6116",
",  c #3B6D12",
"<  c #3E7011",
"1  c #2F4029",
"2  c #3E6823",
"3  c #436E0A",
"4  c #427602",
"5  c #427800",
"6  c #497F02",
"7  c #42760D",
"8  c #487609",
"9  c #467B0C",
"0  c #4B7D0D",
"q  c #446A16",
"w  c #426B18",
"e  c #467716",
"r  c #487017",
"t  c #477915",
"y  c #4B7D15",
"u  c #45751B",
"i  c #4B751C",
"p  c #4B7B1D",
"a  c #517F14",
"s  c #507D1E",
"d  c #4A5F3A",
"f  c #456921",
"g  c #447522",
"h  c #4A7622",
"j  c #477824",
"k  c #4C7C23",
"l  c #447529",
"z  c #497229",
"x  c #4D7C2A",
"c  c #507526",
"v  c #517D22",
"b  c #547A2E",
"n  c #4D643A",
"m  c #506E33",
"M  c #526B3A",
"N  c #5B7D3B",
"B  c #4F5D48",
"V  c #535850",
"C  c #516747",
"Z  c #536F42",
"A  c #5C734C",
"S  c #5F7A4D",
"D  c #5D7350",
"F  c #60615F",
"G  c #647A53",
"H  c #62725B",
"J  c #657859",
"K  c #676E64",
"L  c #697362",
"P  c #787E75",
"I  c #4D8301",
"U  c #4E820C",
"Y  c #508605",
"T  c #528806",
"R  c #52860D",
"E  c #568C0C",
"W  c #588E0D",
"Q  c #5B910F",
"!  c #4E8114",
"~  c #4E801B",
"^  c #518514",
"/  c #568A12",
"(  c #598C16",
")  c #54851D",
"_  c #58871D",
"`  c #56881C",
"'  c #5B8C1C",
"]  c #5D9412",
"[  c #5E911D",
"{  c #609614",
"}  c #629817",
"|  c #62951C",
" . c #659A1B",
".. c #699E1E",
"X. c #6AA11F",
"o. c #4E8022",
"O. c #4F8128",
"+. c #548423",
"@. c #598623",
"#. c #568823",
"$. c #5C8C22",
"%. c #548329",
"&. c #5A852A",
"*. c #5C8B29",
"=. c #5F9122",
"-. c #5D9029",
";. c #5B8132",
":. c #608F25",
">. c #628F29",
",. c #629424",
"<. c #669825",
"1. c #699C25",
"2. c #64942A",
"3. c #68972C",
"4. c #67992A",
"5. c #6A9D2A",
"6. c #63873C",
"7. c #618938",
"8. c #649131",
"9. c #699534",
"0. c #6E9B34",
"q. c #6C9739",
"w. c #719E36",
"e. c #739F3B",
"r. c #6EA225",
"t. c #6EA12C",
"y. c #70A625",
"u. c #72A827",
"i. c #71A32E",
"p. c #75AA2A",
"a. c #78AF2C",
"s. c #7AB12E",
"d. c #6FA030",
"f. c #73A433",
"g. c #76AA32",
"h. c #79AC35",
"j. c #76A33C",
"k. c #7BAC3A",
"l. c #7DB431",
"z. c #7EB13B",
"x. c #65834A",
"c. c #6D9047",
"v. c #698354",
"b. c #79A541",
"n. c #7CA942",
"m. c #738665",
"M. c #7D916F",
"N. c #7A8274",
"B. c #7D827B",
"V. c #80B734",
"C. c #83BA36",
"Z. c #81B43D",
"A. c #85B93F",
"S. c #81B340",
"D. c #85B940",
"F. c #88BD42",
"G. c #8ABA49",
"H. c #818B7D",
"J. c #809075",
"K. c #8CC046",
"L. c #848683",
"P. c #8A8C89",
"I. c #8F9888",
"U. c #919A8C",
"Y. c #949593",
"T. c #989F93",
"R. c #9C9D9C",
"E. c #97A68C",
"W. c #9AA195",
"Q. c #A2A69F",
"!. c #A5AE9E",
"~. c #A5A5A5",
"^. c #A7ACA4",
"/. c #ACADAC",
"(. c #A9B1A4",
"). c #AEB0AD",
"_. c #B1B3AF",
"`. c #B4B4B4",
"'. c #B6B9B4",
"]. c #BCBDBC",
"[. c #C2C2C2",
"{. c #CCCCCC",
"}. c #CFD0CF",
"|. c #D3D3D3",
" X c #DBDBDB",
".X c #E3E3E3",
"XX c #ECECEC",
"oX c #F1F1F1",
/* pixels */
"f.3.@.5.$.,.,.9.D.0.,.,.*.<.$.) l *.,.,.<.5.,.5.i.$.<.$.' -.' $.<.t.5.5.&.j <.h.5.5.z.$.=.<.<.g.[ =.",
"&.<.1.-.E $.d.l.5., u :.] :.' / &.E ^.Q.a 2.W _ @.E q.,./ b ).W.' E 2./ ) $.W 0.i.1.5.E ' ' R &.R ` ",
"@ ) [ I <.R / 4.I ,.( Y <.I ) ` Y Z.'.oX'.w J.'.{.{.'.M.b [.oX(.y k I =.( I 4. .#.p I <.R ( [ & =.( ",
",.=.' 5.$.k.k.$.t.$.,.,.$.+.+.) 5.5.!.oXoX.XoXoXoXoXoXoX.XoXoXE.2.p 5.$.$.<.*.<.+.p &.@.,.$.) 5.' =.",
"9.,.( w.E ,.,.E >.R ) :.W +.` / >.R m.XXoXoXoXoXoXoXoXoXoXoXXXG *.U ,.R ' :./ w.2./ *.E $.) = ,./ ,.",
"1.p.g. .<.R / ,.I g t ( G.0 ` [ 6 +.9 ~.oXoXoXoXoXoXoXoXoXoXU.E ^ $.I k t I 5.p.t.[ I <.R / ,.I =.{ ",
",.<.<.5.+.j h @.5.v g k f.<.$.' 5.k $.v.oXoXoXoXoXoXoXoXoXXXN ,.2.7.%.h *.t.*.<.$.$.t.$.Z.k.$.5.-.,.",
"@.' / :.: v ) U >.( $.9.W :.' / >.U 2.&.XXoXoXoXoXoXoXoXoX X^ 2.f.l.*.E ` $.] $.~ U *.E ,.<.W w.1. .",
"I ' ' I ,.R / ,.6 =.<...5.Y ' ' I x ' '  XoXoXoXoXoXoXoXoX{.<. .<.<.6 ,.! ; &.; ) ' ; 5./ / <. .=./ ",
",.$.` 5.$.,.:.@.5.' <.i.:.,.$.$.i.u $.,.[.oXoXoXoXoXoXoXoX'.$.$.$._ 5.' =.,.%.j k ' 5.$.<.=.` 5.) $.",
"@.' / 2.E ' $.E >./ ' ,.W 2.p , %.* +.<.(.oXoXoXoXoXoXoXoXW.E @.$.E ,./ ' ,.{ v ` / 2.E 0.4.E 0./ 3.",
"I ' ' I f./ / ,.I <.' I 3.E ' ) @ f.( / M.oXoXoXoXoXoXoXXXA d./ <.S.I =.` I 2.; p ~ I 2.r.r. .] o.,.",
",.' ' 5.0.<.,.' 5.+.$.<.$.1.:.' 5.2.t.5.v  XoXoXoXoXoXoX}.,.,.,.5.i.A.2.$.$.9.t.*.+.g.2.+.%.$.*.p -.",
"$.' / 2.l.5.' E >.: p $.E 3.| ' b.E 3.3.U }.oXoXoXoXoXoXW.x E $.' E 5./ ` 2.a.5.[ E 3.r.,.=. .*.E ' ",
"I ' [ I 5.^ ' 5.6 g t I 3.] <.$.+.$.[  .;. XXX.X.X.X.XXXH.. ,.R / ,.I [ ` I x I [ ' I +.U / ,.I ,.( ",
",.$.' 5.$.,.,.,.4.h +.<.$.#.+.i P.].L @./.oXXXoXoXoXoXoX{.j.#.,.=.+.5.$.k g 7.,.=.$.5.v =.2.2.g.2.,.",
"$.' ^ &.E $.' E w.t ) $.W $.' / v P  X~.{.oXoXoXoXoXoXoXoXR.- h p 0 *./ $.0.C.2.' E >.E $.5.p.$.r.<.",
"I ' ' & k.' / <. .<./ E k.Y ' ' 6 :.B |.[.}.oXoXoXoXoXoXoXXXc.) @.k.5 $.|  .k.R ' [ I <.R / ,.$ | ( ",
",.$.' 5.3.5.<.$.5.$.$.<.3.<.$.' 1.$.$.R.[.|.[.oXoXoXoXoXoXoX_.5.i.5.g.:.k j f.z.5.,.z.$.=.=.' 5.) $.",
"$.( / 2.E ' ' E %./ ` h E :.' / >.E G XX{.|.{.].{.{.{.[.{.XXXXv.3.W 2.E ) @.a.5.' ' j.U $.' E ,.* p ",
"I p ~ I <.R / ,.& g , % 5.I ' $.I <.).{.]._.XX/.XXoXoXoX.X`. X'.| ,.I :.) 4 5.I ' <. .5.R / [ I k ! ",
"k.5.) 5.$.k k #.5.&.*.2.%.#.#.' <.c ). XoXXX].XX_.oXoXoXoXoX|.).N ' 5.$.f.D.$.<.,.,.h.$.5.5.,.D.$.$.",
"-.' / >.E @.' R 2.p.i.@.# +.' / 2.S ].oXoXoX{..X X|.oXoXoXoXoX.Xd E >.E _ *.W >.,.[ *.E :.| E 3.E ' ",
"I ~ p I #.U ' 5.I ,.' I ,.I ~ k 6 P XXoXoXoXXX].oX[.oXoXoXoXoXoXP.,.I ,.p ; 5.E [ ' 5 z.' ( ,.5 =.( ",
",.+.p 5.+.$.,.,.g.=.+.o.v <.$.+.v [.oXoXoXoXoX].oX[.oXoXoXoXoXoX].s 5.' :.,.%.j k ' t.5.4.,.) O.) +.",
"w.#.e w.E $.' E j.[ ` v * @.,.| M XXoXoXoXoXoX.X`.`..XoXoXoXoXoX.X3 e.( ) g # 2 ~ / 2.E $.' E $.E ` ",
"1.<.,.} <.U / 5...<.' I *.I p u L.oXoXoXoXoXoXoXoX XoXoXoXoXoXoXXXm ..<.t @ 2.X ) ,.I ,.R 5.Z.I k.4.",
",.[ ` -.$.=.*.$.2.` k j $.<.+.p U.oXoXoXoXoXoXoXoXoXoXoXoXoXoXoXoXB.5.>.>.,.$.<.,.$.5.$.+.2.h.5.t.1.",
"@.' / >.E $.' E >.! ) @.E :.' / I.oXoXoXoXoXoXoXoXoXoXoXoXoXoXoXoX/.>.p.i.$.W $.' / 9.E $.5.l.n.( ) ",
"I 5.d.I <.R ! k I k.5.I <.Y ' ' Y.oXoXoXoX|.oXoXoXoXoX.X.XoXoXoXoX[.4 :.( Y 2.I f.z.Q <.R ! *.a.<.e ",
"+.#.5.K.$.,.$.+.f.i.5.,.@.<.:._ _.oXoXoXoX[.oXoXoXoXoXXX}.oXoXoXoX{.:.' ,.5.q.<.5.3.x 8.,.$.~ 5.` $.",
"@.u w 5.E $.' E 2./ ' $.0 h ^ a [.oXoXoXXX}.oXoXoXoXoXoX{.oXoXoXoX{.@.R ' 5.V.&.` R *.s.5.' E 2.E ` ",
"I ' ' I ,.R / ,.I f.5.Y <.X u i {.oXoXoX X.XoXoXoXoXoXoX|.XXoXoXoX{.8 h y I x @ ) ' I $.! / | I =.( ",
",.$.) 5.' ,.,.@.5.5.<.,.$.<.+.i  XoXoXoX{.oXoXoXoXoXoXoXXX|.oXoXoX|.@.s $.4.z #.o.#.5.p =.,.=.D.,.=.",
",.u , 2.W +.) E >./ ' :.W $.p > .XoXoXoXR.{.oXoXoXoXoXoX{.).oXoXoXXXf / ) +./ @.u < 2.7 ) ' E f.Q [ ",
"I ' ' I 2.- , o.I ,.' I 5.I [ m XXoXoXoX/.K L Y././.P.H d R.oXoXoXXXO $.y $ %.I ) ) I -.R 5.Z.} <.[ ",
",.$.' 5.$.=.*.) 5.' ,.,.$.<.$.N.oXoXoXoX`.x.<.h.Z.v *.+.r ~.oXoXoXXXc $.$.,.v d.*.) 5.q.,.5.5.*.*.h.",
"9.,.[ j.E +.) E x / ,.w.W $.' R.oXoXoXoX/.b / [ >.- q.,.y Y.oXoXoXXXM E ' $.E ,.~ t 2.C.3.o.E 2.r.t.",
"..g.h.u.4.7 t $.X $.1...2.I ( R.oXoXoX.XL.4 :.( Y 2.y.5._ F XXoXoXoXD ,.( I 4.I ' ' I k.p $.z.E t.[ ",
"g &.<.5.$.<.<.' 5.$.,.,.$.<.$.P.oXoXoX.Xd 1.' d.Z.@.+.$.&.1 XXXXoXoXv.@.$.<.$.$.+.) 5.5.<.<.5.O.' ,.",
"v _ / :.E :.' E :./ ' $.E $.' B.oXoXoX.X+ >./ ' <.W +.5.i.+ .XoXoXoXG ^ ` 2./ #.u - >.E 2.,.E *./ ' ",
"T ' ' Y ,.R / ,.6 ,.( I *.I ' N.oXoXoX|.q Y [ ( I &.6 ) ) o  XoXoXXXA $.' E 2.; ` =.I <.{ | ,.I o.! ",
"<.:.' 5.$.Z.k.$.5.$.$.,.@.g.5.H oXoXoX{.q 5.:.:.,.+.<.$.) i {.oXoXoXC ) =.<.2.$.+.p l +.5.3.) A.+.#.",
"+.` [ e.W ,.,.E :./ ' :.W ,.' J oXoXoX[.8 j.( ' :./ $.' ^ f [.oXoXoXA ( ` $.X.*.p , &.E $.) = *.= p ",
"% ) <.y.<.R y k 6 ,.( ( G.R ' n XXoXoX).$.u.*.! I 2.I ' +.  /.oXoXXXM <.! 4 4.I ' ' I ,.R / $.@ $./ ",
"D.f.' 5.$.i.i.h 5.:.,.<.f.:.+.V XXoXoX/.s 5.) @.<.$.F.f.) h `.oXoXoXL.@.+.x >.<.2.-.5.$.,.=.` 1.` d.",
"3.[ ^ v E :.| E >. .,.:.E +.O |.oXoXoX.Xr >.E ' :.E f.<.^ Z XXoXoXoX X^ ' $. .:.r.r.2.E $.' E 2.7 #.",
"I ) p $ >.R / ,.I ,.( Y 5.6 q XXoXoXoXoXN 6 ,./ Y 3. .,._ H oXoXoXXXXXz y E h.Y ,.4.I 4.R ( [ I [ ( ",
"k.0.$.5.*.5.5.) 5.$.$.<.*.<.s '.XXXXXX[.i %.+.$.<.$.<.:.$.<.W.|. X|.T.s @.<.<.<.,.[ 5.$.,.,.' t.2.2.",
",.r.1.>.} w.8.: 2./ ' $.E $.' R N b 6.>.0 *.E ` +.W $.,.( x E _ _ R >./ _ :.W +.` / >.E ' ' R c p.4."
};
