/* XPM */
static char *result[] = {
/* columns rows colors chars-per-pixel */
"50 50 209 2 ",
"   c black",
".  c #141414",
"X  c #23150D",
"o  c #303113",
"O  c #282828",
"+  c #332323",
"@  c #353535",
"#  c gray24",
"$  c #48140D",
"%  c #401F1F",
"&  c #74130E",
"*  c #6C1617",
"=  c #453535",
"-  c #773232",
";  c #2E4E0D",
":  c #2F6302",
">  c #366C05",
",  c #316509",
"<  c #34690A",
"1  c #3E7306",
"2  c #3A6312",
"3  c #3B6917",
"4  c #3E7015",
"5  c #395925",
"6  c #5B4F17",
"7  c #6E5B0B",
"8  c #7C5D0A",
"9  c #7F5C16",
"0  c #467A08",
"q  c #497816",
"w  c #4B7D1D",
"e  c #7B670B",
"r  c #747207",
"t  c #6A6B14",
"y  c #7B6F16",
"u  c #697A13",
"i  c #7B781B",
"p  c #486B27",
"a  c #4D7C23",
"s  c #4C7729",
"d  c #527E28",
"f  c #4D6B36",
"g  c #567839",
"h  c #7A7825",
"j  c #484848",
"k  c #585757",
"l  c #5E734E",
"z  c #920E0E",
"x  c #8C120F",
"c  c #921717",
"v  c #9E1212",
"b  c #A20E0E",
"n  c #A21010",
"m  c #A11C10",
"M  c #A31B1B",
"N  c #83220F",
"B  c #9E280D",
"V  c #9A2511",
"C  c #9E2D11",
"Z  c #9C3411",
"A  c #A02515",
"S  c #853B39",
"D  c #A32323",
"F  c #A52B2B",
"G  c #A63535",
"H  c #A73C3C",
"J  c #A83F3F",
"K  c #974918",
"L  c #8F5B15",
"P  c #935715",
"I  c #836917",
"U  c #85761B",
"Y  c #935E25",
"T  c #8C6227",
"R  c #8A7824",
"E  c #9B5A5A",
"W  c #A74040",
"Q  c #A84444",
"!  c #AA4A4A",
"~  c #AC5555",
"^  c #AE5C5C",
"/  c #9C6767",
"(  c #AF6262",
")  c #B16565",
"_  c #B26B6B",
"`  c #B57272",
"'  c #B97B7B",
"]  c #4D8202",
"[  c #4E820B",
"{  c #538A07",
"}  c #51860C",
"|  c #558B0B",
" . c #4E8115",
".. c #528513",
"X. c #568915",
"o. c #588D14",
"O. c #54861D",
"+. c #58841F",
"@. c #57891A",
"#. c #5A8C1C",
"$. c #5D9313",
"%. c #5E921C",
"&. c #6C8914",
"*. c #6B851E",
"=. c #668B1B",
"-. c #61951E",
";. c #659A1A",
":. c #649A1B",
">. c #69A01E",
",. c #558422",
"<. c #5A8724",
"1. c #578820",
"2. c #5D8C23",
"3. c #548129",
"4. c #54842C",
"5. c #5B862B",
"6. c #5D8C2A",
"7. c #5F9121",
"8. c #618E25",
"9. c #6A8822",
"0. c #618E2A",
"q. c #7B8529",
"w. c #629423",
"e. c #669A24",
"r. c #699C25",
"t. c #65932A",
"y. c #699728",
"u. c #6A952D",
"i. c #6B9C2B",
"p. c #6A9533",
"a. c #689437",
"s. c #6B9932",
"d. c #719E38",
"f. c #6DA223",
"g. c #6DA129",
"h. c #72A52E",
"j. c #74AA28",
"k. c #73A432",
"l. c #7AAC35",
"z. c #7DB138",
"x. c #5F8140",
"c. c #6B8D4B",
"v. c #6D8758",
"b. c #718C5B",
"n. c #7CA942",
"m. c #758B67",
"M. c #88872C",
"N. c #90942D",
"B. c #82B73B",
"V. c #83B442",
"C. c #86907E",
"Z. c #90C449",
"A. c #858383",
"S. c #8B9883",
"D. c #949E8F",
"F. c #949494",
"G. c #979B93",
"H. c #9C9D9C",
"J. c #BB8383",
"K. c #BD8C8C",
"L. c #AC9393",
"P. c #BF9493",
"I. c #8FA082",
"U. c #96A789",
"Y. c #9DA697",
"T. c #A6A7A4",
"R. c #ACACAC",
"E. c #ACB2A9",
"W. c #B1B6AE",
"Q. c #B4B4B3",
"!. c #B7B9B6",
"~. c #B8BAB7",
"^. c #BCBBBB",
"/. c #C08B8B",
"(. c #C29595",
"). c #C49B9B",
"_. c #C89E9E",
"`. c #C7A2A2",
"'. c #CAA4A4",
"]. c #CCACAC",
"[. c #CEB2B2",
"{. c #D0B5B5",
"}. c #D3BBBB",
"|. c #D8BDBD",
" X c #BBC3B5",
".X c #BEC1BD",
"XX c #C1C5BF",
"oX c #C3C4C3",
"OX c #CACDC0",
"+X c #CBCCCB",
"@X c #D6C1C1",
"#X c #D9C5C5",
"$X c #D7C9C9",
"%X c #DCCBCB",
"&X c #D3D3D3",
"*X c #DFD1D1",
"=X c #DBDBDB",
"-X c #E2CFCF",
";X c #E2D5D5",
":X c #E5DBDB",
">X c #EADDDD",
",X c #E4E3E3",
"<X c #EAE3E3",
"1X c #EDECEC",
"2X c #F0E6E6",
"3X c #F3EEEE",
"4X c #F1F1F1",
"5X c #F9F5F5",
"6X c #FFFEFE",
/* pixels */
"h.s.3.r.1.#.t.a.B.k.7.i.2.9.i e T I i y.i.e.w.e.k.2.7.t.2.6.1.7.e.k.e.i.u.s 2.g.k.t.z.u.#.r.i.g.e.#.",
"<.t.f.t.o.#.r.B.s.q 3 h P n n n v v b b K h #.X.0.| t.u.{ t.o.@.7.| 2.#.} 5.o.e.k.f.e.%.X.8.{ ,.O.} ",
": q w.] w.X.{ i.] *.K n n n n n n n b n n n K 9.0 w.r.f.t.{ 7.%.] s ] @.7.] 7.-.%.a ] #.@.{ e.1  .7.",
"7.w.#.g.1.k.B.2.M.A n n n n n n n b n n n b b A M.s.t.%.2.e.7.t.h.s w.8.2.g.2.7.7.a 4.,.1.e.,.w.w.#.",
"s.t.o.d.o.#.i.y n b n n n n n n n n n n n n n n n N.i.#.| ,.X.#.t.0 1.#.| 0.| s.k.o.2.X.X.<., 1.#.| ",
">.h.l.:.y.X.r n n n n n n n n n n n n n n n n n n n 7 -.V.> #.%.{ R.G.q a ] w.e.f.t.] %.+.Y.R.] o.w.",
"7.e.e.g.3.u A n n n n n n n n n n n n n n b n n n n v 6 i.Z.s.7.e.T.=XY.5 Y.oX=X=X.XU.f !.+XR.%.t.7.",
"1.2.| 6.q Z n n n n n n n n n n n n n n n n n n n n n v o p.@.7.d.Y.,X&X1X4X4X4X4X4X4X1X&X,XS.s.g.:.",
"] X.2.] I b b b n n n n n n n n n n n n n n n n n n b n x N L R &.m.&X,X4X4X4X4X4X4X4X4X=X&Xv.:.w.#.",
"7.7.#.y.B n n b b n b b n n n n n n n b n n n n n Q K.K.b b v V 2.8.Y.4X,X&X1X4X4X1X&X,X4XS.7.w.7.O.",
"<.#.| OX4X( Q 4X<Xn K.4X).n n n n n n n n n n n D <X1X:X#X4X~ $ ; o.v.4X&X!.oX4X4X^.^.&X4Xc.{ e.%.o.",
"] o.8.P.4X(.K.4X4X^ {.4X^ D (.{.).F n ! '.[.J.v ).4X@X' XX4XS X X o 2 1X^.H.Q.1X1XR.T.oX,Xe.t.$.O.3.",
"-.w.I ~ 3X{.}.1X4X).;X<Xn @X1X#X1X$XG >X<X$X4X_.%X4X,X].XX3XN X X X X =X4X,X&X4X4X&X1X4X+X,.t.1.,.O.",
"<.#.K n ,X*X:X#X<X@X1X@XF 4X#Xn {.4X).4X(.n >X:X_ 4X'.n |.5XD X X X X oX4X&X4X,X,X4X&X4X~.8.:.7.#.} ",
"] u v n }.1X4X).@X1X4X(.W 4X}.n [.4X].4XK.n ;X:X_ 4X'.n `.;Xv $ X X . H.=X4X,X# k 1X1X=XU.] e.[ o.%.",
"w.U n n (.4X4X^ (.4X4X^ n :X,XJ.:X>X^ 4X%XK.4X@X_ 4X'.v P.{.! & X X X k =X4X4X&X=X4X1X=Xl e.s.r.i.t.",
"5.P n n ! #X@Xn ~ $X|.b v ( *X>X*X_ n K.;X>X@XW ~ $XJ.n '.$X! z X X X X oX=XT.    R.&XoX..t.j.t.e.f.",
"] V n n n n n n b b v n b n n n v n n n n n v n n n n n n n n v X X X X F.&X^.H.H.+X+XA.@.] e.1  .%.",
"9.n n n n n n n n n n n n n n n n n n n n n n n n n n n n n n n T.Q.Q.A.:XoX^.oXoX^.+X&Xq w.t.%.1.,.",
"y n n n n n n n n n n n n n n n n n n n n n n n n n n n n n n n &X,X,XoX4X4X4X4X4X4X4X4XD.t.{ 7.w < ",
"8 n n n v v n b n n n n b n n n n n n n n n n n n v ^ ~ n n n n {.,X,X+X4X4X4X4X4X4X4X4X=X0 w.{  .w ",
"R n n [.:X~ G :X-Xn J.:X(.n b n n n n v n n n n M ;X4X4X[.:X~ n ].,XoX1X4X4X4X4X4X4X4X4X4XI.6.z.k.,.",
"9 n n ).4XK.J.4X4X! ].4X_ b _ ).` n n M J.(.~ n J.4X}.^ @X4XH n P.,XoX4X4X4X4X4X4X4X4X4X4X&X} 7.#.| ",
"8 n n ( 4X{.[.4X4XK.*X2Xv ].4X:X4X[.M *X1X>X4XK.;X4X1X@X@X4XF n P..X1X4X4X4X4X4X4X4X4X4X4X4Xb.0 X.@.",
"I n n n <X%X;X%X2X}.1X$XD 1X$Xb @X4XK.4X_.M <X;X_ 4X`.v }.4XM n K.+X4X4X4X4X4X4X4X4X4X4X4X4XE. .,.1.",
"R n n n #X1X4X'.$X2X4X_.! 4X{.b ].4X].4XK.v ;X<X_ 4X'.n [.1Xv n E ,X4X4X4X4X4X4X4X4X4X4X4X4XoX2.#.{ ",
"U n n n ).4X4X_ `.4X4X_ b <X=X~ *X1X` 4X{.^ 2X%X_ 4X'.n J._.J n E 4X4X4X4X4X4X4X4X4X4X4X4X4X=X[ i.l.",
"I b n n ^ :X;XM ( :X;Xn b J.<X4X<XK.n ].1X4X:X^ ^ >XP.n [.>X~ n / 4X4X4X4X1X4X4X4X4X4X4X4X4X4Xn.e.i.",
"9 n n n n n n n n n n n n n n D M v n n M D n n n n n b v n n n / 1X4X4X4X&X4X4X4X4X&X4X4X4X4XC.s.{ ",
"8 n n n n n n n n n n n n n n n b b b n n n n n n n n b n n n n L.4X4X4X&X4X4X4X4X4X&X4X4X4X4XU.g.O.",
"t n n n n n n b n n n n n n n n n n v b b n b F /.(.H b n n n n T.4X4X4X&X4X4X4X4X4X,X=X4X4X4XU.7.1.",
"9.n n n n n n n n n n n n n n n n n n n n n D #X6X6X@Xv n n n n R.4X4X4X&X4X4X4X4X4X4X&X4X4X4XY.%.} ",
"0 V n n n n n n n n n n n n n n n n n b n M ~ 5X6X6X3XG n n n z ^.4X4X,X&X=X1X5X4X1X&X+X1X4X4XW.%.%.",
"-.P n n n b A F n n b b n n n n M W ` _.@X>X4X6X6X6X;XF n n n x &X4X4X,X+X@.5.m.m.g O..X1X4X4X Xg.2.",
"t.y n n b _ :X2X'.n n D ! ` '.#X>X5X6X6X6X6X6X6X6X6X6X'.n n v * 2X4X4X=X+Xs } 1.d , 2.!.1X4X4X Xe.| ",
"0 &.n n M ;X6X6X5X].%X2X5X6X6X6X6X6X6X6X6X6X3X>X6X6X6X;Xn n n % 1X4X4X&X.X, a  . .3.[ Q.,X4X4XXX%.%.",
"%.w.K n M -X6X6X6X6X6X6X6X6X6X6X6X3X:X}.(._ H F }.3X>X' n n x . ,X4X4X&XR.u.,.w.e.3.e.R.=X4X4XXX6.k.",
"s.u.e n n ^ <X6X6X6X6X6X3X>X|.(._ H M b b n n n M G F n n n * . ,X4X1X&XG.t.{ 2.6.1 6.U.&X4X4XXXe.f.",
"r.h.l.B n ! 5X6X6X5X_._ J M n b n n n b n n n b b n n n n v + O =X4X4X+Xg  .7.X...w.[ x.+X4X4X.Xw.f.",
"4 3.i.I n J 3X6X6X<XF n n n n n n n n n n n n n b n n n n N @ O &X4X4XR.a.7.7.1.O.3.e.w.~.4X4X.XO.t.",
"<.+.{ u.A n /.<X;X) n n n n n n n n n n n n n n n n n n c = @ @ +X4X4XT.5.s.{ O.a < 6.@.T.4X4X!.1.} ",
"} X.-. .U n n F M b n n n n n n n n n b n n n n n n n n - # # j =X,X1XF.a.X.w.w q e.[ #.U.1X=X+Xp w ",
"#.w.2.r.#.K n n n n n n n n n n n n n n n n n n n n n K 0.w.f &X4X4X1Xf 2.e.t.2.O.3.3 ,.m.1X4X4X+X2 ",
"3.,.o.z.o.*.C n n n n n n n n n n n n n n n n n n n A 9.} s R.,X4X4X&X1.} 5.;.w.1.> 5.@.q ,X4X4X,XH.",
"q w e.f.e.#.t n n n n n n n n b n b n n n n n n n m u X.t.; G.,X&X4XG.r.%.4 w.X...t.[ %.O.R.1X,X&XG.",
"z.l.2.e.2.g.h.h m n n n n n n n n n n n n b n b m h l.B.2.w l Q.4X+Xs 7.,.,.6.7.-.s.w.7.#.g =XoX+Xp ",
"y.7.} d [ #.w.{ q.C n n n n n n n n n n n n b Z M.{ u.s.{ s w.p S.p 8.#.o.0.$.w.e.j.t.X.X.6.f S.2 1 ",
" .O.O.2 2.@.X.e.[ &.P n n n n n n n n n n n P =. .w.:.:.w.3 l.k. .e... .w ..k.-.@.h...7.%...e. .%.%.",
"l.k.6.r.t.r.g.3.-.7.2.&.Y m b n b n n M Y t a #.e.2.w.%.t.-.r.i.-.w.%.1.,.e.w.w.-.t.-.w.2.-.2.%.y.u.",
"w.r.r.t.o.g.d.< 0.#.o.t.{ 9.*.e M.e h V.0 5.#.} 5.{ 2.8.$.d  .#.0.{ 2.#.{ p.{ +.,.{ 0.X.X.t.{ a t.j."
};
