/* XPM */
static char *result[] = {
/* columns rows colors chars-per-pixel */
"50 50 184 2 ",
"   c black",
".  c gray7",
"X  c #2E4B0F",
"o  c #2E5203",
"O  c #255B00",
"+  c #2A5C01",
"@  c #375C08",
"#  c #395F08",
"$  c #2F4C1A",
"%  c #375915",
"&  c #3C5C14",
"*  c #315719",
"=  c #3A561B",
"-  c #38591B",
";  c #2E6300",
":  c #316504",
">  c #3B6503",
",  c #356A01",
"<  c #3C6C02",
"1  c #39610C",
"2  c #366B0D",
"3  c #396F0C",
"4  c #3E7302",
"5  c #3F720D",
"6  c #356711",
"7  c #3D6113",
"8  c #3B6D12",
"9  c #3F6119",
"0  c #384E28",
"q  c #3B5324",
"w  c #3C4D31",
"e  c #3F5033",
"r  c #427303",
"t  c #447902",
"y  c #497D02",
"u  c #46740B",
"i  c #487509",
"p  c #467C0D",
"a  c #4B7C0C",
"s  c #456B15",
"d  c #44651A",
"f  c #426B1A",
"g  c #45681A",
"h  c #457515",
"j  c #4A7315",
"k  c #4B7D14",
"l  c #45741B",
"z  c #4B751C",
"x  c #4C7C1D",
"c  c #50771D",
"v  c #517D1D",
"b  c #435B2C",
"n  c #414E3A",
"m  c #435337",
"M  c #46573A",
"N  c #436223",
"B  c #486E26",
"V  c #457423",
"C  c #4B7521",
"Z  c #477923",
"A  c #4D7C23",
"S  c #457629",
"D  c #4D7B29",
"F  c #527C22",
"G  c #597F2F",
"H  c #527036",
"J  c #577738",
"K  c #505D47",
"L  c #535D4C",
"P  c #565656",
"I  c #545B50",
"U  c #56664B",
"Y  c #597444",
"T  c #5A7844",
"R  c #5D6C53",
"E  c #5C6258",
"W  c #606060",
"Q  c #666964",
"!  c #6A6D69",
"~  c #6A7664",
"^  c #6E726C",
"/  c #787C77",
"(  c #7B7C7A",
")  c #4D8201",
"_  c #4E820C",
"`  c #508505",
"'  c #52860D",
"]  c #568C0C",
"[  c #588E0D",
"{  c #4E8115",
"}  c #4E801D",
"|  c #528514",
" . c #568A12",
".. c #598C16",
"X. c #54841D",
"o. c #59871F",
"O. c #56881B",
"+. c #5B8C1C",
"@. c #5E9414",
"#. c #5E911D",
"$. c #619715",
"%. c #629817",
"&. c #62951D",
"*. c #659B1B",
"=. c #699E1E",
"-. c #4E8021",
";. c #4F8128",
":. c #548322",
">. c #598623",
",. c #578821",
"<. c #5C8B22",
"1. c #548329",
"2. c #5A8529",
"3. c #5C8A29",
"4. c #5F9022",
"5. c #5D9029",
"6. c #608F25",
"7. c #628E29",
"8. c #629424",
"9. c #669825",
"0. c #699C25",
"q. c #64932A",
"w. c #69972C",
"e. c #679929",
"r. c #6A9D2A",
"t. c #649131",
"y. c #699633",
"u. c #6D9B33",
"i. c #6C9838",
"p. c #719E36",
"a. c #739F3B",
"s. c #6DA224",
"d. c #6EA12C",
"f. c #71A725",
"g. c #71A32F",
"h. c #74AA29",
"j. c #75AB2A",
"k. c #6FA030",
"l. c #73A433",
"z. c #76A932",
"x. c #7AAD35",
"c. c #76A43B",
"v. c #7BAC3A",
"b. c #7EB532",
"n. c #7EB13B",
"m. c #6B8456",
"M. c #79A440",
"N. c #7CA942",
"B. c #73826A",
"V. c #7A8573",
"C. c #80B735",
"Z. c #83BA36",
"A. c #81B43D",
"S. c #85B93F",
"D. c #83B442",
"F. c #88BD42",
"G. c #91C54B",
"H. c #838382",
"J. c #868D81",
"K. c #8D8D8C",
"L. c #939C8E",
"P. c #949494",
"I. c #979896",
"U. c #999E97",
"Y. c #9C9C9B",
"T. c #A0A39F",
"R. c #A5A5A4",
"E. c #A6AAA4",
"W. c #ACADAC",
"Q. c #AEB1AC",
"!. c #B3B4B3",
"~. c #B7B8B7",
"^. c #B8B9B7",
"/. c #BCBCBB",
"(. c #BFC0BF",
"). c #C4C4C4",
"_. c #CBCBCB",
"`. c #CFD0CF",
"'. c #D3D3D3",
"]. c #D7D8D6",
"[. c #DCDCDC",
"{. c #E4E4E4",
"}. c #ECECEC",
"|. c #F1F1F1",
/* pixels */
"z.q.2.0.,.8.q.y.F.u.8.8.6.9.+.X.S <.9.9.9.r.8.e.g.<.9.4.O.5.>.8.9.d.r.r.3.Z 9.x.r.e.A.<.8.9.9.z.4.4.",
"2.e.0.q.] +.l.b.r.8 l 6.@.<.+.| 2.] <.+.] q. .O.<.[ u.8. .7.] <.<.] 5. .O.>.[ p.d.0.w.] +.+.' >.' O.",
"; } #.) 9.'  .9.) 8.+.) e.) O.O.y D.4. .8.) 8.| t e.s.0.&.] e.' k A ) 8...) e.*.,.x ) 9.'  .8., #...",
"8.4.+.r.,.n.v.,.d.<.4.9.<.1.:.x L r.8.8.o.r.<.8.r.i.9.<.o.r.<.r.e.z r.,.<.9.<.9.,.z 3.>.8.<.X.r.+.4.",
"u.8...p.[ 8.8.] 7.a & b = ~ L.~.W.' ,.+.] 7. .<.r.Z.9.+. .1.] 8.<._ 5.] +.6.] a.q. .3.] <.} 2 8.[ 4.",
"=.g.z.*.9.'  .6.o H.'.W.'.|.|.|.V.F a  .8.) z.d.[ p.) l.l., 8. .| 2.) A k ) e.h.d.4.) 9.'  .&.) 4.#.",
"8.9.9.r.:.Z C w (.|.[.^.|.|.|.'.& C <.8.O.S 3.r.r.8.9.r.x.G.6.8.8.t.1.Z <.r.<.9.<.+.k.<.A.v.<.r.8.8.",
">.+. .7.5 z q ).|.|.{.|.|.|.[.R.P.u q.q.] 2.8 z 6.[ <.+...c.] q.c.b.3. .O.<.@.2.} _ 3.[ 9.9.[ p.=.9.",
") k z > d q R.}.W.'.|.|.|.|.).}.[.$ +.&.8.) 4...` w.` +.4.] 9.*.0.9.) 8.| 4 1.t O.o.4 r. . .8.=.4.| ",
"4.  . ).[.}.|.].( _.|.|.|.|.|.|.|.! +.q.q.r.+.<.8.y.9.8.6.0.<.,.>.+.r.o.<.8.1.S F +.r.6.8.8.+.r.X.<.",
"o.  P }.|.|.|.|.|.|.|.|.|.|.|.|.|.I.v 9.s.6. .+.e.C.q.0.0.3.] >.o.] 7.] +.4.%.F O.] 7.] w.r.] w. .q.",
"y ! }.|.|.|.|.|.|.|.|.|.|.|.|.|.|.R.|  .8.) v.r.` r.) k.z.t g. .9.D.) 8...) e.4 z x ) w.f.r.X.u 8 9.",
"8.q {.|.|.|.|.|.|.|.|.|.|.|.|.|.|.R.e.r.,.r.r.e.9.,.j.g.9.e.8.9.e.g.S.q.,.4.y.d.4.,.z.q.C e Y.P X q.",
">.j K.{.{.[.}.|.|.|.|.|.|.|.|.|.|._.Q d a 7.k X.>.p 7.+.| F ] <.+.] r. .o.q.j.w.+...2.d K.'.( B  .+.",
") +.s W _.}.}.}.|.|.|.|.|.|.|.|.|.|.|._.K.w s v ) q.) x l O 8.'  .8.) 4...) D ) z m P.]._.E X.) 4...",
"8.&.o.6.d 9 N q R.|.|.|.|.|.|.|.|.|.|.|.|.}.).P.U & z z 2.S.2.6.4.:.8.:.f * 0 / !.{.}.W.= <.q.z.e.8.",
",.+. .2.[ +.+.i ).|.|.|.|.|.|.|.|.|.|.|.|.|.|.|.|.{._.~.T.I.( ( K.P.E.W./._.}.|.|.[.K.@ ,.r.j.3.s.9.",
") +.O.< v.+. .v _.|.|.|.|.|.|.|.|.|.|.|.|.|.|.|.|.|.|.|.|.|.|.|.|.|.|.|.|.|.|.|.{.n r q._  .8., 4...",
"8.4.+.r.e.r.e.z `.|.|.|.|.|.|.|.|.|.|.|.|.|.|.|.|.|.|.|.|.|.|.|.|.|.|.|.|.|.|.|.!.c A.<.8.&.o.r.X.<.",
"<.+. .q.[ +.+.i /.|.|.|.|.|.|.|.|.|.|.|.|.|.|.|.|.|.|.|.|.|.|.|.|.|.|.|.|.|.|.|.I.O.c.' o.+.] 6.2 x ",
") } } ) 9.'  .,.I.|.|.|.|.|.|.|.|.|.|.|.|.|.|.|.|.|.|.|.|.|.|.|.|.|.|.|.|.|.|.|.Y.8.*.9.' ..&.) } { ",
"x.w.X.r.,.A A >.K }.|.|.|.|.|.|.|.|.|.|.|.|.|.|.|.|.|.|.|.|.|.|.|.|.|.|.|.|.|.|.!.>.z.<.r.r.8.F.>.<.",
"4.+. .q.] ,.o.' g ).|.|.|.|.|.|.|.|.|.|.|.|.|.|.|.|.|.|.|.|.|.|.|.|.|.|.|.|.|.|.^.k 7.] 6.+.[ q.] +.",
") x x ) >.' ..l.y I {.|.|.|.|.|.|.|.|.|.|.|.|.|.|.|.|.|.|.|.|.|.|.|.|.|.|.|.|.|.).j r D.&. .8.t 4...",
"8.2.x r.:.8.8.8.x.z H.}.|.|.|.|.|.|.|.|.|.|.|.|.|.|.|.|.|.|.|.|.|.|.|.|.|.|.|.|.].s r.d.9.8.O.;.X.,.",
"l.:.h i.] ,.<.] c...s ( {.|.|.|.|.|.|.|.|.|.|.|.|.|.|.|.|.|.|.|.|.|.|.|.|.|.|.|.[.# q.] o.<.] >. .O.",
"0.0.&.%.e._  .r.=.9...r H._.|.|.|.|.|.|.|.|.|.|.|.|.|.|.|.|.|.|.|.|.|.|.|.|.|.|.{.& ) 8.] e.A.) v.e.",
"4.4.O.5.,.<.<.<.q.,.A Z Q.{.)./.|.|.|.|.|.|.|.|.|.|.|.|.|.|.|.|.|.|.|.|.|.|.|.|.|.M d.>.,.q.v.d.d.9.",
",.+. .7.[ ,.+.[ 7.| X.>.Q.|.|.].{.|.|.|.`.).'.'.'._.'._._._._._._.).{.|.|.|.|.|.|.( t.[ ,.r.b.N.@.} ",
") w.l.) 9.' { :.) v.e.) ^.|.|._.}.|.|.|./ < x s > B R {.|.|.|.|.|.|.~.|.|.|.|.|.|./.u e.] { <.j.9.h ",
":.>.l.F.<.8.<.v g.g.e.9.(.|.|.(.|.|.|.|.U d.:.<.8.F >.R.}.|.|.|.|.|.(.].|.|.|.|.|.{.$ t.8.<.} d.O.<.",
">.l 8 r.[ <.+.] w. .+.o.).|.|.).|.|.|.{.% 1.6 z <.[ <.C '.|.|.|.|.|.|.R.}.|.|.|.|.|.H.r.e.+.] 5.] +.",
") +.#.) 9.'  .8.) z.e.y `.|.|./.|.|.|.].g > A { ) q.) +.R [.|.|.|.|.|.P.H.}.|.|.|.|.[.0 k ..&.) #...",
"8.<.X.e.<.4.4.<.r.e.9.o.].|.|./.|.|.|.).j e.:.w.n.<.9.q.2.~ {.|.|.|.|.J.f P.|.|.|.|.|.~.7 8.<.S.8.4.",
"8.l 8 q.] :.:.] 7. .+.x {.|.|.~.|.|.|.E.a D  .+.q.[ <.z.x.t.Y _.|.|.|.U.X.% Y.|.|.|.|.|.P.j [ z.[ 4.",
") +.+.) 8.5 8 -.) 8.+.B }.|.{.).|.|.|.( 4., l.9.` w.) } 2.%.l.F `.|.|.).h : - Y.}.|.|.|.{.b A.$.9.#.",
"8.4.o.d.,.4.4.A r.6.8.m.|.|.'.'.|.|.|.K <.r.w.x.S.2.4.:.} r.8.8.E.|.|.}.Y 8.F F H.}.|.|.|.( e.>.<.v.",
"y.4.#.M.] X.X.] D ' 6.L.|.|.).{.|.|.[.% ] 6. .+.8.3 i.5. .q.] <.~ }.}.|.U.<.] 8.& !.|.|.|.R._ q.s.d.",
"0.z.n.f.e.u k 4.+ <.*.!.|.|.!.|.|.|.).1 8.y 8...) e.s.d.+.) A _ p '.|.|.).) q.) +.m {.|.|./.y.] d.#.",
"V ,.9.0.<.9.8.:.G m.U {.|.}.!.|.|.|.I.o.+.r.+.k.n.>.:.3.1.S C <.4.~.|.|.].o.<.<.,.7 ^.|.|.).>.1.<.8.",
"v O.] 6.] 4.v R.{.|.}.}.}.[./.|.|.|.E 6.] 7. .+.q.] >.0.r.2.] 7.J (.|.|.].>.i m ^ K.).|.|./.i <.] +.",
"' +.4.` 9.' B.}.}.|.{.!.).'.}.|.|.].@ | 8.) &...) 3.y X.O.) <.I.}.|.}.|._.u ( {.|.|.|.|.|.Y.o.) } { ",
"8.6.<.r.+.A.m./.'.{.W.|.|.|.|.|.|.R.w.z.o.r.<.4.9.:.8.<.X.e.H }.}.|.}.|.J.s '.|.|.|.|.|.}.L ,.S.1.,.",
">.O.#.a.[ 6.8.' >.u R.|.|.|.|.|.[.w 6.8.[ c.+.+.<.] <.+.| D T [.[.]._.R.z 9 {.|.|.|.|.}.P.7 2 3.8 z ",
"> X.9.s.e.' k A ) <.m Y.W.W.R.K.L >.'  .e.h.<.{ ` q.) +.,.O :.u k <.*.9.| o K.^.`.'./.( >  .<.; ,. .",
"S.l.+.r.<.g.r.A r.3.8.9.u.>.F X.r.,.8.8.<.r.,.,.9.<.F.z.X.1.7.8.8.<.e.>.:.A 2.X.C z :.X.4.4.+.e.O.l.",
"q.#.| 1.] 6.4.] q.*.8.<.] 2.l 8 7.] +.8.@.7.] o.6.[ c.8.| A f.9.+.] 7.@.+.6.*.6.d.s.q.] +.#.] 5.p O.",
") X.x ; 8.'  .8.) 8...` e.) O.#.y 8.'  .8.) 8...) q.%.9.>.: D.&. .8.) F k ' v.` 8.9.) 9.|  .8.) 4...",
"n.u.,.r.<.r.r.:.r.<.<.9.<.9.<.+.r.<.8.8.X.1.:.<.9.<.9.<.<.r.l.e.8.o.r.:.>.9.9.9.8.4.e.<.8.8.o.r.q.q.",
"8.s.0.7.%.l.t.3 q...+.6.[ <.+. .8.] i.y.p >. .O.,.[ <.8.@.D ] <.+.] 7. .O.6.[ :.O. .8.[ +.+.' A j.e."
};
