/* XPM */
static char *result[] = {
/* columns rows colors chars-per-pixel */
"50 50 195 2 ",
"   c black",
".  c gray7",
"X  c #194100",
"o  c #255A00",
"O  c #295E01",
"+  c #365E01",
"@  c #385D0B",
"#  c #334B1D",
"$  c #3B5B14",
"%  c #34521D",
"&  c #3A551D",
"*  c #385C18",
"=  c #2E6301",
"-  c #326502",
";  c #3B6305",
":  c #356A01",
">  c #3C6C01",
",  c #35620E",
"<  c #3D640A",
"1  c #356A0D",
"2  c #396F0C",
"3  c #3E740C",
"4  c #3C6314",
"5  c #3B6D11",
"6  c #3D641C",
"7  c #3E7011",
"8  c #354926",
"9  c #3A5323",
"0  c #374135",
"q  c #3D4C34",
"w  c #416F01",
"e  c #40670E",
"r  c #427402",
"t  c #457901",
"y  c #497E01",
"u  c #45750B",
"i  c #48760A",
"p  c #467C0D",
"a  c #4B7C0C",
"s  c #436617",
"d  c #446A1C",
"f  c #486E18",
"g  c #457616",
"h  c #4A7315",
"j  c #477914",
"k  c #4B7D12",
"l  c #46751A",
"z  c #4B751D",
"x  c #4C7B1C",
"c  c #517D1E",
"v  c #415E23",
"b  c #405A2A",
"n  c #414F39",
"m  c #435633",
"M  c #46533B",
"N  c #4A5F3B",
"B  c #496D2A",
"V  c #457422",
"C  c #487524",
"Z  c #4D7C23",
"A  c #457529",
"S  c #4B7A29",
"D  c #517127",
"F  c #527C23",
"G  c #496B32",
"H  c #4E7230",
"J  c #4F584A",
"K  c #515E47",
"L  c #525C4C",
"P  c #565656",
"I  c #545B50",
"U  c #586C48",
"Y  c #5D7944",
"T  c #596851",
"R  c #5D6459",
"E  c #5E7250",
"W  c #607C47",
"Q  c #637C54",
"!  c #647459",
"~  c #6A7C5E",
"^  c #606160",
"/  c #666864",
"(  c #6A6E69",
")  c #6E7769",
"_  c #797B77",
"`  c #7B7C7A",
"'  c #4D8201",
"]  c #4F830D",
"[  c #508505",
"{  c #528806",
"}  c #52860D",
"|  c #568C0C",
" . c #588E0D",
".. c #5B910F",
"X. c #4E8115",
"o. c #4E801A",
"O. c #528612",
"+. c #588716",
"@. c #568A12",
"#. c #598C15",
"$. c #54841D",
"%. c #56891B",
"&. c #5B8C1C",
"*. c #5D9314",
"=. c #5E911D",
"-. c #609615",
";. c #629817",
":. c #61951C",
">. c #659A1C",
",. c #699E1F",
"<. c #4F8020",
"1. c #4F8128",
"2. c #548322",
"3. c #598623",
"4. c #578822",
"5. c #5C8B22",
"6. c #538229",
"7. c #5A852A",
"8. c #5C8A29",
"9. c #5F9122",
"0. c #5D9029",
"q. c #608F25",
"w. c #628F29",
"e. c #629424",
"r. c #669825",
"t. c #699C25",
"y. c #64932A",
"u. c #68962D",
"i. c #679929",
"p. c #6A9D2A",
"a. c #628637",
"s. c #668C33",
"d. c #649131",
"f. c #699634",
"g. c #6E9B34",
"h. c #6E973A",
"j. c #6C9838",
"k. c #719E36",
"l. c #6DA223",
"z. c #6EA12C",
"x. c #71A725",
"c. c #71A32F",
"v. c #74AA2A",
"b. c #78AE2C",
"n. c #79B02D",
"m. c #6FA030",
"M. c #72A333",
"N. c #76A932",
"B. c #7AAD34",
"V. c #75A43B",
"C. c #7BAD3A",
"Z. c #7EB532",
"A. c #7EB03B",
"S. c #7AA541",
"D. c #7CA942",
"F. c #77866B",
"G. c #7E8579",
"H. c #80B735",
"J. c #83BA36",
"K. c #81B33D",
"L. c #85B93F",
"P. c #84B543",
"I. c #88BD42",
"U. c #88BA44",
"Y. c #80817F",
"T. c #8CC046",
"R. c #91C54B",
"E. c #838382",
"W. c #8D8D8C",
"Q. c #8D9488",
"!. c #949C8F",
"~. c #949494",
"^. c #969996",
"/. c #9A9F97",
"(. c #9C9C9B",
"). c #A1A39F",
"_. c #A4A5A4",
"`. c #A6A9A4",
"'. c #ACACAC",
"]. c #AEB1AD",
"[. c #B3B3B2",
"{. c #B7B9B6",
"}. c #B8B9B7",
"|. c #BCBCBB",
" X c #BFC1BF",
".X c #C0C1BF",
"XX c #C4C4C4",
"oX c #CBCBCB",
"OX c #CFD0CF",
"+X c #D3D3D3",
"@X c #D7D8D6",
"#X c #DCDCDC",
"$X c #E4E4E4",
"%X c #ECECEC",
"&X c #F1F1F1",
/* pixels */
"N.y.2.p.5.e.e.f.I.p.y.i.5.i.9.c A 5.e.i.i.p.e.p.z.5.r.9.$.8.4.e.t.p.u.p.8.C r.B.p.i.K.5.9.r.r.N.5.9.",
"7.i.t.y.| 5.M.Z.p.5 l 5.*.q.&.O.7.| &.&.| w.| %.5. .g.e.#.y.| &.5.| y.@.%.3. .g.c.t.i. .5.&.{ 8.} #.",
"= o.=.' r.} @.r.' e.&.' r.' %.%.' P.:.@.e.' =.$.i i.l.t.:.| i.} k l y e.#.[ i.>.4.x ' r.} #.9.> 9.#.",
"e.9.&.p.3.A.C.3.z.5.9.r.5.6.2.$.p.p.i.e.&.p.5.e.p.j.r.5.%.p.5.p.u.J q.%.5.i.5.r.4.z 8.3.e.9.o.t.&.9.",
"f.e.#.g.| r.e.| w.} $.q. .2.$.@.w.} 3.&.| y.#.&.m.J.y.&.@.6.| e.5.'.{.!.~ b b D 3.@.5.| 5.c 1 w. .0.",
",.N.N.>.i.} @.e.' C j #.U.a %.:.' 1.a @.e.' N.p.| m.[ M.V.: r.@.@.G.&X&X&X+X'.+XE.$ ' i.} @.:.' =.=.",
"e.r.r.p.2.C C %.p.x V Z M.p.9.%.p.Z 5.e.$.S 8.p.p.q.r.p.B.R.w.e.q.& +X&X&X&X|.#X%XXXm 3.P.C.&.p.9.e.",
"3.&.| w.3 F $.} w.@.w.d. .w.&.@.w.] e.y.| 7.5 l q. .5.&.#.M.| y.s.~.).#X&X&X&X$X&X%XXX% e.r.#.M.,.i.",
"' &.%.' e.} @.e.y q.>.,.p.[ &.=.' Z &.:.e.' q.#.[ i.[ &.:.| r.>.$ #X%X.X&X&X&X&X+X'.%X_.9 < z +.$.$.",
"e.5.%.p.5.e.q.&.p.5.p.c.q.r.5.3.c.C 5.e.y.p.%.q.r.f.r.q.w.t.5.3.( &X&X&X&X&X&X&XOX_ #X&X%X#XXX.   %.",
"$.&.@.y.| &.&.| w. .&.w. .w.x 5 6.1 F r.l.q.@.%.i.H.y.t.t.8.| $.(.&X&X&X&X&X&X&X&X&X&X&X&X&X%XP   e.",
"[ h h r c.+.@.e.' e.&.' i.| =.$.= M.#.@.r.' C.p.[ u.[ z.M.t m.O._.&X&X&X&X&X&X&X&X&X&X&X&X&X%X%X( e.",
"e.$ P (.M 3.5.&.p.4.5.r.5.t.5.&.p.y.z.p.$.p.p.t.r.3.b.c.t.p.w.&._.&X&X&X&X&X&X&X&X&X&X&X&X&X&X$X8 5.",
"3.#.e ` +XW.& a w.2 l w. .u.e.&.S.| u.y.} w.k $.3.p q.&.@.C @ / oX&X&X&X&X&X&X&X&X&X&X%X#X#X%XW.i &.",
"[ &.:.w R OX@X~.n * g [ i.-.e.t.v.p.:.:.e.' &.&.' y.t $ q W.oX&X&X&X&X&X&X&X&X&X&X&X%X%X%XoX^ + e.#.",
"e.5.&.t.$.& '.&X$X[._ & d z c $.i.4.p.p.3.e.c f 6 L ~.XX%X&X&X&X&X&X&X&X&X&X&X&X&X_.v 9 v d 8.N.y.e.",
"3.&.O.7. .%.$ W.#X&X&X%XoX|.'.'.^.E.G.` /.).[.oX$X%X&X&X&X&X&X&X&X&X&X&X&X&X&X&X&XXXF | %.p.b.3.l.t.",
"' &.&.> C.=.@.3.M $X&X&X&X&X&X&X&X&X&X&X&X&X&X&X&X&X&X&X&X&X&X&X&X&X&X&X&X&X&X&X&XOX> r.] @.e.: 9.#.",
"r.9.&.p.p.p.i.&.F [.&X&X&X&X&X&X&X&X&X&X&X&X&X&X&X&X&X&X&X&X&X&X&X&X&X&X&X&X&X&X&XoXd.5.e.e.%.p.$.3.",
"3.#.| w.| 5.5.| F (.&X&X&X&X&X&X&X&X&X&X&X&X&X&X&X&X&X&X&X&X&X&X&X&X&X&X&X&X&X&X&X{.s.} 3.&. .e.2 l ",
"' o.<.' i.} @.e.: (.&X&X&X&X&X&X&X&X&X&X&X&X&X&X&X&X&X&X&X&X&X&X&X&X&X&X&X&X&X&X&X(.=.i.} @.:.' <.X.",
"A.u.o.p.3.F Z %.y.'.&X&X&X&X&X&X&X&X&X&X&X&X&X&X&X&X&X&X&X&X&X&X&X&X&X&X&X&X&X&X%XJ N.5.m.p.e.I.3.5.",
"5.=.O.y.| $.$.} F |.&X&X&X&X&X&X&X&X&X&X&X&X&X&X&X&X&X&X&X&X&X&X&X&X&X&X&X&X&X&XXXe w.| q.5. .y.| &.",
"' x o.' 3.} &.m.> oX&X&X&X&X&X&X&X&X&X&X&X&X&X&X&X&X&X&X&X&X&X&X&X&X&X&X&X&X&X$XL $.r K.&.@.:.t 9.#.",
"r.6.x p.2.9.r.e.7.@X&X&X&X&X&X&X&X&X&X&X&X&X&X&X&X&X&X&X&X&X&X&X&X&X&X&X&X&X%XE.d %.z.p.i.e.$.1.%.4.",
"M.2.g g.| 3.&.| D #X&X&X&X&X&X&X&X&X&X&X&X&X&X&X&X&X&X&X&X&X&X&X&X&X&X&X&X%X` % o.@.e.| &.&.| 8.| $.",
"t.t.e.;.i.] @.p.4 $X&X&X&X&X&X&X&X&X&X&X&X&X&X&X&X&X&X&X&X&X&X&X&X&X&X%XXXY.c O 2.e.' i.} p.A.' C.i.",
"9.9.%.0.4.9.5.5.N &X&X&X&X&X&X&X&X&X&X&X&X&X&X&X&X&X&X&X&X&X&X&X&X%X|.XX%X].5.r.e.&.p.3.4.y.C.l.z.t.",
"4.&.O.8.| 3.&.} ` &X&X&X&X&X&X$XoXoXoXoXoXXXoXOXoX+X+X+XoX+X&X&X&X%X+X&X&X]. .5.&.#.f.| 3.z.Z.D.#.$.",
"' z.m.' r.} X.6 }.&X&X&X&X&X&X}.&X&X&X%X&X&X$X! r 6 > 4 6 _ &X&X&X%XoX&X&X|.y.' N.C...r.} X.8.b.r.g ",
"<.8.z.T.5.e.9.# $X&X&X&X&X&X@X X&X&X&X&X&X&X_.$.e.F e.3.2.T &X&X&X%X.X&X&X.Xf.r.p.y.S d.e.5.o.p.%.5.",
"4.l f p.| &.c Y.&X&X&X&X&X%X_.&X&X&X&X&X&XOX% l 5.#.5.&.@.% $X&X&X&XXX&X&XXXB.5.$.@.8.n.p.&.| 0.| &.",
"' &.=.' r.} 8 #X&X&X&X&X%XE.(.&X&X&X&X&X#XT Z X.' i.' #.<.X @X&X&X&X X&X&XoXA - $.&.' 8.] #.9.' 9.#.",
"e.3.$.t.5.$ {.&X&X&X&X&X~.f E.&X&X%X&X$X) 0.$.g.A.3.i.d.6.6  X&X&X&X|.&X&X@Xd 3.6.$.p.Z 9.9.9.L.e.=.",
"e.l 5 y.i ~.%X&X&X&X&X(.< 5./.&X&X&XoXU { 6.} &.y.| 5.N.Z.a._.&X&X&X{.&X&X$Xp 3.g 7 y.u 4.&. .N.#.e.",
"' &.&.' b $X&X&X&X%X(.+ i.y XX&X&XOXd @.e.: m.i.[ p.' o.3.:.G.&X&X&XXX$X&X%XG ' $.o.' e.} t.K.*.:.=.",
"e.5.&.p._ &X&X&X%XE.h e.5.Y %X&X&X`.:.e.3.p.i.C.L.2.9.6.x p.K &X&X&X+X@X&X&X! z.5.$.t.f.e.i.z.4.e.C.",
"f.e.&.h._.&X&X&X'.< e.k. .(.&X&X&X~ 2.$. .w. .&.y.2 j.y.@.y.@ #X&X&X$XXX&X&XQ.w.o.j y.J.y.2.} y.l.z.",
",.N.B.&..X&X&X%X0 %.t.,.w..X%X&X@Xc u k e.' e.#.' i.l.l.&.' 6 XX&X&X&X[.&X&X[.t &.&.' K.l 8.A.| z.=.",
"V 7.i.4.XX&X&X|.c 5.q.e.c @X&X&X}.3.e.e.%.p.5.p.A.3.6.8.7.A 6 /.&X&X&X[.%X&X$XU Q B i.p.i.p.p.1.5.e.",
"F +.@.F |.&X&X.XW.) m z a @X&X&XXXH $.5.| w. .&.r.| 3.p.p.7.| R &X&X&XXX#X%X%X%X&X$X_.a e.e.| 5.| %.",
"} #.5.t (.&X&X&X&X&X%X` f oX&X&X%X%X^.a e.' q.#.' 8.y $.%.' r.< @X&X&X%X+XXX'.$X&X&X&XF.:.:.e.' <.X.",
"e.q.5.p.I %X&X&X&X&X&X+X$ Q.&X&X&X%X%Xa.&.p.5.&.e.2.r.3.$.i.3.$._.&X&X&X&X&X&X'.$X@X|.E p.y.$.L.1.%.",
"3.&.:.k.e ~.&X&X&X&X&X$Xe F (.oX#X#X#XW  .S.&.&.5.#.5.&.O.S | 3.q #X&X&X&X&X&X_.4 , F #.9.$.2 8.2 x ",
": $.r.l.i.; ` |.OXOX}.W.s.} &.&.} 3.i a p.v.5.X.[ y.' &.$.o e.} a L W.`.'.'.(.n %.&.' i.} @.8.= 4.#.",
"U.M.&.t.5.c.i.s c z c e.M.e.4.$.p.3.e.e.5.p.2.3.r.5.I.N.$.6.w.y.e.3.y.3.Z C 5.r.y.9.p.3.9.9.&.t.4.m.",
"y.=.O.6.| q.q.| w.,.e.q. .3.l 5 w.| %.e.*.w.| %.q. .M.e.O.S x.r.&.| y.*.&.5.>.e.z.l.y.| 5.&.| 0.p $.",
"' $.x = e.} @.:.[ q.&.[ u.y %.&.y r.} @.e.' e.#.[ y.;.r.4.- U.e.@.e.' Z x | N.[ e.i.' i.} #.:.' 9.#.",
"A.g.3.z.5.z.p.2.i.5.9.i.5.i.5.%.p.5.e.e.$.6.2.9.i.3.r.e.5.p.c.t.e.%.p.F 3.r.r.i.e.:.p.5.e.9.&.z.y.y.",
"e.l.t.w.;.m.d.2 y.#.&.5. .5.&.| y. .f.f.i 8.O.%.4. .5.:.*.S | 3.&. .w.@.&.5. .2.%.@.w.| 5.%.} F v.i."
};
