/* XPM */
static char *result[] = {
/* columns rows colors chars-per-pixel */
"50 50 60 1 ",
"  c #7F5632",
". c #7F5A33",
"X c #83572F",
"o c #81582F",
"O c #825733",
"+ c #855B34",
"@ c #8A5D36",
"# c #865C39",
"$ c #8B5E39",
"% c #876136",
"& c #8C6136",
"* c #8D6239",
"= c #916437",
"- c #966A37",
"; c #92653A",
": c #98663C",
"> c #95693B",
", c #9A6C3C",
"< c #9D713D",
"1 c #A06F3E",
"2 c #A3733E",
"3 c #A9763F",
"4 c #AA7A3F",
"5 c #B17E3F",
"6 c #8F6642",
"7 c #926741",
"8 c #966B44",
"9 c #9B6D41",
"0 c #976F4B",
"q c #9F7241",
"w c #9D734D",
"e c #906E53",
"r c #967053",
"t c #9C7551",
"y c #9E7957",
"u c #A16F40",
"i c #A47441",
"p c #A97642",
"a c #A77841",
"s c #AC7A43",
"d c #A3764C",
"f c #AB7D4A",
"g c #B27E44",
"h c #B87F43",
"j c #AA7C55",
"k c #B07E52",
"l c #9D7C61",
"z c #B58144",
"x c #BB8445",
"c c #BD8947",
"v c #B68248",
"b c #BC8649",
"n c #BD894A",
"m c #AA835D",
"M c #AD8763",
"N c #B18962",
"B c #C38A47",
"V c #C08649",
"C c #C28A4A",
"Z c #C88D4B",
/* pixels */
"m*:v.*+7v%$:8iisCqpz>#*s,#sz*O,z-+>>;n*9,;;6&+8,2#",
"b,#;*ba:a@@bs.q*i@:>Of+@.;xx<#+>@+f&a>@Cs+iz>:<+,x",
"i;iz&z2+<,<,,>;;n;&>,+<v*$*;+>s@ai**c3 ,,+sb,;i+xs",
",:*,;@,;;,*q-s%-x2=zx*aq+*@a2>2+=;>;,=i:,,X++zz@@=",
"w>s@@>z,@n-#<@+i@:&23@,;@v@,&;.gb;in*@s>O+zaO>>+i+",
"w@;:v+>@:*&zz*:z*-+i>*ca :@:3b@sz@22@iOOi&z,O@,&+3",
"a+;2g++gx&+z2* =;#,h<O<-:n@+,i@@,@,@@&=2+@@+O<zg+g",
",+,@Og,12*,O+O>zz%*,+%3;%:@a<,:iC>*sgOzs+8@s*>42+i",
"6@g@;p@;@#*:<+&22$z,+>@,:z@s3@+&i&>xcO*@#s+i@@i*ix",
"s%>Ohx@>za%b2@:*s&p;pc@;*%*g*2,a#p+++*C<@;+i<;g;@,",
"89;:>2+<bgO>+;i&,+,#-s@gz%ig&+x2O+@x<*s,>h@Cg@-+,,",
"Mn,qx@aO;O,C=*&#p2@gp+*xi%.;+@;@,3$s>@><;i@#;@a#:&",
"y<&@,;+iz*<s*2p,Zs&xa+$;%Oib,-C,*+;+X;-@p*:*z2oxg@",
"021$Vs 32*&&,,i+&@;@O>=;&@,s->3;uv+,C@,@<@i@a*o3p@",
"lzx#2,@*OO,*>i>*an#;3-&x2O,*q@i*,<:-x*,a+2x;+,C@@s",
"t;u+s3:*sbO:=-@p>aOsVa&<@&;,i+><,@ip+#xs&+*@+pg*@&",
":;x@gu;;ixOsp+4z@,>@,&,z@i>+>;,Zs$x4+@a,@&gz@>O#<@",
"M2=*1=#s-O,xi&@&+;O2a+g5*,;,2o:,:@,$;,O@>,zc>$,3@,",
"ji@iBs>h3.+,%O,zs+@x2+;&:si+@>>;C&=<;+ga++&*+;gV>;",
"q*v#,**;#q;*#<icb++;@+3&ii@qiq+*3&3xs&s%@s@>g+>,@i",
"3O*+xi*;<%;z,+**&#g>,v@@zxo,,.pz%,*2>*p+1p@;=+p,@x",
"rC<@zg+gx2>3@@*,s@q*@;&>==,h3+,2@*>a+sx*;;+i+,x,+;",
"8zi+@*:,2&>s.s;*;;*iC3>B2+>s-+;,%Ohs&@:;gs@12+>+Os",
"gO+sa%@,3+zg%,%:,b,,z=&2;,*O&=gx,<=&.3;;$$2xx@#pa&",
"z*+,=+@xi+:;+n,,*i;+i;:#*%#s*@>2&>x+:;;,s,@<,O#;&>",
"0+fO*:;,& p-q%@,+i;;Va+gx&2z;@*2q:i@Ca+&*@ii::sb,p",
"d,.2z+;*;*;:*v&<;s@@9:#sx-@*Os>-**,+i,,z<+ziO*sz@,",
"zx+4-.*@x*i,:c,@i+=C>9**&#xz+;Ous>;C*@ig>@@&>a@1@>",
"d2Oi**v+$+,@,;+zg>%2&,&xaOa2@b&zx;<g;>@&O@zz@+qB>;",
"k>,ci+:@nx&xx++gq*O,-@@s-.i;;u;#:@9+ ,@,+*aa+@&2==",
"g-+,><x+sp+,,@<. +-xz+<O@@,@a:9@CiO3s+pz*;@i=<c+i@",
">@*i;*=>*p&:&@@,3+*,,@>&Cq*#,%2:u>>xc*>*+u@s&,2+>,",
"lp@;*h**,x&,zs@x<+>#i=<@s<:x,*x<@s+*;@gi@<O;O9+>&>",
"NC*;,@*b*;+,xs+;+,;:2%:z@+gs;.*&#$#g:*zi@z@a+&-z;9",
"y,@zg&,p&,i ;+qB-@OCx>sz*&*;@+sx,+25>+>:*z%+sg@>*:",
"z+#z<&O-,++pg&>i&3z#>O>&+aO*+@zx3O@&+*<&;&i+2<@2,#",
"2@:+@O,zx;+p<%;><><,C&@2<O4x+;+*#:na#s,,&is*#<,OOg",
"e&@--+=as@;=O2;&in+,n,,zx@i&.,+g,>x<+s:>>&&+2zx&+a",
"g2*xi+9+<@x,@g&,,g%:Oq+,,+s>;a+;%#,,,+@*+2;+=a4O,&",
"cs+>O:2*s#&@1>@p2+2s@&@3&<z2&9;>z+zsO2z,>x,+,*<@z>",
"8<,C@8@*+ai,Zz*za+*;@9ig;O>,,a++=@,@+sc3+=O9,,i+**",
"z@3g@ii*&xaO:&**@,;$@@;>+;,;>>z2Ozg@iO*Osn+>@;+v,s",
"2%>@,22=>@,;zz&&2&@xi+:*,#1,@3g,+>;+OzsOap+g>@,z<@",
"**,#,>&zx@2;zx+4x4*p%+&ii@x3@@;+Opz*+s,+,=,2,=>@;<",
"*q*zC2@<3Oa&.@q*i*;s#a,O>+&+i+>+#gb;;,O+,@@i=px&;*",
";b-;i#z:>q+,i@%>a+gz*:*iBi@>+ix*:#=*hg*b:>*p@;,@3<",
"d*q@g,*;-O;pb*@xi%*:=h2&3&,x:<>O>+z>+;*xi@i&&V2=x,",
"v;@*za&zx*3=O&;=&+a*;;8&,*$,$a<+s@@**;a@+sg,O,&** ",
"t+bi&@+24@:@bi,;ii#*i<@@$@s,>zp@i+Cx:zx&.ii*.i2@3x",
"i#<>#2sO*i,&i,>Oxg+,>+sg#,g,O-:-b#1i@:-OvO* >zx+zs"
};
