/* XPM */
static char *result[] = {
/* columns rows colors chars-per-pixel */
"50 50 210 2 ",
"   c #2E161C",
".  c #391217",
"X  c #3C1218",
"o  c #3C2B24",
"O  c #451519",
"+  c #421E1A",
"@  c #5A1D1D",
"#  c #4B271D",
"$  c #52291E",
"%  c #462726",
"&  c #572924",
"*  c #4E3526",
"=  c #573C28",
"-  c #593D2A",
";  c #4F2B30",
":  c #553936",
">  c #682822",
",  c #623E24",
"<  c #5E432D",
"1  c #5F4633",
"2  c #6A4427",
"3  c #62452C",
"4  c #734D2D",
"5  c #78532D",
"6  c #674834",
"7  c #684A35",
"8  c #794A3A",
"9  c #6A5235",
"0  c #7E5532",
"q  c #7E5A34",
"w  c #77543B",
"e  c #7C5D3A",
"r  c #603D43",
"t  c #584646",
"y  c #5F4D50",
"u  c #614C41",
"i  c #674848",
"p  c #6C5246",
"a  c #785745",
"s  c #734E56",
"d  c #695758",
"f  c #7C555C",
"g  c #785B58",
"h  c #7C5C5A",
"j  c #7D624C",
"k  c #7B665A",
"l  c #675D61",
"z  c #755D60",
"x  c #6E6167",
"c  c #7A676A",
"v  c #7C6C72",
"b  c #933B34",
"n  c #83572F",
"m  c #8B4D3A",
"M  c #825733",
"N  c #855B35",
"B  c #8A5D36",
"V  c #855C39",
"C  c #8A5E39",
"Z  c #935032",
"A  c #876036",
"S  c #8C6136",
"D  c #8D6239",
"F  c #8A683E",
"G  c #916437",
"H  c #92653A",
"J  c #966839",
"K  c #95693B",
"L  c #9A6C3C",
"P  c #9E713D",
"I  c #A06F3E",
"U  c #A3733E",
"Y  c #A9763F",
"T  c #A7783E",
"R  c #AB7A3F",
"E  c #B17E3F",
"W  c #835D43",
"Q  c #815D4B",
"!  c #835B52",
"~  c #8A5E57",
"^  c #81585E",
"/  c #A45F57",
"(  c #8D6444",
")  c #856C43",
"_  c #8A6B44",
"`  c #876549",
"'  c #8C6C48",
"]  c #926741",
"[  c #956C42",
"{  c #9B6D41",
"}  c #956D4A",
"|  c #9D6E4D",
" . c #8A7249",
".. c #9F7242",
"X. c #91774D",
"o. c #9C734C",
"O. c #9A794F",
"+. c #8C6453",
"@. c #8D6A54",
"#. c #86685A",
"$. c #936957",
"%. c #8C7357",
"&. c #957656",
"*. c #9A7C55",
"=. c #A16F40",
"-. c #A47441",
";. c #A97642",
":. c #A77841",
">. c #AC7A43",
",. c #A3764C",
"<. c #AC7D4A",
"1. c #B27E44",
"2. c #B87F43",
"3. c #B47F48",
"4. c #A47654",
"5. c #815C61",
"6. c #856264",
"7. c #8A6969",
"8. c #966C64",
"9. c #897468",
"0. c #967666",
"q. c #947B65",
"w. c #927B6A",
"e. c #997A6C",
"r. c #8B7476",
"t. c #9B7F73",
"y. c #A67D6B",
"u. c #9F8155",
"i. c #9F8158",
"p. c #B58145",
"a. c #BB8445",
"s. c #BD8947",
"d. c #B68248",
"f. c #BC8649",
"g. c #BE894A",
"h. c #A38256",
"j. c #A38559",
"k. c #A9865D",
"l. c #B28857",
"z. c #9C886F",
"x. c #998673",
"c. c #A68666",
"v. c #A68E64",
"b. c #B18A62",
"n. c #B4816E",
"m. c #BB996A",
"M. c #A7897A",
"N. c #B7987C",
"B. c #B8A074",
"V. c #C38A47",
"C. c #C0864A",
"Z. c #C28B4A",
"A. c #C88D4D",
"S. c #C0846C",
"D. c #C39C6B",
"F. c #C19478",
"G. c #907B82",
"H. c #9C8988",
"J. c #A58986",
"K. c #B18E8C",
"L. c #A59181",
"P. c #A89382",
"I. c #AB9786",
"U. c #A9918A",
"Y. c #B59786",
"T. c #BA9D84",
"R. c #A18A92",
"E. c #B88E92",
"W. c #A99696",
"Q. c #AB959B",
"!. c #B49C9B",
"~. c #BCA58B",
"^. c #BBA694",
"/. c #B5A49D",
"(. c #B09EA1",
"). c #B4A4AA",
"_. c #BBABAA",
"`. c #B1A7B1",
"'. c #BDB0B1",
"]. c #BDB2BC",
"[. c #CAAC95",
"{. c #D2B290",
"}. c #C7B5A4",
"|. c #D1B5AA",
" X c #C7B5B2",
".X c #C4B4B9",
"XX c #CABBBD",
"oX c #D2C3BD",
"OX c #E3CEBF",
"+X c #C8BDC7",
"@X c #DDBFC6",
"#X c #CBC1C8",
"$X c #D2C6CB",
"%X c #DAC3C9",
"&X c #D5CACC",
"*X c #DDD0CC",
"=X c #D7CCD4",
"-X c #DCD0D6",
";X c #DDD3DB",
":X c #E4D6DA",
">X c #E2D6E1",
",X c #E6DCE5",
"<X c #EBE4E9",
"1X c #EDE3EC",
"2X c #F0E9EE",
"3X c #EFE3F1",
"4X c #F0E5F2",
"5X c #F3EBF5",
"6X c #F6F3F6",
"7X c #F6F3F8",
/* pixels */
"k.D [ 1.V G N ] p.F C J } -.-.<.C.U ;.p.H V F 1.J C >.d.D M L d.P q K J H s.H { J ] D D A N [ I U C ",
"f.L C C C f.;.J :.B N a.E M P D Y N H J M <.N B q H p.C.P N N J A M <.S >.H S C.1.N ;.d.J J L N L a.",
"-.H -.a.B d.U N { L P L L J H H C.H H J L q L d.B C F G N J E B >.U D H a.T M L L n >.f.P H -.q 2.>.",
"L K C L G N I H J { A P G 1.A J s.U S d.a.D >.P N G B ;...J U N H D J D L D -.K L J N N M d.d.C C J ",
"o.H 1.C B J p.L C s.L B I N N U B K S U Y B L K B d.N L A J q 1.d.K -.s.A B p.H M V p.T M H J B -.M ",
"o.B G H d.B J B H H B p.2.D L d.A J N -.G H s.:.M L B J Y C.B >.p.B I Y B ..M M -.S d.L N B K G N Y ",
">.N H U 1.N N >.a.S N 1.U D n D J B L p.P M L L J f.S ` | I B N -.B L B B G D U N B B N N P p.p.N 1.",
"L V L C M 1.L U U B { N N M J p.p.V C L A B T H C H 0.^.&X!.H -.C.J A >.p.M p.>.V K B >.S H T U N -.",
"( B 1.B H ;.S H B C A L L V A U Y B p.P B J S L L 4.N.oX6X:XW B -.S J a.d.B D C B >.N -.B V U D -.a.",
">.A L M 2.a.B J p.-.A d.U B L G >.B >.D >.s.N G D ( I.}.#X=XK.Y N :.N N N S Z.P B F N U P H p.H B L ",
"} L D K J U N P a.1.N J M H -.S L N (  .h.>.q u.d.` M.~.$X=XQ.U B N B a.L H >.L J 1.B A.E B J M L L ",
"b.f.K -.d.B >.M J N { C.H H A C >.K _ X.v. . .X.l.W g ~.*X:X].N L -.C >.H B J P G ;.N C H B >.A J B ",
"*.L S B L H M -.1.D I >.S -.-.L V.F  .X.j.B.X.&.|..X(.!./.`.Y.L S N H B M G J B >.D K C d.U 0 d.1.B ",
"} U I B C.>.M Y U D S D L L -.N B ) X.h.i.m.X. .OX,X>X>X_.c ..D -.d.N L A.B J B L B ;.B >.D n Y >.B ",
"y.a.a.V U L C D M M L D J -.J D F u.m.D.m.m.O.X.:X6X1X3X.XK.Y.D L P K K a.D L ;.N I a.H N J s.B C >.",
"o.G -.M >.Y K D >.f.N H G J B -.j X.k.b.i.v.&.N.2X6X5X3X@X%X;Xo.L N -.;.M B a.>.D N H B N ;.2.H C B ",
"[ G a.B 1.U H J Y p.q >.>.q [ v.w._.'.&.q.x.q.$X:X6X7X4XXX@X7XF.1.C a.1.N N >.J A A 1.d.C K N V ..B ",
"b.U H D I C C ;.K M L a...e *.j.[.2X&X#.t.M.L..X-X6X<X4XE.*X5XM.G B J C H { M B J L a.a.J C L -.N I ",
"4.U B -.V.>.J d.T N A L S e i.i.|.&Xt.<.x.^.~.I.XX&XXX].G.Q.1XE.Z.S G U G N p.T N N S D N G p.a.J K ",
"-.G 3.C L D D G B { D D A F j.B.z.@.N V %.oX^.Y.^.M.x.9.8.U.2XK.Y G U p.>.S >.V B >.B J 1.N J L B -.",
"-.N D B a.-.D J P B G p.F i.j.N.4 A d.5 : _./.U.XXL.9.K ] 7.$XY.B { A U K C >.g =.>.B G J N ;.L B d.",
"$.Z.P B p.d.M 1.a.U J P  .&.M.@.T B U V 9 9 %.).L.H.M.p.-.#.W.U.B G H >.B >.>.~ ] D M -.N [ d.L M J ",
"] p.U N A C K K U S K >.0.e.M.@.D H D A F  . .%.r./.k.>.F j x.R.9.M 3.1.B V ~ / 4.>.V U I N J B n >.",
"1.M N >.:.B B P Y M d.p.a u & w W ..' c k k i.t.`.k.( 0 S F i.H.w.J G A w ! S.8.~ C U a.a.B C ;.;.S ",
"d.D N U G N B a.Y N H F - : t x z ~ N.{.T.~.~.R.k 3 b m e N B a % p $.! 8.n.F.5.| { B L L M B G D J ",
"o.N <.M B J K J B M >.K o.c.c l c 8.w.I.[.~.`.9.1 3 R.>X].+.D ..w.z g h 8.N.y.8.` B -.-.K H 1.f.J ;.",
"o.K M U 1.N K C J C H K F 3.p d s y v v P.G.1 1 9 u +X5X3X.XH L ' c.4.M a W e +.U N a.-.N C >.d.B L ",
"p.a.B R L q D B d.D ;.P J [ u p #.].,X+X=XG.< < 1 f J.4X;XQ.a [ >.H H Z.V N -.;.K N B C H >.N I B L ",
",.-.M Y D H p.V S N L B D C 0 d.M.,X5X5X5XQ.7 < 7 s 5. X4X,XH.| d.K U 1.H J B S N B 1.d.N N -.V.J C ",
"<.H L a.U M J B C.d.S p.p.B N >.e.;X7X7X:X@.1 1 q w ! ^ .X1X5X).&.C [ N M L N L N C >.>.N C S U G J ",
"p.K V L J L p.B >.;.M U P A -.0 ! .X4X,X|.M < 7 3 N H a 6.!.%X:X[...N T >.V ;.p.S H B =.G P s.B :.N ",
"J B D T H H H H D ;.S H S C W ! 5.(.}.-Xq.4 = 3 >.-.A C F f 7.J. XJ J 2.s.D L D q -.B >.F J P B K L ",
"q.>.B K G 1.A C { a.G L d.P i ^ 7.+X@X(.U 4 & = T P L p.C h 6.6.J.>.M F D V 1.-.N -.M F n L B H S K ",
"b.V.D D L B J f.D H N L p.2 r f 5._.M.] U N 4 ;.V M 1.1.6 w.7.i w C C 1.L H a.-.B >.B :.B B J a.J { ",
"4.L B d.1.A J >.B I -.0 C X % f z ! M Z.a.J ;.1.D B S G . % ; O B B I 1.J N J L H d.B N >.1.B H S H ",
"d.N N d.U D M J L N M >.Y X X : 8 { p.A G N K C N :.M H + . . $ H M N S N B -.B H S Y M U P N :.[ B ",
"U B K M B M L 1.a.H V >.B X X # H J P K A.A B P P M T p.3 X X > 0 J Z.>.B :.L [ G ;.>.A B P L M M 1.",
"@.A B L J N G >.>.B H G , X . 4 -.g.V L s.L L a.a.B -.D 4 + X Z J H p.U M >.K J H A H N U d.a.B N ;.",
"p.U D a.-.N [ N P B 1.L , O $ G L p.B J M ..N L L B >.J 0 + O Z A C L L J N C A N U H N J >.T N L B ",
"V.R N J N J U S >.B S M & O 8 U -.M U >.B S B Y A P p.U 2 @ > , 1.B 1.>.N -.p.L J a.L N J A P B a.L ",
"[ U L C.B ] S D N >.-.a % X , 1.T N D G C { -.1.K M J B .     o 0 B L B N >.s.Y N H M { { L Y V D A ",
"1.A T 1.B ;.-.A A a.U g x x 7 D C L J C C B G L V D P M 3 * o t v y.>.B -.M D M >.d.N J B D B p.L >.",
"U A J B L U -.G H A L +.h 9.V G U G B p.-.q J C L N P L B I P _ Q } G N M 1.>.n >.;.N 1.J S J d.P N ",
"D D L B [ K G p.a.B U H d.d.M >.a.T D Y V B S -.U B a.Y B B H B M ;.a.A N 1.L B L G L U L S J B K -.",
"G -.D 1.C.Y B L U M >.C N B ..S U D H >.C ;.L M H N A N U V H M B 1.f.H H L N M P B B -.D ;.s.S J B ",
"] d.L J -.N p.K J -.0 J -.B A L >.N 1.d.C K D -.V.;.B L V -.a.D H C G D d.1.C C.K K D -.B H L N Y P ",
",.D P B >.L D H J M J >.f.D B a.;.A D H G d.-.A Y B L a.K L H M J N 3.H B C G f.-.N -.S S C.U G d.K ",
"<.K B C d.>.S p.s.D Y G N A H G A M ;.H H H L B ..D C L C >.P B <.B C D G H -.N N 1.1.L M L D G D M ",
"o.N d.;.S B N U ;.B K C d.-.L H -.-.C D -.P C B C N >.L H p.;.N -.N Z.a.K 1.a.S M ;.Y D M U P A ;.a.",
"-.C U J C P p.M A -.L G -.L J M a.1.N L J M >.1.C L 2.L M J L J a.B I -.B L L M <.M A M J p.a.B p.>."
};
