/* XPM */
static char *result[] = {
/* columns rows colors chars-per-pixel */
"50 50 211 2 ",
"   c #1D0509",
".  c #1F171D",
"X  c #25080D",
"o  c #2C0B11",
"O  c #350E15",
"+  c #28181F",
"@  c #27161C",
"#  c #391017",
"$  c #32131A",
"%  c #3B1118",
"&  c #3E1C1C",
"*  c #3F2A1C",
"=  c #241A20",
"-  c #2B2227",
";  c #3A2726",
":  c #3A3637",
">  c #4C171A",
",  c #571B1D",
"<  c #42251D",
"1  c #482929",
"2  c #533826",
"3  c #583D2A",
"4  c #483438",
"5  c #563938",
"6  c #50312B",
"7  c #742624",
"8  c #782B28",
"9  c #6C383A",
"0  c #6F2423",
"q  c #5B422B",
"w  c #5A4435",
"e  c #62482F",
"r  c #61472E",
"t  c #624932",
"y  c #6C5335",
"u  c #6D5938",
"i  c #725C3A",
"p  c #755B3A",
"a  c #77613C",
"s  c #5A3F45",
"d  c #673D41",
"f  c #4C4446",
"g  c #564748",
"h  c #564D51",
"j  c #5B5356",
"k  c #5F5459",
"l  c #634E43",
"z  c #664349",
"x  c #664649",
"c  c #695548",
"v  c #6D4C53",
"b  c #734E55",
"n  c #62555A",
"m  c #695B5A",
"M  c #745356",
"N  c #755159",
"B  c #7D565D",
"V  c #745A5D",
"C  c #7B5859",
"Z  c #7D4F4B",
"A  c #7E6642",
"S  c #796548",
"D  c #756352",
"F  c #7E6C5A",
"G  c #796559",
"H  c #695D61",
"J  c #705F67",
"K  c #716369",
"L  c #7B686A",
"P  c #7B7375",
"I  c #676565",
"U  c #97342E",
"Y  c #93322D",
"T  c #AA3B34",
"R  c #B7423A",
"E  c #895B5A",
"W  c #985D5A",
"Q  c #8C4946",
"!  c #AF5953",
"~  c #856D44",
"^  c #886F45",
"/  c #876F48",
"(  c #8A7147",
")  c #8E744B",
"_  c #87724E",
"`  c #92774C",
"'  c #94794E",
"]  c #84675A",
"[  c #97615F",
"{  c #85715C",
"}  c #967D54",
"|  c #9A7D52",
" . c #9C7D5D",
".. c #825B61",
"X. c #856364",
"o. c #896666",
"O. c #8B6A64",
"+. c #886B69",
"@. c #956563",
"#. c #887968",
"$. c #927662",
"%. c #91736B",
"&. c #917E6A",
"*. c #9C7069",
"=. c #8B7B74",
"-. c #88777A",
";. c #937A73",
":. c #806D73",
">. c #A6776A",
",. c #A47974",
"<. c #BB7A66",
"1. c #9C8156",
"2. c #9F875C",
"3. c #A28256",
"4. c #A58459",
"5. c #AC8A5D",
"6. c #A8865D",
"7. c #B08E5F",
"8. c #998678",
"9. c #9F8666",
"0. c #B28E62",
"q. c #B5816E",
"w. c #B7976B",
"e. c #A38678",
"r. c #A48D7B",
"t. c #AB8A76",
"y. c #B38E77",
"u. c #AA947F",
"i. c #AF9372",
"p. c #BF9F79",
"a. c #AD9169",
"s. c #B8A177",
"d. c #C39C6B",
"f. c #CA8F73",
"g. c #C7A577",
"h. c #8C7B84",
"j. c #957C83",
"k. c #9B858E",
"l. c #988D96",
"z. c #989196",
"x. c #A78B87",
"c. c #AC9583",
"v. c #A99789",
"b. c #B49B84",
"n. c #B79E87",
"m. c #A68C95",
"M. c #A99698",
"N. c #B59B9C",
"B. c #B88991",
"V. c #BBA48A",
"C. c #BEAA8E",
"Z. c #BCA886",
"A. c #B5A49A",
"S. c #BCA899",
"D. c #BFB09C",
"F. c #AA9DA6",
"G. c #A895A0",
"H. c #AEA3AE",
"J. c #BCA9A4",
"K. c #B5A3AC",
"L. c #BCADAD",
"P. c #B9A5A8",
"I. c #B8AAB4",
"U. c #BBB1BD",
"Y. c #CE9F81",
"T. c #CC9595",
"R. c #C6A889",
"E. c #C8B69D",
"W. c #D3B391",
"Q. c #D5BB97",
"!. c #D6AF8C",
"~. c #E4B78F",
"^. c #C39BA3",
"/. c #C1ADAD",
"(. c #C6B4A3",
"). c #C9B8A9",
"_. c #CCBDBB",
"`. c #C3B5B6",
"'. c #D4C3BB",
"]. c #BDB5C1",
"[. c #CBBCC3",
"{. c #C5BBC6",
"}. c #D0BCC7",
"|. c #CBC1CA",
" X c #D5C7C6",
".X c #D5CAD4",
"XX c #DACDD3",
"oX c #D4CAD7",
"OX c #DDD1D6",
"+X c #DBD2DB",
"@X c #DAD0CF",
"#X c #E7D3C3",
"$X c #E3D5DC",
"%X c #E7D9DC",
"&X c #E3CBCF",
"*X c #DDD5E0",
"=X c #E1D6E3",
"-X c #E6DCE2",
";X c #EBDEEA",
":X c #E8DAE6",
">X c #EDE3EC",
",X c #EEE9EE",
"<X c #F2F0EE",
"1X c #EEE4F1",
"2X c #F1E6F4",
"3X c #F3EBF6",
"4X c #F5F1F6",
"5X c #F7F5F8",
"6X c #F8F8F8",
"7X c #F0E5EF",
"8X c None",
/* pixels */
"8X8X8X8X8X8X8X8X8X8X8X8X8X8X8X8X8X8X8X8X8X8X8X8X8X8X8X8X8X8X8X8X8X8X8X8X8X8X8X8X8X8X8X8X8X8X8X8X8X8X",
"8X8X8X8X8X8X8X8X8X8X8X8X8X8X8X8X8X8X8X8X8X8X8X8X8X8X8X8X8X8X8X8X8X8X8X8X8X8X8X8X8X8X8X8X8X8X8X8X8X8X",
"8X8X8X8X8X8X8X8X8X8X8X8X8X8X8X8X8X8X8X8X8X8X8X8X8X8X8Xn.(.3X3XB.8X8X8X8X8X8X8X8X8X8X8X8X8X8X8X8X8X8X",
"8X8X8X8X8X8X8X8X8X8X8X8X8X8X8X8X8X8X8X8X8X8X8X8X8X8X%.C.'.3X4X@XQ 8X8X8X8X8X8X8X8X8X8X8X8X8X8X8X8X8X",
"8X8X8X8X8X8X8X8X8X8X8X8X8X8X8X8X8X8X8X8X8X8X8X8X8X8XX.C.).}.+X-XB.8X8X8X8X8X8X8X8X8X8X8X8X8X8X8X8X8X",
"8X8X8X8X8X8X8X8X8X8X8X8X8X8X8X8X8X8X3.8X8X8X8X8X8X8X8.E.C. Xz.}.K.8X8X8X8X8X8X8X8X8X8X8X8X8X8X8X8X8X",
"8X8X8X8X8X8X8X8X8X8X8X8X8X8X8X8Xu ) ) g.8X8Xu 6.8X8X8Xv.C.'.,X.Xm.8X8X8X8X8X8X8X8X8X8X8X8X8X8X8X8X8X",
"8X8X8X8X8X8X8X8X8X8X8X8X8X8X8X8X~ ' ( s._ ^ ^ | 8X8XM V C.'.1X@X].8X8X8X8X8X8X8X8X8X8X8X8X8X8X8X8X8X",
"8X8X8X8X8X8X8X8X8X8X8X8X8X8X8Xa ) ) 5.1.p.' / | E.G.`.;.8.S..X{.{.8X8X8X8X8X8X8X8X8X8X8X8X8X8X8X8X8X",
"8X8X8X8X8X8X8X8X8X8X8X8X8X8Xy ( ( ( ' 7.s.| ^ } #X%X[.[.[.-.P P 8X8X8X8X8X8X8X8X8X8X8X8X8X8X8X8X8X8X",
"8X8X8X8X8X8X8X8X8X8X8X8X8X8X~ ^ ' 5.` 5.w.' ( ^ #X7X%X2X1X%Xj.8X8X8X8X8X8X8X8X8X8X8X8X8X8X8X8X8X8X8X",
"8X8X8X8X8X8X8X8X8X8X8X8X8Xu ) 5.d.d.g.0.w.} ` ` %X5X4X%X1X}.,.N.8X8X8X8X8X8X8X8X8X8X8X8X8X8X8X8X8X8X",
"8X8X8X8X8X8X8X8X8X8X8X8X8XS ` 3.w.d.5.) s.{ ` w.7X5X5X4X;X;X! 2XoX8X8X8X8X8X8X8X8X8X8X8X8X8X8X8X8X8X",
"8X8X8X8X8X8X8X8X8X8X8X8X8XV ] S ~ ^ 6.4.S 8.| '.3X5X4X5X2X>XR :X4X8X8X8X8X8X8X8X8X8X8X8X8X8X8X8X8X8X",
"8X8X8X8X8X8X8X8X8X8X8X~ i.O.S..X|.$.$.+.u.{ y.2X@X<X5X3X2X&XR ;X5X8X8X8X8X8X8X8X8X8X8X8X8X8X8X8X8X8X",
"8X8X8X8X8X8X8X8X8Xi A 0.3.g.:X5X+XM %.e.e.u.j.%XXX5X5X%X2XT.T.;X4X8X8X8X8X8X8X8X8X8X8X8X8X8X8X8X8X8X",
"8X8X8X8X8X8X8X8X8Xa _ 1.4.E.4X>X8X8XX.c.V.v.c.M.%X;X,X X=X9 [.N.-XU.8X8X8X8X8X8X8X8X8X8X8X8X8X8X8X8X",
"8X8X8X8X8X8X8X8X8Xu ( w.2.Z.'.8X8X8XC r.(.C.C.u.u.c.v.x.L m.v M.7X{.8X8X8X8X8X8X8X8X8X8X8X8X8X8X8X8X",
"8X8X8X8X8X8X8X8X8Xa 1.i.s.9.8X8X8X8X1 x.'.D.r.R.J.8.Z.{ -.C B L.2X^.8X8X8X8X8X8X8X8X8X8X8X8X8X8X8X8X",
"8X8X8X8X8X8X8X8X8X1.0.' s.; 8X8X8X8XO l _.(.;.c._.v.8.c 8X8XN =..XP.8X8X8X8X8X8X8X8X8X8Xk 8X8X8X8X8X",
"8X8X8X8X8X8X8X8Xa / 0.2.g 8X8X8X8X8Xq 2 1 8.c.%XA.=.M.8X8X8X8X{ K.A.8X8X8X8X8X8X8X8X8X8XH 8X8X8X8X8X",
"8X8X8X8X8X8X8X8Xr.8.$.L.8X8X8X8X8X8XA ~ ~ a p =.L F.a.`.8X8X8XF 8.L.G 8X8X8X8X8X8X8X8Xj W 8X8X8X8X8X",
"8X8X8X8X8X8X8X8X8X&.%.M.8X8X8X8X8X8X~ ~ ~ ^ } ] =.J.p.8X8X8X8XG &.z.M.8X8X8X8X8X8X8Xh E ! o.8X8X8X8X",
"8X8X8X8X8X8X8X8XF c % 7 8 8X8X8X8Xj c S D G q.@.I.w.4.8X8X8X8X8X9.=.L.D 8X8X8X8X8Xf E f.*.@.8X8X8X8X",
"8X8X8X8X8X8X8X8X$ # % n K k M Q y.Q.x.b.b.W.e.H.#.y y T U 8X8X8X8X#.l o - 8X8X8Xn W <.Y.L @.8X8X8X8X",
"8X8X8X8X8X8X8X8Xw c 5 k K L [ -.W.W.R.Y.R.b.F.h.r r 8 U d 4 8X8X8X8X1 1 H H E W q.*.~.>.L o.8X8X8X8X",
"8X8X8X8X8X8X8X8X8XC.r.I H L W $.X.t.!.R.n.`.8.u q e 9 U.2X=Xh.8X8X8X8Xe.V H C C O.f.y.>.@.8X8X8X8X8X",
"8X8X8X8X8X8X8X8X8X8X8Xj H V s 4 4 k ,.M.l.g y e y 1 :.2X3X3X3X8X8X8X8X8Xc.8X8X8Xh Z 8X8XC 8X8X8X8X8X",
"8X8X8X8X8X8X8X8X8X8X: h f f % H.:Xz.H.F.% 3 1 2 w v N _.3XoXm.k.8X8X8X8X8X8X8X8X8X8X8X8X8X8X8X8X8X8X",
"8X8X8X8X8X8X8X8X8X: w : 8Xz |.2X1XoX4X2XG.y & u t B E 8.>X3X=Xj.N 8X8X8X8X8X8X8X8X8X8X8X8X8X8X8X8X8X",
"8X8X8X8X8X8X8X8X8X8X8X8X8X..$X2X3X5X5X2Xz.y 3 r w v B B P.3X3X>Xk.M 8X8X8X8X8X8X8X8X8X8X8X8X8X8X8X8X",
"8X8X8X8X8X8X8X8X8X8X8X8X8XB [.2X5X5X5X=X8Xt q t 8X8Xb ..../.1X3X4XK.8X8X8X8X8X8X8X8X8X8X8X8X8X8X8X8X",
"8X8X8X8X8X8X8X8X8X8X8X8X8XX.x.>X4X3X3X8X8Xq r y 2 8X8X8Xv ..N.$X2X3X+X8X8X8X8X8X8X8X8X8X8X8X8X8X8X8X",
"8X8X8X8X8X8X8X8X8X8X8X8X8XB X.$X>XOX+X8X8X3 q p 8X8X8X8X8Xx M %.S.XX'.|.8X8X8X8X8X8X8X8X8X8X8X8X8X8X",
"8X8X8X8X8X8X8X8X8X8X8X8XB B E [.S.;X8X8X8X2 e 3 8X8X8X8X8X8Xz ....8.v.|.8X8X8X8X8X8X8X8X8X8X8X8X8X8X",
"8X8X8X8X8X8X8X8X8X8XX b B B x.OX.XoX8X8X% # q < 8X8X8X8X8X8X4 N ..E %.I.8X8X8X8X8X8X8X8X8X8X8X8X8X8X",
"8X8X8X8X8X8X8X8X8X8X& ..B ..N.3X`.8X8X8X8X% 8XX 8X8X8X8X8X8Xb e.%.B +.s 8X8X8X8X8X8X8X8X8X8X8X8X8X8X",
"8X8X8X8X8X8X8X8X8X# % N B B O.L.8X8X8X8X8X8X8X8X8X8X8X8X8X  5 r.X.s # 8X8X8X8X8X8X8X8X8X8X8X8X8X8X8X",
"8X8X8X8X8X8X8X8X8X# % 6 B B N 8X8X8X8X8X8X8X8X8X8X8X8X8X8XO % % 1 > o 8X8X8X8X8X8X8X8X8X8X8X8X8X8X8X",
"8X8X8X8X8X8X8X8X8X# % % z z 8X8X8X8X8X8X8X8X8X8X8X8X8X8X8Xo % % % % o 8X8X8X8X8X8X8X8X8X8X8X8X8X8X8X",
"8X8X8X8X8X8X8X8X8X% % % # * 8X8X8X8X8X8X8X8X8X8X8X8X8X8X8Xo % % % % o 8X8X8X8X8X8X8X8X8X8X8X8X8X8X8X",
"8X8X8X8X8X8X8X8X8X% % # # 8X8X8X8X8X8X8X8X8X8X8X8X8X8X8X8X8X# % % 8 > 8X8X8X8X8X8X8X8X8X8X8X8X8X8X8X",
"8X8X8X8X8X8X8X8X  % # % 8X8X8X8X8X8X8X8X8X8X8X8X8X8X8X8X8X8Xo % % Y 8X8X8X8X8X8X8X8X8X8X8X8X8X8X8X8X",
"8X8X8X8X8X8X8X8Xo % % O 8X8X8X8X8X8X8X8X8X8X8X8X8X8X8X8X8X8XO % O Y 8X8X8X8X8X8X8X8X8X8X8X8X8X8X8X8X",
"8X8X8X8X8X8X8X8X# # , 8X8X8X8X8X8X8X8X8X8X8X8X8X8X8X8X8X8X8X# # > 7 8X8X8X8X8X8X8X8X8X8X8X8X8X8X8X8X",
"8X8X8X8X8X8X8X8X% > Q 8X8X8X8X8X8X8X8X8X8X8X8X8X8X8X8X8X8X8X# 7 7 X 8X8X8X8X8X8X8X8X8X8X8X8X8X8X8X8X",
"8X8X8X8X8X8X8Xg % % > > 8X8X8X8X8X8X8X8X8X8X8X8X8X8X8X8X8X$ $ $ $ = $ 8X8X8X8X8X8X8X8X8X8X8X8X8X8X8X",
"8X8X8X8X8X8X8X- j = = 8X8X8X8X8X8X8X8X8X8X8X8X8X8X8X8X8X8X. = = = = J -.j.8X8X8X8X8X8X8X8X8X8X8X8X8X",
"8X8X8X8X8X8X8XF.j.I.N 8X8X8X8X8X8X8X8X8X8X8X8X8X8X8X8X8X8X8X8X. = @ -.K h.8X8X8X8X8X8X8X8X8X8X8X8X8X",
"8X8X8X8X8X8X8X: - 4 8X8X8X8X8X8X8X8X8X8X8X8X8X8X8X8X8X8X8X8X8X8X8X8X8X8X8X8X8X8X8X8X8X8X8X8X8X8X8X8X"
};
