/* XPM */
static char *result[] = {
/* columns rows colors chars-per-pixel */
"50 50 212 2 ",
"   c #010000",
".  c #0C0304",
"X  c #0C0B0C",
"o  c #150D0C",
"O  c #170F10",
"+  c #151414",
"@  c #1E1E1E",
"#  c #1C171A",
"$  c #28090E",
"%  c #2E0C12",
"&  c #211E1F",
"*  c #2B1B1D",
"=  c #2F151B",
"-  c #381017",
";  c #3C1219",
":  c #361818",
">  c #330D14",
",  c #231A20",
"<  c #222222",
"1  c #2D2D2D",
"2  c #2C2525",
"3  c #392529",
"4  c #332C2D",
"5  c #392425",
"6  c #3B322F",
"7  c #353535",
"8  c #393434",
"9  c #393939",
"0  c #3C3838",
"q  c #431419",
"w  c #4D181A",
"e  c #5A1C1D",
"r  c #412C1D",
"t  c #42311E",
"y  c #4B1C20",
"u  c #442829",
"i  c #583E2A",
"p  c #462D31",
"a  c #413B3B",
"s  c #473737",
"d  c #563A37",
"f  c #502F28",
"g  c #662120",
"h  c #743535",
"j  c #643636",
"k  c #5E432D",
"l  c #494036",
"z  c #4F463A",
"x  c #564437",
"c  c #61472F",
"v  c #664832",
"b  c #6A5235",
"n  c #75533B",
"m  c #79633D",
"M  c #413D40",
"N  c #593B41",
"B  c #603D43",
"V  c #444243",
"C  c #4F4449",
"Z  c #4C4C4D",
"A  c #544446",
"S  c #554749",
"D  c #5A4647",
"F  c #5A4D50",
"G  c #535353",
"H  c gray36",
"J  c #5E5455",
"K  c #654948",
"L  c #704D4C",
"P  c #625246",
"I  c #725848",
"U  c #6B4A50",
"Y  c #624F50",
"T  c #6A5D59",
"R  c #685458",
"E  c #765555",
"W  c #7D5756",
"Q  c #7C555C",
"!  c #77575B",
"~  c #734E56",
"^  c #6F614D",
"/  c #756455",
"(  c #796A5A",
")  c #785E61",
"_  c #675D61",
"`  c #636363",
"'  c #6B6B6B",
"]  c #6E6168",
"[  c #796869",
"{  c #7D7069",
"}  c #7C6C74",
"|  c #747474",
" . c #7B7B7B",
".. c #7A7576",
"X. c #872E2A",
"o. c #923B34",
"O. c #915F5E",
"+. c #8B4443",
"@. c #A25E57",
"#. c #856D44",
"$. c #886F45",
"%. c #8A7249",
"&. c #91774D",
"*. c #94784E",
"=. c #87695C",
"-. c #8C7656",
";. c #987E56",
":. c #917857",
">. c #815C61",
",. c #856165",
"<. c #86686A",
"1. c #946B63",
"2. c #857264",
"3. c #8C7767",
"4. c #927B6A",
"5. c #967767",
"6. c #89777A",
"7. c #997E73",
"8. c #A27770",
"9. c #AA7D6C",
"0. c #9F8155",
"q. c #9F8158",
"w. c #A28256",
"e. c #A38559",
"r. c #AC8B5F",
"t. c #A9875B",
"y. c #96836C",
"u. c #998673",
"i. c #A68E64",
"p. c #A68B6A",
"a. c #B28768",
"s. c #BC986A",
"d. c #BA996B",
"f. c #A88C79",
"g. c #B6987B",
"h. c #B8A074",
"j. c #C0846C",
"k. c #C19379",
"l. c #C39C6B",
"z. c #8A7982",
"x. c #987D85",
"c. c #848484",
"v. c #8D8C8D",
"b. c #8F8289",
"n. c #9C8C8A",
"m. c #998884",
"M. c #948E93",
"N. c #978E98",
"B. c #959494",
"V. c #9C9B9D",
"C. c #9B939C",
"Z. c #A9918C",
"A. c #AC9A89",
"S. c #A89584",
"D. c #BA9D84",
"F. c #B39F86",
"G. c #BF8F94",
"H. c #AA959B",
"J. c #A89696",
"K. c #B39097",
"L. c #B29D9F",
"P. c #A28B8D",
"I. c #BCA58B",
"U. c #B5A49D",
"Y. c #BAA695",
"T. c #A3A3A3",
"R. c #ADA3AD",
"E. c #A9A9A9",
"W. c #B6A6A9",
"Q. c #B4ABB6",
"!. c #B4B4B4",
"~. c #BBB2B2",
"^. c #BCBBBB",
"/. c #BCB5BD",
"(. c #D2B290",
"). c #CCAE92",
"_. c #C6B4A4",
"`. c #C0ADB5",
"'. c #C5B4BA",
"]. c #CABBBD",
"[. c #C6B4B3",
"{. c #D8B3B5",
"}. c #D2C3BD",
"|. c #D5C3AE",
" X c #E3CEBF",
".X c #BCB4C0",
"XX c #C8BDC7",
"oX c #DDBFC6",
"OX c #C4C4C4",
"+X c #CDC2C8",
"@X c #CCCCCC",
"#X c #D3C6CA",
"$X c #D7C6CA",
"%X c #DDD0CC",
"&X c #D4CBD4",
"*X c #D8CBD3",
"=X c #DDD3DC",
"-X c #DCD0D6",
";X c #E4D6DA",
":X c #DED7E1",
">X c #E2D6E1",
",X c #E7DEEA",
"<X c #E7DCE5",
"1X c #EDE3EC",
"2X c #EBE4E9",
"3X c #F0E9EE",
"4X c #EFE3F1",
"5X c #F3EBF5",
"6X c #F0E5F2",
"7X c #F6F3F6",
"8X c #F6F3F8",
"9X c None",
/* pixels */
"9X9X9X9X9X9X9X9X9X9X9X9X9X9X9X9X9X9X9X9X9X9X9X9X9X9X9X9X9X9X9X9X9X9X9X9X9X9X9X9X9X9X9X9X9X9X9X9X9X9X",
"9X9X9X9X9X9X9X9X9X9X9X9X9X9X9X9X9X9X9X9X9X9X9X9X9X9X9X9X9X9X9X9X9X9X9X9X9X9X9X9X9X9X9X9X9X9X9X9X9X9X",
"9X9X9X9X9X9X9X9X9X9X9X9X9X9X9X9X9X9X9X9X9X9X9X9X9X9X9X9X9X9X9X9X9X9X9X9X9X9X9X9X9X9X9X9X9X9X9X9X9X9X",
"9X9X9X9X9X9X9X9X9X9X9X9X9X9X9X9X9X9X9X9X9X9X9X9X9X9X9X9X9X9X9X9X9X9X9X9X9X9X9X9X9X9X9X9X9X9X9X9X9X9X",
"9X9X9X9X9X9X9X9X9X9X9X9X9X9X9X9X9X9X9X9X9X9X9X9X9X9X9X9X9X9X9X9X9X9X9X9X9X9X9X9X9X9X9X9X9X9X9X9X9X9X",
"9X9X9X9X9X9X9X9X9X9X9X9X9X9X9X9X9X9X9X9X9X9X9X9X9X9X9X9X9X9X9X9X9X9X9X9X9X9X9X9X9X9X9X9X9X9X9X9X9X9X",
"9X9X9X9X9X9X9X9X9X9X9X9X9X9X9X9X9X9X9X9X9X9X9X9X9X9X9X9X9X9X9X9X9X9X9X9X9X9X9X9X9X9X9X9X9X9X9X9X9X9X",
"9X9X9X9X9X9X9X9X9X9X9X9X9X9X9X9X9X9X9X9X9X9X9X9X9X9X9X_.2X`.9X9X9X9X9X9X9X9X9X9X9X9X9X9X9X9X9X9X9X9X",
"9X9X9X9X9X9X9X9X9X9X9X9X9X9X9X9X9X9X9X9X9X9X9X9X9X9XA.}.7X;X+.9X9X9X9X9X9X9X9X9X9X9X9X9X9X9X9X9X9X9X",
"9X9X9X9X9X9X9X9X9X9X9X9X9X9X9X9X9X9X9X9X9X9X9X9X9X9XF._.+X*XK.9X9X9X9X9X9X9X9X9X9X9X9X9X9X9X9X9X9X9X",
"9X9X9X9X9X9X9X9X9X9X9X9X9X9X9X9X9X9X9X%.r.9X9X9X9X9XA.I.#X*XH.9X9X9X9X9X9X9X9X9X9X9X9X9X9X9X9X9X9X9X",
"9X9X9X9X9X9X9X9X9X9X9X9X9X9X9X9X9X9X#.&.i.:.$.*.9X9X! I.%X;X.X9X9X9X9X9X9X9X9X9X9X9X9X9X9X9X9X9X9X9X",
"9X9X9X9X9X9X9X9X9X9X9X9X9X9X9X9X9Xm %.&.e.g.&.*.|.'.W.J.U.Q.R.9X9X9X9X9X9X9X9X9X9X9X9X9X9X9X9X9X9X9X",
"9X9X9X9X9X9X9X9X9X9X9X9X9X9X9X@X^.%.&.0.e.d.&.%. X<X>X>X~.B.^.@X@X@X@X9X9X9X9X9X9X9X9X9X9X9X9X9X9X9X",
"9X9X9X9X9X9X9X9X9X9X9X@X@X@X@X@Xu.w.d.l.l.s.*.&.;X7X2X4X[.K./.!.OX@X@X@X@X@X@X9X9X9X9X9X9X9X9X9X9X9X",
"9X9X9X9X9X9X9X9X@X@X@X@X@X!.V.c.( *.t.i.;.p.:.g.6X7X8X4XoX$X=X .|  .v.T.!.@X@X@X@X9X9X9X9X9X9X9X9X9X",
"9X9X9X9X9X9X@X@X@X@X!.B.| | ( y.4._.Q.:.5.u.5.}.;X7X8X5X{.oX5Xv.| | | | |  .B.!.@X@X@X9X9X9X9X9X9X9X",
"9X9X9X9X9X@X@X@XT. .| | | / q.e._.3X&X) 7.f.f.XX-X7X2X6XG.*X5XM.| | | | | | | | c.E.@X@X@X9X9X9X9X9X",
"9X9X9X@X@X@XE. .| | | | | ( 0.q._.#X..S 7.Y.D.A.}.@X]./.7.H.<XC.G ` ' | | | | | | |  .!.@X@X9X9X9X9X",
"9X9X@X@XOXB.| | | | | ' H ^ e.h.y.J 0 a 3.[.Y.F.U.f.u.2.) J.1XP.9 9 9 9 Z H ' | | | | | B.OX@X@X9X9X",
"9X9X@XOXc.| | | | H z 9 l q.e.g.8 9 9 4 d W.U.S.[.S.{ M N } #Xz.9 9 9 9 9 9 9 F H | | | | c.OX@X9X9X",
"9X@X@Xc.| | | G 9 9 9 7 ^ :.f.T 9 7 7 a b b -.W.S.B.u.1 0 / H.m.0 9 9 9 9 9 M W V 9 H | | | v.@X@X9X",
"@X@XT.| | ` 9 9 9 9 9 9 [ y.m.S < @ @ t $.#.$.-.6.Y.-.@ @ P y.J.T < 1 1 7 9 Q @.Y 9 9 V ` | | E.@X9X",
"@X@X .| G 9 9 7 9 9 1 1 z K e j 7 s z [ ( -.5.8.R.e.n 5 @ 2 2.m.{ @ @ < 7 L j.1.E 9 9 9 9 G | c.@X@X",
"@XOX| Z 7 9 7 9 1 < @ @ u d A ] ! >.g.).I.D.I.J./ v o.h , , , P u Z D L 1.a.k.<.Y 7 9 9 9 9 Z | OX@X",
"@X^.Z 9 9 9 1 < < @ @ @ z y.{ _ <.1.5.D.).D.R.2.c v P.>X.XM X 4 2.! ! W 1.g.9.,.a @ < 1 7 9 7 H @X@X",
"@X@XG 9 7 < < @ @ @ @ @ + + 9 H R F } } Z.x.x v b K XX5X1XR..   l 3.z . N d 1 K @ @ @ @ 2 7 7 H @X@X",
"9X@XB.7 < @ @ @ @ + X     < a 0 Y /.,XXX&Xz.k k k Q P.4X=XH.N X         # .   + # @ < @ @ < 7 T.@X9X",
"9X@X@X` @ @ @ +           + O   6.,X5X7X7XN.v c x ~ >.[.6X2Xx.s                   . + @ @ @ | @X@X9X",
"9X9X@XOXH @                     ,.-X8X7X=XV c c r 5 U Q '.1X5XR.V                     X + ' OX@X9X9X",
"9X9X9X@XOX .                    R '.3X>XV.* i b r   O p [ H.$X;XM.                      c.@X@X9X9X9X",
"9X9X9X9X@X@XE.Z             4 U Q L._.&XZ : i c o       5 ~ <.Z.~.                  G E.@X@X9X9X9X9X",
"9X9X9X9X9X@X@X@XV.G       . N >.<.XX#XC.  $ : r .       = ! ,.,.m.              H T.@X@X@X9X9X9X9X9X",
"9X9X9X9X9X9X9X@X@X@X!.c.9 % B Q >.W.6.X   . $ .         3 4.<.K p         V c.!.@X@X@X9X9X9X9X9X9X9X",
"9X9X9X9X9X9X9X9X9X@X@X@XOX; u Q Q D X       .           > u p q O Z ..V.^.@X@X@X@X9X9X9X9X9X9X9X9X9X",
"9X9X9X9X9X9X9X9X9X9X9X9XXX- q d 6.^.^.T.V.v.c.c.c.c.c.c.p ; q s !.@X@X@X@X@X9X9X9X9X9X9X9X9X9X9X9X9X",
"9X9X9X9X9X9X9X9X9X9X9X9X9X; - S XX@X@X@X@X@X@X@X@X@X@X@Xv.; - E ^.@X@X9X9X9X9X9X9X9X9X9X9X9X9X9X9X9X",
"9X9X9X9X9X9X9X9X9X9X9X9X9X; ; 9X9X9X9X9X9X9X9X9X9X9X9X9X9X- q X.9X9X9X9X9X9X9X9X9X9X9X9X9X9X9X9X9X9X",
"9X9X9X9X9X9X9X9X9X9X9X9X> ; q 9X9X9X9X9X9X9X9X9X9X9X9X9X9X- q X.9X9X9X9X9X9X9X9X9X9X9X9X9X9X9X9X9X9X",
"9X9X9X9X9X9X9X9X9X9X9X9X; y h 9X9X9X9X9X9X9X9X9X9X9X9X9X% e g w 9X9X9X9X9X9X9X9X9X9X9X9X9X9X9X9X9X9X",
"9X9X9X9X9X9X9X9X9X9X9XA 5 ; y 9X9X9X9X9X9X9X9X9X9X9X9X9X= - = , 9X9X9X9X9X9X9X9X9X9X9X9X9X9X9X9X9X9X",
"9X9X9X9X9X9X9X9X9X9X9X] ] [ p 9X9X9X9X9X9X9X9X9X9X9X9X9X# , , C <.z.9X9X9X9X9X9X9X9X9X9X9X9X9X9X9X9X",
"9X9X9X9X9X9X9X9X9X9X9X9X_ } 9X9X9X9X9X9X9X9X9X9X9X9X9X9X9X9X9X9X9X9X9X9X9X9X9X9X9X9X9X9X9X9X9X9X9X9X",
"9X9X9X9X9X9X9X9X9X9X9X9X9X9X9X9X9X9X9X9X9X9X9X9X9X9X9X9X9X9X9X9X9X9X9X9X9X9X9X9X9X9X9X9X9X9X9X9X9X9X",
"9X9X9X9X9X9X9X9X9X9X9X9X9X9X9X9X9X9X9X9X9X9X9X9X9X9X9X9X9X9X9X9X9X9X9X9X9X9X9X9X9X9X9X9X9X9X9X9X9X9X",
"9X9X9X9X9X9X9X9X9X9X9X9X9X9X9X9X9X9X9X9X9X9X9X9X9X9X9X9X9X9X9X9X9X9X9X9X9X9X9X9X9X9X9X9X9X9X9X9X9X9X",
"9X9X9X9X9X9X9X9X9X9X9X9X9X9X9X9X9X9X9X9X9X9X9X9X9X9X9X9X9X9X9X9X9X9X9X9X9X9X9X9X9X9X9X9X9X9X9X9X9X9X",
"9X9X9X9X9X9X9X9X9X9X9X9X9X9X9X9X9X9X9X9X9X9X9X9X9X9X9X9X9X9X9X9X9X9X9X9X9X9X9X9X9X9X9X9X9X9X9X9X9X9X",
"9X9X9X9X9X9X9X9X9X9X9X9X9X9X9X9X9X9X9X9X9X9X9X9X9X9X9X9X9X9X9X9X9X9X9X9X9X9X9X9X9X9X9X9X9X9X9X9X9X9X",
"9X9X9X9X9X9X9X9X9X9X9X9X9X9X9X9X9X9X9X9X9X9X9X9X9X9X9X9X9X9X9X9X9X9X9X9X9X9X9X9X9X9X9X9X9X9X9X9X9X9X"
};
