/* XPM */
static char *result[] = {
/* columns rows colors chars-per-pixel */
"50 50 108 2 ",
"   c black",
".  c #010101",
"X  c #020202",
"o  c #040404",
"O  c #060606",
"+  c #070707",
"@  c gray4",
"#  c #0B0B0B",
"$  c gray5",
"%  c gray6",
"&  c gray8",
"*  c #161616",
"=  c #191919",
"-  c #1B1B1B",
";  c #1D1D1D",
":  c #1E1E1E",
">  c gray12",
",  c #202020",
"<  c gray13",
"1  c #222222",
"2  c #232323",
"3  c gray14",
"4  c #272727",
"5  c gray16",
"6  c gray17",
"7  c #2D2D2D",
"8  c #2F2F2F",
"9  c #313131",
"0  c #323232",
"q  c gray20",
"w  c #343434",
"e  c #353535",
"r  c gray21",
"t  c #373737",
"y  c gray22",
"u  c #3A3A3A",
"i  c #3C3C3C",
"p  c gray24",
"a  c gray25",
"s  c gray26",
"d  c #444444",
"f  c #464646",
"g  c gray29",
"h  c #4C4C4C",
"j  c #4E4E4E",
"k  c #505050",
"l  c gray32",
"z  c #535353",
"x  c #555555",
"c  c gray34",
"v  c gray35",
"b  c #5A5A5A",
"n  c #5B5B5B",
"m  c gray36",
"M  c gray37",
"N  c gray38",
"B  c #646464",
"V  c #6A6A6A",
"C  c gray42",
"Z  c #6D6D6D",
"A  c gray44",
"S  c #727272",
"D  c gray45",
"F  c #747474",
"G  c gray46",
"H  c gray47",
"J  c #797979",
"K  c gray49",
"L  c gray50",
"P  c #818181",
"I  c gray51",
"U  c #838383",
"Y  c gray53",
"T  c gray54",
"R  c #8D8D8D",
"E  c gray56",
"W  c #929292",
"Q  c #939393",
"!  c gray59",
"~  c #989898",
"^  c #9B9B9B",
"/  c gray62",
"(  c #9F9F9F",
")  c gray63",
"_  c #A2A2A2",
"`  c #A4A4A4",
"'  c #A5A5A5",
"]  c gray66",
"[  c #AAAAAA",
"{  c gray68",
"}  c gray69",
"|  c #B2B2B2",
" . c gray71",
".. c #B6B6B6",
"X. c #B7B7B7",
"o. c gray",
"O. c #C0C0C0",
"+. c #C1C1C1",
"@. c gray77",
"#. c #C6C6C6",
"$. c gray78",
"%. c #C8C8C8",
"&. c gray79",
"*. c #CACACA",
"=. c #CBCBCB",
"-. c gray80",
";. c #CDCDCD",
":. c None",
/* pixels */
":.:.:.:.:.:.:.:.:.:.:.:.:.:.:.:.:.:.:.:.:.:.:.:.:.:.:.:.:.:.:.:.:.:.:.:.:.:.:.:.:.:.:.:.:.:.:.:.:.:.",
":.:.:.:.:.:.:.:.:.:.:.:.:.:.:.:.:.:.:.:.:.:.:.:.:.:.:.:.:.:.:.:.:.:.:.:.:.:.:.:.:.:.:.:.:.:.:.:.:.:.",
":.:.:.:.:.:.:.:.:.:.:.:.:.:.:.:.:.:.:.:.:.:.:.:.:.:.:.:.:.:.:.:.:.:.:.:.:.:.:.:.:.:.:.:.:.:.:.:.:.:.",
":.:.:.:.:.:.:.:.:.:.:.:.:.:.:.:.:.:.:.:.:.:.:.:.:.:.:.:.:.:.:.:.:.:.:.:.:.:.:.:.:.:.:.:.:.:.:.:.:.:.",
":.:.:.:.:.:.:.:.:.:.:.:.:.:.:.:.:.:.:.:.:.:.:.:.:.:.:.:.:.:.:.:.:.:.:.:.:.:.:.:.:.:.:.:.:.:.:.:.:.:.",
":.:.:.:.:.:.:.:.:.:.:.:.:.:.:.:.:.:.:.:.:.:.:.:.:.:.:.:.:.:.:.:.:.:.:.:.:.:.:.:.:.:.:.:.:.:.:.:.:.:.",
":.:.:.:.:.:.:.:.:.:.:.:.:.:.:.:.:.:.:.:.:.:.:.:.:.:.:.:.:.:.:.:.:.:.:.:.:.:.:.:.:.:.:.:.:.:.:.:.:.:.",
":.:.:.:.:.:.:.:.:.:.:.:.:.:.:.:.:.:.:.:.:.:.:.:.:.:.:.:.:.:.:.:.:.:.:.:.:.:.:.:.:.:.:.:.:.:.:.:.:.:.",
":.:.:.:.:.:.:.:.:.:.:.:.:.:.:.:.:.:.:.:.:.:.:.:.:.:.:.:.:.:.:.:.:.:.:.:.:.:.:.:.:.:.:.:.:.:.:.:.:.:.",
":.:.:.:.:.:.:.:.:.:.:.:.:.:.:.:.:.:.:.:.:.:.:.:.:.:.:.:.:.:.:.:.:.:.:.:.:.:.:.:.:.:.:.:.:.:.:.:.:.:.",
":.:.:.:.:.:.:.:.:.:.:.:.:.:.:.:.:.:.:.:.:.:.:.:.:.:.:.:.:.:.:.:.:.:.:.:.:.:.:.:.:.:.:.:.:.:.:.:.:.:.",
":.:.:.:.:.:.:.:.:.:.:.:.:.:.:.:.:.:.:.:.:.:.:.:.:.:.:.:.:.:.:.:.:.:.:.:.:.:.:.:.:.:.:.:.:.:.:.:.:.:.",
":.:.:.:.:.:.:.:.:.:.:.:.:.:.:.:.:.:.:.:.:.:.:.-.;.;.-.:.:.:.:.:.:.:.:.:.:.:.:.:.:.:.:.:.:.:.:.:.:.:.",
":.:.:.:.:.:.:.:.:.:.:.:.:.:.:.-.-.-.-.-.-.-.-.-.-.-.-.-.-.-.-.-.-.-.-.:.:.:.:.:.:.:.:.:.:.:.:.:.:.:.",
":.:.:.:.:.:.:.:.:.:.:.-.-.-.-.-.*.o. .{ _ ^ ~ W E E W ~ / _ {  .O.*.-.-.-.-.-.:.:.:.:.:.:.:.:.:.:.:.",
":.:.:.:.:.:.:.:.-.-.-.-.$. .( T H G G G G G G G G G G G G G G G G J R _ ..%.-.-.-.:.:.:.:.:.:.:.:.:.",
":.:.:.:.:.:.-.-.-.&.| Q H G G G G G G G G G G G G G G G G G G G G G G G G J !  .*.-.-.:.:.:.:.:.:.:.",
":.:.:.:.:.-.-.#.' K G G G G G G G G G G D S A Z Z Z Z A S D G G G G G G G G G G L ] %.-.-.:.:.:.:.:.",
":.:.:.-.-.=.[ K G G G G G G S V M x h s i y y y y y y y y i s h x N V D G G G G G G L } =.-.:.:.:.:.",
":.:.-.-.@.E G G G G G C n g u y y y y y y y y y y y y y y y y y y y y u h m C G G G G G Q #.-.-.:.:.",
":.:.-.+.I G G G A m d y y y y y y y y y y y y y y y y y y y y y y y y y y y y f M S G G G Y @.-.:.:.",
":.-.%.U G G A c i y y y y y y y y r w 9 8 7 6 6 6 6 6 6 7 8 9 w r y y y y y y y y p b S G G T &.-.:.",
"-.-._ G G N p y y y y y t w 8 5 2 , > > > > > > > > > > > > > > , 2 5 8 w y y y y y y a B G G ] -.:.",
"-.&.K D k y y y y y 0 5 1 > > > > > > > > > > > > > > > > > > > > > > > > 1 5 0 y y y y y z F I =.-.",
"-.+.S g y y y t 7 2 > > > > > > > > > > > > > : : : : > > > > > > > > > > > > > 2 8 t y y y j F @.-.",
"-.+.k y y t 8 < > > > > > > > - = & % @ O X .         . X + # % & = - > > > > > > > 1 8 y y y c @.-.",
"-.&.k y w 3 > > > > > ; * % o                                         o % * ; > > > > > 4 e y M =.-.",
":.-.~ 0 < > > > : * # .                                                     . $ = > > > > < q ) -.:.",
":.-.&.B > > : & o                                                                 O * : > > A *.-.:.",
":.:.-.+.M = O                                                                         + = V #.-.:.:.",
":.:.:.-.#.H .                                                                         o P %.-.:.:.:.",
":.:.:.:.-.-.] h                                                                     z { -.-.:.:.:.:.",
":.:.:.:.:.-.-.%.( l                                                           . v ` *.-.-.:.:.:.:.:.",
":.:.:.:.:.:.:.-.-.=.| U i .                                             X s Y  .=.-.-.:.:.:.:.:.:.:.",
":.:.:.:.:.:.:.:.:.-.-.-.*. .~ G f %                           . % h H ^ X.=.-.-.-.:.:.:.:.:.:.:.:.:.",
":.:.:.:.:.:.:.:.:.:.:.:.-.-.-.-.-.@...' / E U U P P U Y W / ] X.#.-.-.-.-.-.:.:.:.:.:.:.:.:.:.:.:.:.",
":.:.:.:.:.:.:.:.:.:.:.:.:.:.:.-.-.-.-.-.-.-.-.-.-.-.-.-.-.-.-.-.-.-.-.:.:.:.:.:.:.:.:.:.:.:.:.:.:.:.",
":.:.:.:.:.:.:.:.:.:.:.:.:.:.:.:.:.:.:.:.:.:.:.:.:.:.:.:.:.:.:.:.:.:.:.:.:.:.:.:.:.:.:.:.:.:.:.:.:.:.",
":.:.:.:.:.:.:.:.:.:.:.:.:.:.:.:.:.:.:.:.:.:.:.:.:.:.:.:.:.:.:.:.:.:.:.:.:.:.:.:.:.:.:.:.:.:.:.:.:.:.",
":.:.:.:.:.:.:.:.:.:.:.:.:.:.:.:.:.:.:.:.:.:.:.:.:.:.:.:.:.:.:.:.:.:.:.:.:.:.:.:.:.:.:.:.:.:.:.:.:.:.",
":.:.:.:.:.:.:.:.:.:.:.:.:.:.:.:.:.:.:.:.:.:.:.:.:.:.:.:.:.:.:.:.:.:.:.:.:.:.:.:.:.:.:.:.:.:.:.:.:.:.",
":.:.:.:.:.:.:.:.:.:.:.:.:.:.:.:.:.:.:.:.:.:.:.:.:.:.:.:.:.:.:.:.:.:.:.:.:.:.:.:.:.:.:.:.:.:.:.:.:.:.",
":.:.:.:.:.:.:.:.:.:.:.:.:.:.:.:.:.:.:.:.:.:.:.:.:.:.:.:.:.:.:.:.:.:.:.:.:.:.:.:.:.:.:.:.:.:.:.:.:.:.",
":.:.:.:.:.:.:.:.:.:.:.:.:.:.:.:.:.:.:.:.:.:.:.:.:.:.:.:.:.:.:.:.:.:.:.:.:.:.:.:.:.:.:.:.:.:.:.:.:.:.",
":.:.:.:.:.:.:.:.:.:.:.:.:.:.:.:.:.:.:.:.:.:.:.:.:.:.:.:.:.:.:.:.:.:.:.:.:.:.:.:.:.:.:.:.:.:.:.:.:.:.",
":.:.:.:.:.:.:.:.:.:.:.:.:.:.:.:.:.:.:.:.:.:.:.:.:.:.:.:.:.:.:.:.:.:.:.:.:.:.:.:.:.:.:.:.:.:.:.:.:.:.",
":.:.:.:.:.:.:.:.:.:.:.:.:.:.:.:.:.:.:.:.:.:.:.:.:.:.:.:.:.:.:.:.:.:.:.:.:.:.:.:.:.:.:.:.:.:.:.:.:.:.",
":.:.:.:.:.:.:.:.:.:.:.:.:.:.:.:.:.:.:.:.:.:.:.:.:.:.:.:.:.:.:.:.:.:.:.:.:.:.:.:.:.:.:.:.:.:.:.:.:.:.",
":.:.:.:.:.:.:.:.:.:.:.:.:.:.:.:.:.:.:.:.:.:.:.:.:.:.:.:.:.:.:.:.:.:.:.:.:.:.:.:.:.:.:.:.:.:.:.:.:.:.",
":.:.:.:.:.:.:.:.:.:.:.:.:.:.:.:.:.:.:.:.:.:.:.:.:.:.:.:.:.:.:.:.:.:.:.:.:.:.:.:.:.:.:.:.:.:.:.:.:.:."
};
