/* XPM */
static char *result[] = {
/* columns rows colors chars-per-pixel */
"50 50 188 2 ",
"   c #000000",
".  c #080708",
"X  c #0C0C0C",
"o  c #161616",
"O  c #1D1D1D",
"+  c #23150D",
"@  c #241B0D",
"#  c #28280E",
"$  c #2E3D0C",
"%  c #2C2F10",
"&  c #2D3511",
"*  c #323F13",
"=  c #252525",
"-  c #2C2C2C",
";  c #333333",
":  c #3B3B3B",
">  c #285E00",
",  c #36520B",
"<  c #3A550E",
"1  c #3B5D0A",
"2  c #344213",
"3  c #394E13",
"4  c #3B5015",
"5  c #2F6401",
"6  c #356B01",
"7  c #396C02",
"8  c #366B0D",
"9  c #3D7302",
"0  c #3F720D",
"q  c #3B6C12",
"w  c #3E7011",
"e  c #3D6924",
"r  c #42591B",
"t  c #40600F",
"y  c #44690E",
"u  c #417702",
"i  c #457801",
"p  c #497F01",
"a  c #44780C",
"s  c #467B0D",
"d  c #436413",
"f  c #476816",
"g  c #4A6B1B",
"h  c #467716",
"j  c #4E7617",
"k  c #477914",
"l  c #4B7D13",
"z  c #45741A",
"x  c #4B761C",
"c  c #4C7B1D",
"v  c #507F1D",
"b  c #44543C",
"n  c #475B39",
"m  c #4A5D3A",
"M  c #447522",
"N  c #457627",
"B  c #4A7720",
"V  c #4C7C23",
"C  c #4D7C29",
"Z  c #517D22",
"A  c #567925",
"S  c #4D613C",
"D  c #51683B",
"F  c #434343",
"G  c #4A4A4A",
"H  c #646464",
"J  c #6D6C6C",
"K  c #6F7C63",
"L  c #757575",
"P  c #7B7B7B",
"I  c #4D8201",
"U  c #4E820D",
"Y  c #508605",
"T  c #528806",
"R  c #52860D",
"E  c #568C0C",
"W  c #588E0D",
"Q  c #5B910F",
"!  c #4E8214",
"~  c #4F801B",
"^  c #528614",
"/  c #568A12",
"(  c #598C16",
")  c #54851D",
"_  c #58861C",
"`  c #56881B",
"'  c #5B8C1C",
"]  c #5E9413",
"[  c #5E911D",
"{  c #629817",
"}  c #62951C",
"|  c #669B1B",
" . c #699E1E",
".. c #4F8021",
"X. c #4F8128",
"o. c #548323",
"O. c #598623",
"+. c #568822",
"@. c #5C8C22",
"#. c #558329",
"$. c #5A852B",
"%. c #5C8B29",
"&. c #5F9122",
"*. c #5D9029",
"=. c #608E25",
"-. c #628F29",
";. c #629424",
":. c #669825",
">. c #699C25",
",. c #64932A",
"<. c #69972C",
"1. c #679829",
"2. c #6A9D2A",
"3. c #649131",
"4. c #699533",
"5. c #6D9B33",
"6. c #719E36",
"7. c #739F3B",
"8. c #6EA325",
"9. c #6EA12C",
"0. c #71A32E",
"q. c #73A928",
"w. c #75AB2B",
"e. c #7AB12E",
"r. c #73A433",
"t. c #76A932",
"y. c #79AC35",
"u. c #76A33C",
"i. c #7BAD3A",
"p. c #7CB330",
"a. c #7EB13B",
"s. c #7AA741",
"d. c #7D8B6D",
"f. c #7C9762",
"g. c #7EA060",
"h. c #81B836",
"j. c #81B43D",
"k. c #85BA3F",
"l. c #84B543",
"z. c #88BD42",
"x. c #88BA44",
"c. c #8B9E77",
"v. c #8BA575",
"b. c #8DA67C",
"n. c #8CC046",
"m. c #838382",
"M. c #8E8D8D",
"N. c #929888",
"B. c #949494",
"V. c #9C9C9C",
"C. c #96AB84",
"Z. c #96A28E",
"A. c #9AAE8D",
"S. c #9DB48A",
"D. c #9DA394",
"F. c #9BA795",
"G. c #9BAD90",
"H. c #9FB190",
"J. c #A0A498",
"K. c #A1AC98",
"L. c #A2B693",
"P. c #A3BA91",
"I. c #A3B398",
"U. c #A7BA98",
"Y. c #AABC99",
"T. c #A4A3A2",
"R. c #ADACAC",
"E. c #B4B3B3",
"W. c #B9B6B4",
"Q. c #BBB8B6",
"!. c #BDBCBB",
"~. c #ADC699",
"^. c #B1CB9A",
"/. c #BACAAF",
"(. c #C4C3C2",
"). c #CAC8C7",
"_. c #CCCBCB",
"`. c #D0CFCE",
"'. c #D2D0CF",
"]. c #D5D4D4",
"[. c #DDDCDC",
"{. c #E1DFDF",
"}. c #DCE2D9",
"|. c #E7E6E6",
" X c #EBEBEB",
".X c #EEF1ED",
"XX c #F5F6F4",
"oX c #FEFEFE",
/* pixels */
"t.,.O.2.@.;.;.4.z.<.1.:.%.>.' ) N @.;.:.1.2.;.1.x r ;.=._ -.O.;.>.2.9.2.%.N 1.y.<.2.j.@.&.:.>.t.&.&.",
"#.1.>.-.E @.9.a.<.q z =.] @.' ^ $.E ' @.E -./ 3 + + r =./ -.E @.@.E *./ ` O.W 5.0.>.1.E @.' U O.R ` ",
"5 ) [ I :.R / :.I ;.' Y 1.I _ +.I l.[ / ;.i 2 + + + + 2 _ E 1.R ! B I &.( Y :.| O.c I :.R ( [ 7 &.( ",
";.&.' 2.@.i.i.@.9.@.} ;.@.o.o._ 2.2.1.;.x & + + + + + + # O.@.2.,.c 2.@.@.:.@.:.O.z %.O.&.&.) 2.' &.",
"4.;.( 6.E ;.;.E -./ ) =.W o._ / -.R @.f @ + + + + + + + + + y ;.*.U %.E ' @.E 7.1./ %.E ' ) 8 -.E &.",
" .t.t.| 1.R / ;.p M k / x.s _ [ I V , + + + + + + + + + + + + < ^ %.I V l I 2.w.9.' I :.R / } I &.} ",
";.:.;.2.o.B B @.2.v M V r.>.=.' 1.* + + + + + + + + + + + + + + 2 $.#.B %.2.=.:.@.' 9.%.l.i.@.2.&.,.",
"@.' / -.0 V ) U -./ =.4.W -.' l & + + + + + + + + + + + + + + + + * A / ` @.] #.) ! %.E ;.:.W 6. .:.",
"p ' ' I ;.R ^ ;.p ' >. .<.T j # + + + + + + + + + + + + + + + + + + @ j ^ 9 $.9 _ ' 9 <./ ( >.| &.^ ",
";.=._ >.@.;.;._ 2.@.:.0.=.g + + + + + + + + + + + + + + + + + + + + + + d ;.#.N V ' 2.;.;.&.` 2._ @.",
"O.' / ,.E @.' E -./ ' ;.< + + + + + + + + + + + + + + + + + + + + + + + + 4 [ Z ) / *.E 5.<.E 5.W <.",
"I ' ' I r./ / ;.I ;.) $ + + + + + + + + + + + + + + + + + + + + + + + + + + * 7 c ~ I 1.8.8.| Q ..&.",
";.&.' 2.5.:.;.@.2.x % + + + + + + + + + + + + + + + + + + + + + + + + + + + + % v @.r.,.X.o.%.%.V &.",
"@.' / ,.p.<.' E g @ + + + + + + + + + + + + + + + + + + + + + + + + + + + + + + + t 1.8.,.&.| @./ ' ",
"I [ [ I 2./ ' g + + + + + + + + + + + + + + + + + + + + + + + + + + + + + + + + + + , #.U / ;.I &.( ",
"&.@.' 2.@.@.3 + + + + + + + + + + + + + + + + + + + + + + + + + + + + + + + + + + + + 2 @.;.1.t.1.;.",
"@.' / $.p & + + + + + + + + + + + + + + + + + + + + + + + + + + + + + + + + + + + + + + & =.w.$.8.>.",
"p ' _ 7 A d q g f f q K T.T.T.T.T.T.T.T.T.T.T.T.T.T.T.T.T.T.T.T.T.T.T.T.T.T.d.1 d f 1 g 1 t [ 6 &.( ",
";.=.' 2.5.9.:.@.2.' @.P.|.|.|.|.|.|.|.|.|.|. X|.|.|.|.|.|.|.|.|.|.|.|.|.|.|.~.j.2.;.a.@.&.;.' 2.) @.",
"@.( W -.E @.@.R $./ ) G.|.|.|.|.|.|.|.|.|.|.|.|.|.|.|.|.|.|.|.|.|.|.|.|.|.|.~.<.' ' u.U O.' E ;.8 z ",
"p ) c I ;.R / ;.7 M q Z.|.|.|. X|.|.|.|.|.|.|.|.|.|.|.|.|.|.|.|.|.|.|.|.|.|.Y.I ' >. .2.R / ;.I ..! ",
"i.<.) 2.@.V V ' 2.$.%.L.|.|.|.|.|.|.|.|.|.|.|.|.|.|.|. X|.|.|.|.|.|.|.|.|.|.I.;.%.;.t.@.2.2.[ x.O.@.",
"%.[ / -.E @.O.R -.w.9.G.|.|.|.|.|.|.|.|.|.|.|.|.|.|.|.|.|.|.|.|. X|.|.|.|.|.L.,.} ' -.W =.[ E 2./ ' ",
"I ~ c I O.U ' 9.I } ' A.|.|.|.|.|.|.|.|.|.|.|.|.|.|.|.|.|.|.|.|.|.|.|.|.|.|.Y.E } ' u i.' ( ;.u [ ( ",
">.o.c 2.o.@.:.;.t.&.o.G.|.|.|.|.|.|.|.|.|.|.|.|.|.|.|.|.|.|.|.|.|.|.|.|.|.|.K.V ..@.2.9.>.&._ #.` +.",
"6.o.h 6.E ' @.E u.' _ A.|.|.|.|.|.|.|.|.|.[._.W.W.W.W.).{.|.|.|.|.|.|.|.|.|.F.e ~ / *.E @.' R @./ ` ",
" .>.;.{ :.R ^ 2. .:./ A.|.|.|.|.|.|.|.(.P O             o L (.|.|.|.|.|.|.|.Y.> _ ;.I ;.R 2.j.I i.1.",
";.@.` *.@.@.@.@.1._ V F.|.|.|.|.|.[.m.                        P [.|.|.|.|.|.I.:.;.@.9.O.+.,.y.2.9.>.",
"O.' / =.E @.' E -.! ) A.|.|.|.|.|.J                             H {.|.|.|.|.L.=.' / 4.E @.2.e.s.] ~ ",
"p 2.r.I :.R ! V I i.2.A.|.|.|. XV.                                B.|.|.|.|.U.Y t.i.] :.R ! %.e.,.h ",
"o.O.6.n.=.;.@.Z r.0.2.L.|.|.|.].o                                 X ].|.|.|.Y.;.2.1.N 3.;.@.~ 9.` @.",
"@.z q 2.E @.' E ,./ ' H.|.|. XT.                                    V.|.|.|.^.$.) / %.e.2.' E *.E ' ",
"I ' ' I ;.R / ;.I r.2.A.|.|.|.J                                     H |.|.|.F.5 ) &.I %.U ( &.I ;./ ",
";.+.) 2.@.;.;.@.2.2.>.S.|.|.|.= F !.:         O o         V.H       X {.|.|.I.#...) 2.V &.&.&.k.;.&.",
";.z q ,.E Z ) E -./ ' H.|.|.[.  P oX|.[._.(.R.[.(.      G .X_.;       ].|.|.I.O.c w ,.a +.' W t.] ' ",
"I ' ' I ;.0 q o.p :.' A.|.|.].  P _.m.V.R.Q._.oXE.        = D.[.H     ].|. XH.I ~ ~ I ;.R 2.j.] ;.[ ",
";.&.' 2.@.&.@.V 2.@.;.L.|.|.].                M.H             J {._.O `.|.|.H.6.%.o.2.5.;.1.2.%.&.i.",
"4.;.' s.E o.) E V ^ ;.P.|.|.[.                                  B.T.  ].|.|.L.,.~ k ,.h.,.) E ,.8.9.",
">.t.y.q.:.a h ;.> @.>.P.|.|.|.o X . . . X X . . . . . X . . . . . X . [.|.|.U.I ' ' I a.c O.a.E 9.[ ",
"M +.>.2.@.:.:.O.2.@.;.S.|.|.|.F X o X o X X X o X o X X o X X o X X ; |.|.|.I.%.o.) 2.2.:.1.2.X.' ;.",
"Z ' / =.W @.' E -./ ' H.|.|.|.L o o o o o o o o o o o o o o o o o o H |.|.|.P.#.z q -.E ,.;.E O./ ' ",
"T ' ' Y :.R / ;.I } ( A.|.|.|.V.O O O O O O O O O O = O O = O O O = B.|.|.|.U.9 ` [ I :.} } ;.I ~ l ",
";.=.' 2.@.i.i.@.2.@.@.S.{.{.{.Q.= = = = = = = = = = = = L R.- = = = R.[.[.[.L.O.o.c N +.2.1.+.k.#.+.",
"O.` ' u.W ,.:.E -./ ' C.].].]._.- - - - - - - - - - - - ].oXm.- - - (.'.`.`.S.=.z w $.E @.) 8 %.8 c ",
"6 c >.8.>.R l B p ;.( b.).).).).H ; ; ; ; ; ; ; ; : M.{.oXoX X; ; G ).(.(.(.C.I ' @.I ;.R ( &.> @./ ",
"x.t.' 2.@.0.6.x 2.=.,.v.!.!.!.!.M.: : : : : : F V.|.oX|.B.V.m.: : c.W.W.W.Q.c.:.,.;.2.@.&.&.' 2._ r.",
":.[ ^ #.E =.[ E -.| ;.f.J.J.J.D.N.n n S D.{.E. XoX}.Z.S n b D m m c.V.V.D.D.g.&.8.8.,.E @.' E &.a +.",
"p ) c 5 ,.R / ;.I ;.( T <.p ' ' I ;.R ^ /.oXoX}.b.1.{ ;._ 5 x.;._ ;.p v l R i.I ;.1.I 1.R / ;.I &./ ",
"i.6.O.2.=.9.2.o.2.@.&.:.%.>.@.' 2.@.;.@.o..XXX,.:.%.>.;.@.2.r.>.=.' <.v =.} <.:.;.[ 2.@.;.;.' 2.,.,.",
":.>.>.-.{ 6.,.0 %./ ' =.E @.' / ;.E 5.4.s v.v._ o.E @.[ ( C E @.@.E =./ _ =.W O._ / -.E ' ' R C w.:."
};
