/* XPM */
static char *result[] = {
/* columns rows colors chars-per-pixel */
"50 50 203 2 ",
"   c #000000",
".  c #0D0000",
"X  c #0C0C0C",
"o  c #1C0100",
"O  c gray7",
"+  c #1C1C1C",
"@  c #2B0500",
"#  c #370500",
"$  c #242424",
"%  c gray17",
"&  c #353535",
"*  c #333930",
"=  c #3C3C3B",
"-  c #4B0C00",
";  c #6D1E00",
":  c #5D3006",
">  c #633507",
",  c #423F3F",
"<  c #194100",
"1  c #255A00",
"2  c #295E01",
"3  c #375D07",
"4  c #334B1D",
"5  c #2F531B",
"6  c #3B5B14",
"7  c #34521C",
"8  c #39591A",
"9  c #2E6301",
"0  c #326502",
"q  c #3B6305",
"w  c #356A01",
"e  c #3C6C01",
"r  c #35620E",
"t  c #3D640A",
"y  c #356A0D",
"u  c #396F0C",
"i  c #3E740C",
"p  c #3C6314",
"a  c #3B6D11",
"s  c #3D641C",
"d  c #3E7011",
"f  c #374A29",
"g  c #3A5323",
"h  c #3C4C33",
"j  c #3C4439",
"k  c #426C09",
"l  c #427402",
"z  c #457901",
"x  c #497E01",
"c  c #44750B",
"v  c #48760A",
"b  c #467C0D",
"n  c #4B7C0C",
"m  c #446817",
"M  c #446A1C",
"N  c #457616",
"B  c #4A7315",
"V  c #477914",
"C  c #4B7D12",
"Z  c #46751A",
"A  c #4B751D",
"S  c #4C7B1C",
"D  c #517D1E",
"F  c #6F721A",
"G  c #465E22",
"H  c #405A2A",
"J  c #424C3A",
"K  c #425432",
"L  c #47583C",
"P  c #496D2A",
"I  c #457422",
"U  c #487524",
"Y  c #4D7C23",
"T  c #457529",
"R  c #4B7A29",
"E  c #517127",
"W  c #527C23",
"Q  c #4C6938",
"!  c #526A3D",
"~  c #4E7231",
"^  c #796325",
"/  c #454545",
"(  c #464B44",
")  c #484C46",
"_  c #4C4C4C",
"`  c #4D5647",
"'  c #515E47",
"]  c #51544E",
"[  c #555E4F",
"{  c #535353",
"}  c #575956",
"|  c #595C57",
" . c #5B5B5A",
".. c #556948",
"X. c #5C7943",
"o. c #5A6156",
"O. c #5C6C53",
"+. c #5E625D",
"@. c #5F7152",
"#. c #607C47",
"$. c #60635E",
"%. c #627654",
"&. c #646463",
"*. c #6B6C6A",
"=. c #6A7066",
"-. c #747474",
";. c #7C7C7C",
":. c #8F3600",
">. c #9C4603",
",. c #80500A",
"<. c #AB5F0A",
"1. c #947D0D",
"2. c #B16508",
"3. c #AE6712",
"4. c #4D8201",
"5. c #4F830D",
"6. c #508505",
"7. c #528806",
"8. c #52860D",
"9. c #568C0C",
"0. c #588E0D",
"q. c #5B910F",
"w. c #4E8115",
"e. c #4E801A",
"r. c #528612",
"t. c #588716",
"y. c #568A12",
"u. c #598C15",
"i. c #54841D",
"p. c #56891B",
"a. c #5B8C1C",
"s. c #5D9314",
"d. c #5E911D",
"f. c #609615",
"g. c #629817",
"h. c #61951C",
"j. c #659A1C",
"k. c #699E1F",
"l. c #4F8020",
"z. c #4F8128",
"x. c #548322",
"c. c #598623",
"v. c #578822",
"b. c #5C8B22",
"n. c #538229",
"m. c #5A852A",
"M. c #5C8A29",
"N. c #5F9122",
"B. c #5D9029",
"V. c #608F25",
"C. c #628F29",
"Z. c #738A27",
"A. c #629424",
"S. c #669825",
"D. c #699C25",
"F. c #64932A",
"G. c #68962D",
"H. c #679929",
"J. c #6A9D2A",
"K. c #648935",
"L. c #679333",
"P. c #699634",
"I. c #6E9B34",
"U. c #6E973A",
"Y. c #719E36",
"T. c #6DA223",
"R. c #6EA12C",
"E. c #71A725",
"W. c #71A32F",
"Q. c #74AA2A",
"!. c #78AE2C",
"~. c #79B02D",
"^. c #6FA030",
"/. c #72A333",
"(. c #76A932",
"). c #7AAD34",
"_. c #75A43B",
"`. c #7BAD3A",
"'. c #7EB532",
"]. c #7EB03B",
"[. c #7AA541",
"{. c #7CA942",
"}. c #BB833D",
"|. c #82B936",
" X c #81B33D",
".X c #85B93F",
"XX c #D18C0E",
"oX c #CE841D",
"OX c #DE9C12",
"+X c #E09A21",
"@X c #E9A030",
"#X c #F6A533",
"$X c #F0AF3D",
"%X c #E5BD32",
"&X c #F3B037",
"*X c #84B543",
"=X c #88BD42",
"-X c #88BA44",
";X c #C99F51",
":X c #E6A247",
">X c #8CC046",
",X c #91C54B",
"<X c #FDEB70",
/* pixels */
"(.F.x.J.b.A.A.L.=XJ.F.A.M.S.N.l.T b.S.S.H.J.A.J.R.b.S.N.v.M.v.A.S.J.J.J.M.U A.`.J.H. Xb.N.S.S.(.a.N.",
"m.H.D.F.9.b./.|.G.a Z A.s.V.t.y.m.9.a.b.9.M.u.t.b.0.I.N.y.F.9.b.a.9.F.y.a.v.0.Y.W.D.H.0.b.a.7.M.8.p.",
"9 e.d.4.S.8.r.S.4.A.u.6.S.4.p.p.4.*Xd.y.A.4.N.t.z H.T.D.h.9.H.8.C U 4.N.p.6.H.j.b.S 4.S.8.u.d.e N.u.",
"A.N.a.J.b.`.`.b.R.a.A.S.b.n.x.i.J.J.S.A.a.J.b.A.R.U.A.N.a.J.b.J.H.( V.b.a.S.b.S.c.U v.c.A.b.i.J.a.N.",
"P.A.u.Y.9.A.A.9.F.r.i.b.9.x.i.y.C.8.b.a.9.C.y.b.^.|.H.a.r.n.9.A.b.&.} O.O.g H E v.y.C.9.b.D y V.y.N.",
"k.(.(.g.S.8.r.A.4.U N u.-Xn p.d.4.n.n r.A.4.(.J.9./.4./._.w S.y.t.O.$   O  .;. .{ 6 x S.8.r.h.6.N.h.",
"A.S.S.J.x.U Y c.J.S I Y /.J.N.a.H.Y b.A.i.R M.H.J.V.S.J.).,Xb.A.F.4 }       +._ + } K i.*X Xa.J.A.A.",
"b.a.y.C.i D i.5.C.y.C.L.0.V.a.y.F.5.F.A.9.m.a S V.0.b.a.t./.9.G.C.} &.)       j @ . ) 7 A.A.0.Y.k.A.",
"x t.a.4.A.8.t.A.x V.A.k.G.7.a.a.4.Y a.h.A.4.V.u.6.H.6.a.h.9.S.j.6 } $ &.%   o >.oX:.@ } g 3 A u.i.r.",
"A.V.a.J.b.h.V.a.J.a.H.Q.V.S.b.b.(.I b.A.C.J.a.d.S.P.S.V.V.J.b.c.` +         - XX<XOX> X , } &.O   a.",
"c.t.y.C.0.b.a.9.C.9.a.V.0.C.S a W y x.S.k.F.u.a.H.|.A.D.D.M.9.i.{           # 2.%XXX,.      & &   F.",
"4.B B l W.t.y.A.4.A.a.6.H.9.a.i.9 /.u.y.A.4.`.J.6.G.6.^./.z ^.r.}             : ; >           = } N.",
"A.6 ) &.J i.V.b.J.c.b.A.b.J.A.a.J.F.R.J.a.J.J.H.S.x.(./.H.G.A.V.}                   . 3.<.3.3.}.^ M.",
"c.a.k _ &.} 7 n V.a S V.9.G.d.d.[.y.G.F.8.C.V D v.5.b.t.8.U 3 ) {                   # @X#X#X#X&XZ.a.",
"4.a.d.l ( { { { h 8 N 4.G.s.S.D.Q.H.h.j.A.4.A.u.4.F.z 6 h } } %                   & ] ;X:X$X+X1.s.t.",
"A.N.a.J.i.8 $.+ / } ] 8 M A S i.H.b.H.H.c.A.S m s ` { { /                         +.G g G F Z.(.A.A.",
"b.a.r.m.9.a.6 } )     {  . ._ _ ] } +.o.] _ { } { &                               _ W 9.b.H.!.m.T.D.",
"4.a.a.e `.a.y.c.J )                                                               _ e S.r.y.h.w N.t.",
"N.N.a.J.J.H.S.b.W }                                                               ] L.b.N.N.a.J.x.b.",
"b.a.y.C.0.a.b.9.W {                                                               ) K.8.a.a.9.A.y S ",
"4.e.e.4.S.8.y.b.w {                                                                .h.S.8.u.A.4.e.e.",
"`.G.x.H.b.Y Y a.A.{                                                             = J /.b.R.G.d.=Xv.b.",
"b.d.y.B.0.c.i.8.W {                                                             } k M.9.V.d.9.G.9.a.",
"4.e.e.4.v.8.u.Y.e _                                                           / J i.l *Xd.y.h.l N.u.",
"A.n.S J.x.N.A.A.c._                                                         % _ M a.R.J.S.A.i.n.i.v.",
"/.n.N I.9.b.b.9.E {                                                       / ) 5 e.r.F.9.b.a.9.v.9.i.",
"k.D.h.h.H.5.y.J.m {                                                   & &.| i.2 i.A.4.S.8.J. X4.`.H.",
"A.N.p.B.b.N.b.b.L )                                               & &.*.& | b.S.A.a.H.b.x.G.`.J.R.D.",
"c.a.y.M.9.b.b.8.{ $           { -.-.-.-.-.-.{ / , ) ) )  . .      } }     [ 0.b.a.y.P.9.b.J.'.{.u.i.",
"4.J.W.4.A.8.5.s {             *.+            ...l s q p p (       { )     / S.6.(.`.s.S.8.w.b.~.S.N ",
"x.v.R.>Xb.A.b.4 {           { ]           X  .D A.R A.b.x...$     / | X   * L.H.J.G.R L.A.b.e.J.p.b.",
"c.Z a I.9.a.D |           = *.X   X       ] 7 Z V.0.b.a.w.g {       } .   _ ).v.i.8.M.!.J.a.9.B.9.a.",
"4.a.b.4.H.8.f _         $ ) &.          _ L Y w.4.H.4.a.l.< /       *.    } P 0 i.b.4.M.5.u.d.4.h.y.",
"A.b.i.J.b.p  .        $ _ A O.  X   X / ' H.e.I.].b.H.F.m.s {       -.    { M v.x.p.J.Y N.A.N..XA.N.",
"A.N a F.v { +       $  .t b.o.      { ! 8.W r.a.F.0.b.(.].K.{       &.    ] C c.N d F.i i.a.9./.q.N.",
"4.a.a.4.g _       % } 3 H.x  .    _ M y.A.w /.H.6.G.4.e.x.s.|       ) =   _ Q 4.e.x.4.A.8.J. Xg.A.d.",
"N.N.a.H.}       % / B S.c.X.=     o.A.A.a.J.S.`..Xn.N.n.S J.' $     { )   X %.J.b.i.J.U.A.J.J.M.B.`.",
"L.F.a.U.}       } t A.I.0.|     % ..i.i.9.F.y.a.A.u U.A.y.F.3 {     { j     O.V.e.V F.|.G.e.9.F.T.R.",
"k.(.).A.{     = j x.S.k.N.} .   { i.v V A.x A.u.4.H.E.D.d.4.s {     + $.     .x a.a.4.].S M.].9.R.s.",
"I m.S.x./     { W a.N.S.W _   X | b.A.A.b.J.b.J.].v.n.M.x.T M }       *.X   ) ..@.P A.J.S.H.J.z.b.A.",
"x.t.y.W {     +.{ =.K A n &     $.~ x.a.9.C.y.d.H.9.x.J.T.c.9.] $     } _ = X ) O ] } n F.A.9.M.9.a.",
"8.a.a.z {           / ] A {   .   / { w.A.4.N.u.4.m.4.i.x.4.A.m {     $ } { *.&     % %.f.h.A.4.l.w.",
"A.b.b.J.` ,           { g %.O     . / K.a.J.b.N.A.n.H.b.i.J.b.D }           $ &.{  .{ ! J.H.p.=Xn.x.",
"x.p.d._.k _ $         { k W o.{ = = / #.9.[.a.t.b.9.b.t.r.R 9.b.h _           { p r n.9.b.i.y m.y S ",
"w i.H.T.S.q _ _ } } ) } K.9.t.b.n V.v n H.Q.M.C 6.H.4.a.i.1 A.8.C J | ] { { { h a.b.4.A.8.u.b.9 a.y.",
"=X/.a.J.b.W.G.m W A W A./.F.v.i.J.b.A.V.b.J.x.b.S.b.=X/.i.n.C.F.A.i.S.c.Y U c.S.F.N.J.b.N.N.a.H.v.W.",
"H.d.r.n.0.V.d.0.C.k.A.b.9.x.Z a C.9.a.A.f.V.9.i.b.0./.H.r.R E.H.a.0.C.u.a.b.j.B.T.T.F.9.b.d.9.N.c v.",
"4.i.S 9 A.8.t.A.x A.u.8.J.4.p.a.x A.8.y.A.4.A.u.6.J.g.A.i.0 -Xh.y.A.x x.e.7.`.4.A.H.4.H.8.u.N.4.N.u.",
"`.I.v.J.V.R.J.x.J.b.b.S.b.S.b.b.R.b.A.N.x.n.i.b.S.b.S.A.b.J.W.H.A.a.G.i.c.S.H.S.A.A.J.b.A.N.a.J.G.F.",
"A.T.D.C.g.Y.L.u A.y.a.V.0.b.t.y.A.9.I.L.b M.y.p.x.0.b.A.u.R 0.b.a.9.C.r.t.V.0.x.p.y.C.9.a.a.8.Y Q.H."
};
