/* XPM */
static char *result[] = {
/* columns rows colors chars-per-pixel */
"50 50 195 2 ",
"   c #000000",
".  c #0C0C0C",
"X  c #110000",
"o  c #1A0000",
"O  c gray7",
"+  c #1C1C1C",
"@  c #2C0000",
"#  c #242424",
"$  c gray17",
"%  c #353535",
"&  c #333930",
"*  c #3C3C3B",
"=  c #4E0000",
"-  c #510000",
";  c #750101",
":  c #7E0101",
">  c #194100",
",  c #255A00",
"<  c #295E01",
"1  c #365E01",
"2  c #385D0B",
"3  c #334B1D",
"4  c #2F531B",
"5  c #3B5B14",
"6  c #34521D",
"7  c #3A551D",
"8  c #385C18",
"9  c #2E6301",
"0  c #326502",
"q  c #3B6305",
"w  c #356A01",
"e  c #3C6C01",
"r  c #35620E",
"t  c #3D640A",
"y  c #356A0D",
"u  c #396F0C",
"i  c #3E740C",
"p  c #3C6314",
"a  c #3B6D11",
"s  c #3D641C",
"d  c #3E7011",
"f  c #354926",
"g  c #3A5323",
"h  c #3C4C33",
"j  c #3B4239",
"k  c #3F4839",
"l  c #416F01",
"z  c #40670E",
"x  c #436E0A",
"c  c #427402",
"v  c #457901",
"b  c #497E01",
"n  c #45750B",
"m  c #48760A",
"M  c #467C0D",
"N  c #4B7C0C",
"B  c #416414",
"V  c #486E17",
"C  c #406119",
"Z  c #446A1C",
"A  c #486E18",
"S  c #457616",
"D  c #4A7315",
"F  c #477914",
"G  c #4B7D12",
"H  c #46751A",
"J  c #4B751D",
"K  c #4C7B1C",
"L  c #517D1E",
"P  c #415E23",
"I  c #405A2A",
"U  c #424C3A",
"Y  c #425433",
"T  c #46553D",
"R  c #4B5F3B",
"E  c #496D2A",
"W  c #457422",
"Q  c #487225",
"!  c #477822",
"~  c #4D7C23",
"^  c #457529",
"/  c #4B7A29",
"(  c #527C23",
")  c #517128",
"_  c #4C6938",
"`  c #526A3D",
"'  c #4E7231",
"]  c #454545",
"[  c #464A45",
"{  c #484C46",
"}  c #4C4C4C",
"|  c #4A5444",
" . c #4E534C",
".. c #515E47",
"X. c #51544E",
"o. c #555E4F",
"O. c #535353",
"+. c #575956",
"@. c #595C57",
"#. c #5B5B5B",
"$. c #556948",
"%. c #5A6156",
"&. c #5C6C53",
"*. c #5E625D",
"=. c #5F7152",
"-. c #607C47",
";. c #60635E",
":. c #637456",
">. c #607950",
",. c #646463",
"<. c #6B6C6A",
"1. c #6A7066",
"2. c #747474",
"3. c #7C7C7C",
"4. c #890202",
"5. c #920202",
"6. c #4D8201",
"7. c #4F830D",
"8. c #508505",
"9. c #528806",
"0. c #52860D",
"q. c #568C0C",
"w. c #588E0D",
"e. c #5B910F",
"r. c #4E8115",
"t. c #4E801A",
"y. c #528612",
"u. c #588716",
"i. c #568A12",
"p. c #598C15",
"a. c #54841D",
"s. c #56891B",
"d. c #5B8C1C",
"f. c #5D9314",
"g. c #5E911D",
"h. c #609615",
"j. c #629817",
"k. c #61951C",
"l. c #659A1C",
"z. c #699E1F",
"x. c #4F8020",
"c. c #4F8128",
"v. c #548322",
"b. c #598623",
"n. c #578822",
"m. c #5C8B22",
"M. c #538229",
"N. c #5A852A",
"B. c #5C8A29",
"V. c #5F9122",
"C. c #5D9029",
"Z. c #608F25",
"A. c #628F29",
"S. c #629424",
"D. c #669825",
"F. c #699C25",
"G. c #64932A",
"H. c #68962D",
"J. c #679929",
"K. c #6A9D2A",
"L. c #608631",
"P. c #668C33",
"I. c #63863D",
"U. c #649131",
"Y. c #699634",
"T. c #6E9B34",
"R. c #6E973A",
"E. c #6C9838",
"W. c #719E36",
"Q. c #6DA223",
"!. c #6EA12C",
"~. c #71A725",
"^. c #71A32F",
"/. c #74AA2A",
"(. c #78AE2C",
"). c #79B02D",
"_. c #6FA030",
"`. c #72A333",
"'. c #76A932",
"]. c #7AAD34",
"[. c #75A43B",
"{. c #7BAD3A",
"}. c #7EB532",
"|. c #7EB03B",
" X c #7AA541",
".X c #7CA942",
"XX c #80B735",
"oX c #83BA36",
"OX c #81B33D",
"+X c #85B93F",
"@X c #84B543",
"#X c #88BD42",
"$X c #88BA44",
"%X c #8CC046",
"&X c #91C54B",
/* pixels */
"'.G.v.K.m.S.S.Y.#XK.G.D.B.J.C.a.^ m.S.J.D.K.S.J.^.m.J.m.s.C.b.S.D.!.K.K.B.! G.].T.J.OXm.V.J.D.'.d.V.",
"N.J.F.G.q.m.`.}.H.a S Z.f.m.u.i.N.q.d.d.q.G.i.s.m.w.T.S.i.G.w.b.d.q.G.i.a.b.w.W.!.z.J.w.m.d.0.m.0.d.",
"9 t.g.6.D.0.i.D.6.S.p.8.D.6.s.a.6.@Xk.i.S.6.S.y.v J.Q.F.k.9.J.0.G W 6.S.p.6.J.j.n.K 6.D.0.i.V.e V.i.",
"S.V.d.K.b.|.{.b.!.m.S.S.m.v.v.n.K.H.D.S.s.!.b.S.K.R.J.d.m.K.m.!.G.[ S.b.V.D.m.D.n.J N.m.V.V.a.K.d.V.",
"Y.S.p.W.q.D.S.q.G.y.s.Z.q.v.s.i.G.0.b.d.q.G.i.m.K.oXG.u.y.v.q.S.m.#.#.&.=.g I ) b.i.A.q.d.L y Z.w.V.",
"F.'.'.j.J.0.i.S.6.W S i.$XN s.d.6.~ N i.S.6.'.!.w.`.8.'.[.w G.i.i.&.#   O #.3.#.O.5 b D.0.i.k.8.V.g.",
"k.J.D.K.v.W ! s.J.L W / '.J.V.d.K.~ m.S.n.^ m.J.K.Z.J.K.].&XC.S.G.6 O.      #.O.+ +.Y b.@X{.d.K.C.J.",
"m.d.i.A.i ( a.0.A.i.Z.Y.w.Z.g.i.G.7.G.S.q.N.a J Z.w.m.d.p.`.w.G.G.#.,.]       } X X +.6 S.D.i.`.F.k.",
"b u.d.6.D.0.i.S.b S.D.z.H.9.d.g.6.~ p.k.S.6.S.s.8.J.8.p.k.w.D.l.5 +.# ,.$     = 4.: @ #.g 2 J i.a.y.",
"S.Z.d.K.b.S.Z.d.J.b.J.~.Z.D.m.b.'.W m.G.A.J.d.S.D.Y.D.G.Z.J.m.b. .+           ; 5.5.- . * O.,.O   d.",
"b.p.i.A.q.d.d.q.A.i.d.S.w.A.K a ( y ( D.Q.S.i.p.J.XXG.D.F.B.q.a.O.            - 4.4.@       * %   G.",
"6.D V c `.i.i.S.6.D.d.6.J.q.d.a.9 `.p.i.D.b {.K.8.H.6.^.'.v T.i.O.              o X           * O.S.",
"S.5 } ,.Y b.k.b.K.n.m.J.m.K.C.d.K.J.!.K.a.K.K.G.D.b.'.`.D.K.S.m.O.                            } f C.",
"b.p.x } ,.O.7 N A.u H S.q.H.S.p. Xi.H.G.0.A.G a.b.M Z.p.y.Q 1 { O.                          + O.m p.",
"6.p.V.l [ } O.O.h 8 S 6.J.f.l.F.(.J.k.k.D.6.V.u.6.G.v 5 h O.+.$                   % ] ] } } [ 1 S.p.",
"S.S.d.K.b.7 ,.+ ] O.O.7 Z J ( a.J.m.J.J.d.G.K A s | O.O.]                         #.P g P Z B.'.G.S.",
"m.d.y.N.q.d.5 O.}     O.#.#.} } X.+.*.%.X.} O.O.O.%                               } ( q.m.F.(.n.Q.D.",
"6.d.d.e {.g.i.b.h }                                                               } e D.7.i.S.w S.p.",
"V.V.d.K.G.K.J.d.L +.                                                              } Y.m.S.V.d.K.a.m.",
"b.g.i.S.q.m.m.q.( O.                                                              } P.7.b.d.q.Z.y K ",
"6.t.t.6.J.0.i.S.w O.                                                              #.k.D.0.p.k.6.~ r.",
"|.H.t.J.b.~ ~ d.G.O.                                                            * T '.m._.J.S.#Xb.m.",
"C.m.i.G.q.s.b.0.( O.                                                            O.z A.w.Z.k.q.J.q.g.",
"6.t.t.6.b.0.d.K.e }                                                           ] k a.c {.d.i.S.c V.i.",
"V.n.~ K.v.V.S.S.N.}                                                         $ } Z d.K.K.J.S.a.c.a.n.",
"[.v.S T.q.b.d.q.) }                                                       ] } 4 t.i.G.q.d.d.q.B.0.s.",
"z.J.k.j.J.7.i.K.B O.                                                  % ,.@.a.< a.V.6.D.0.K.|.6.|.J.",
"V.V.s.C.b.m.C.m.R }                                               % ,.<.% @.m.D.C.V.K.m.v.H.].K.K.F.",
"b.p.y.B.w.d.d.0.O.#           } 2.2.2.2.2.2.O.] * } ] } #.#.      +.+.    o.q.Z.p.p.Y.q.b.!.}..Xp.a.",
"6.K.^.6.D.0.r.s O.            <.+           #.$.c s q p p [       O.}     ] D.8.`.|.e.D.0.r.m.(.D.S ",
"v.B.!.%Xm.S.m.3 O.          O.X.          . #.a.S.( D.b.v.$.#     ] *.    & Y.S.K.G./ U.D.m.t.!.s.m.",
"v.H V K.q.d.L @.          * <..   .        .6 H C.i.m.d.y.6 O.      +.X   } ].B.s.i.B.).J.d.q.C.q.d.",
"6.d.V.6.D.0.f }         # { ,.    .     } | ~ t.6.J.6.d.v.> ]       <.    @.^ 9 a.d.6.m.r.i.S.6.g.i.",
"S.m.a.J.m.p #.        # } J &.        } $.C.x.K.|.m.D.G.N.s O.      2.    O.Q v.v.a.K.~ V.V.g.+XS.V.",
"G.H d C.m O.+       # #.t Z.%.    X X.` 9.c.i.g.G.w.m.'.].L.O.      ,.    O.M n.S d A.n a.g.w.`.f.g.",
"6.p.d.6.g }       $ +.2 J.v #.    } Z i.V.w _.H.6.H.6.t.n.f.@.      } *   } _ 6.a.t.6.G.0.J.OXj.S.g.",
"S.V.d.J.+.      $ ] D D.N.` U     %.S.G.d.H.D.{.#Xv.C.v.t.K...#     O.[   . =._.B.L K.Y.S.J.!.B.C.{.",
"Y.S.d.R.+.      O.t S.T.q.%.    $ $.a.s.q.A.i.d.G.y E.C.y.G.5 O.    O.j     &.B.a.M G.oXG.v.q.C.Q.Q.",
"F.'.].g.O.    * j n.D.z.G.+.X   O.L m F S.8.S.p.6.G.~.!.g.6.s }     + ;.X . @.6.p.d.6.OXH B.|.q.!.g.",
"W n.J.b.]     O.L m.V.S.( { .   @.m.S.S.d.K.d._.|.m.v.B.v.^ W O.      <.    [ $.>.E J.K.J.F.K.c.m.S.",
"v.u.i.( O.    #.O.1.Y J N *     ,.' a.g.w.A.i.d.S.w.v.!.Q.N.q.+.#     +.} * . } O X.@.N S.S.q.N.q.d.",
"0.d.d.v O.          ]  .J O.      ] X.G S.b k.u.6.N.6.a.a.6.S.t O.    # O.O.,.%     $ >.k.k.k.6.x.t.",
"S.Z.d.K.| ]           O.C :.O       ] I.m.K.Z.Z.S.v.J.b.a.J.m.a.+.          # <.O.#.O.$.K.J.b.+Xv.n.",
"v.s.d.[.x } #         O.z ( #.O.* * ] -.w.[.p.d.C.i.m.p.y./ q.b.h }           } p r ( i.m.a.y B.a H ",
"w a.D.~.D.q } O.+.O.} +.P.0.d.s.0.d.m N D./.C.r.8.J.6.p.a., S.7.G Y +.} O.O.O.h s.d.6.J.0.i.V.9 m.i.",
"$X`.d.K.m.^.H.B ( J L S.`.S.b.a.K.m.Z.S.m.K.v.b.D.m.#X`.a.N.A.G.S.b.H.b.~ ! b.D.G.G.F.b.V.V.d.J.s._.",
"H.k.y.v.q.Z.k.q.A.z.D.m.i.b.S a B.q.d.S.h.A.i.u.Z.w.[.D.y./ ~.D.d.q.A.f.d.m.j.S.Q.!.G.q.m.g.q.C.F s.",
"6.a.H 9 G.0.u.S.b Z.p.9.K.b u.m.b G.0.i.S.6.S.p.6.J.j.S.a.0 $XS.i.S.6.~ r.0.{.6.S.J.6.J.y.i.k.6.V.i.",
"{.T.b.!.m.T.!.v.K.b.V.J.m.D.m.m.!.b.V.C.a.M.n.m.J.m.S.S.m.K.`.D.S.b.K.v.b.J.D.J.S.k.K.m.S.S.d.F.H.G.",
"S.Q.F.A.j._.G.u G.i.d.m.w.m.p.i.S.w.T.Y.M m.i.a.n.w.m.k.d./ w.d.d.q.Z.i.u.Z.q.v.s.i.A.q.d.d.0./ /.J."
};
