/* XPM */
static char *result[] = {
/* columns rows colors chars-per-pixel */
"50 50 201 2 ",
"   c #000000",
".  c #0D0000",
"X  c #0C0C0C",
"o  c #1C0100",
"O  c gray7",
"+  c #1C1C1C",
"@  c #2B0500",
"#  c #370500",
"$  c #242424",
"%  c gray17",
"&  c #343534",
"*  c #3B3C3B",
"=  c #4B0C00",
"-  c #6D1E00",
";  c #402003",
":  c #5D3006",
">  c #633507",
",  c #423F3F",
"<  c #2E4B0F",
"1  c #2E5203",
"2  c #255B00",
"3  c #2A5C01",
"4  c #385E08",
"5  c #2F4C1A",
"6  c #334C1D",
"7  c #375915",
"8  c #3C5C14",
"9  c #37571B",
"0  c #2E6300",
"q  c #316504",
"w  c #3B6503",
"e  c #356A01",
"r  c #3C6C02",
"t  c #39610C",
"y  c #366B0D",
"u  c #396F0C",
"i  c #3E7302",
"p  c #3F720D",
"a  c #3D6113",
"s  c #3A6415",
"d  c #3B6D12",
"f  c #2E4820",
"g  c #394C2A",
"h  c #3B5324",
"j  c #3D4C33",
"k  c #3F433D",
"l  c #427303",
"z  c #447902",
"x  c #497D02",
"c  c #46740B",
"v  c #487509",
"b  c #467C0D",
"n  c #4B7C0C",
"m  c #456C15",
"M  c #44651A",
"N  c #426B1A",
"B  c #496D1D",
"V  c #457515",
"C  c #4A7215",
"Z  c #4B7D14",
"A  c #45741B",
"S  c #4B751C",
"D  c #4C7C1D",
"F  c #50771D",
"G  c #517D1D",
"H  c #6C6C16",
"J  c #435B2C",
"K  c #41483C",
"L  c #455538",
"P  c #476624",
"I  c #457423",
"U  c #4B7521",
"Y  c #477923",
"T  c #4D7C23",
"R  c #457629",
"E  c #4D7B29",
"W  c #527C22",
"Q  c #536F3C",
"!  c #557438",
"~  c #7C6B26",
"^  c #454545",
"/  c #474A45",
"(  c #4C4A46",
")  c #4C4C4C",
"_  c #4C5346",
"`  c #4D5A44",
"'  c #505E46",
"]  c #50534F",
"[  c #535B4E",
"{  c #535353",
"}  c #575955",
"|  c #585B56",
" . c #5B5B5B",
".. c #4D6240",
"X. c #576949",
"o. c #597643",
"O. c #5A6454",
"+. c #5D6B54",
"@. c #5E625B",
"#. c #5D7051",
"$. c #60635E",
"%. c #627256",
"&. c #657E52",
"*. c #636463",
"=. c #686B66",
"-. c #6B6C6A",
";. c #747474",
":. c #7C7C7C",
">. c #8F3600",
",. c #9C4603",
"<. c #80500A",
"1. c #AB5F0A",
"2. c #9C6318",
"3. c #B16508",
"4. c #AE6712",
"5. c #4D8201",
"6. c #4E820C",
"7. c #508505",
"8. c #52860D",
"9. c #568C0C",
"0. c #588E0D",
"q. c #4E8115",
"w. c #4E801D",
"e. c #528514",
"r. c #568A12",
"t. c #598C16",
"y. c #54841D",
"u. c #59871F",
"i. c #56881B",
"p. c #5B8C1C",
"a. c #5E9414",
"s. c #5E911D",
"d. c #619715",
"f. c #629817",
"g. c #62951D",
"h. c #659B1B",
"j. c #699E1E",
"k. c #4E8021",
"l. c #4F8128",
"z. c #548322",
"x. c #598623",
"c. c #578821",
"v. c #5C8B22",
"b. c #548329",
"n. c #5A8529",
"m. c #5C8A29",
"M. c #5F9022",
"N. c #5D9029",
"B. c #5F8B31",
"V. c #608F25",
"C. c #628E29",
"Z. c #629424",
"A. c #669825",
"S. c #699C25",
"D. c #64932A",
"F. c #69972C",
"G. c #679929",
"H. c #6A9D2A",
"J. c #769024",
"K. c #668F34",
"L. c #699633",
"P. c #689435",
"I. c #6D9B33",
"U. c #719E36",
"Y. c #6DA224",
"T. c #6EA12C",
"R. c #71A725",
"E. c #71A32F",
"W. c #74AA29",
"Q. c #75AB2A",
"!. c #6FA030",
"~. c #73A433",
"^. c #76A932",
"/. c #7AAD35",
"(. c #76A43B",
"). c #7BAC3A",
"_. c #7EB532",
"`. c #7EB13B",
"'. c #628044",
"]. c #79A440",
"[. c #7CA942",
"{. c #98841A",
"}. c #BB833D",
"|. c #82B936",
" X c #81B43D",
".X c #85B93F",
"XX c #D18C0E",
"oX c #CE841D",
"OX c #DE9C12",
"+X c #E09A21",
"@X c #F6A533",
"#X c #E5BD32",
"$X c #F3B037",
"%X c #83B442",
"&X c #86BA41",
"*X c #88BD42",
"=X c #C99F51",
"-X c #E6A247",
";X c #8CC046",
":X c #91C54B",
">X c #FDEB70",
/* pixels */
"^.D.n.S.c.Z.D.L.*XI.Z.A.v.A.M.G R v.A.A.S.G.Z.S.E.v.A.v.i.N.x.Z.A.T.G.H.m.Y G.^.H.G. Xv.Z.A.A.^.s.M.",
"n.G.S.D.9.p.~._.H.d A V.a.v.t.e.n.0.v.p.9.C.r.p.v.9.I.Z.t.C.0.c.p.9.D.r.u.c.0.I.E.S.G.9.c.p.8.x.9.i.",
"0 w.s.5.A.8.r.A.5.Z.p.7.F.5.i.u.x %Xs.r.A.x Z.e.v G.Y.S.g.9.G.8.Z T 5.s.t.5.G.h.x.D 5.A.8.t.g.e v.t.",
"Z.M.p.H.c.`.).c.T.v.v.A.v.z.z.D _ F.A.Z.c.H.v.Z.H.I.Z.M.p.H.v.H.D.T H.v.v.A.v.A.x.S m.c.M.M.y.H.p.M.",
"L.Z.t.U.0.Z.Z.9.D.Z 8 J 9 +.+.| $.8.c.v.9.D.r.p.H.|.D.t.e.b.0.Z.m.6.v.r.p.v.0.(.G.e.m.0.c.w.y V.0.M.",
"j.^.~.h.A.8.r.V.1 { } :. .O   $ +.T n r.Z.5./.H.0.U.7.~.~.e Z.r.t.x.5.T D 5.G.Q.T.s.5.A.8.t.g.5.M.g.",
"A.A.A.S.z.I U g { + ) $.      { 8 T v.M.y.R m.G.H.Z.A.H.^.:XV.Z.G.B.l.D v.Y.v.A.v.p.E.v. X).p.H.N.Z.",
"x.p.r.C.p W 6 ) . @ ,       / *.} c D.D.9.n.d D V.9.V.p.t.(.0.D.~._.m.e.u.m.a.x.q.q.m.0.A.Z.a.U.S.h.",
"5.Z S w M h } @ >.oX,.o   $ *.$ { 5 p.g.A.5.Z.t.7.A.5.p.g.9.A.h.h.A.5.Z.e.i b.l e.p.l G.r.e.S.j.M.e.",
"s.  O $.{ , X : OX>XXX=         + _ v.Z.V.G.p.v.A.I.A.Z.V.G.v.c.n.p.H.p.v.Z.b.R W p.H.V.Z.g.p.H.u.p.",
"y.  & *       <.XX#X3.#           { G A.Y.C.r.p.F.|.Z.S.S.v.9.v.c.0.D.8.p.Z.d.W u.e.C.0.L.H.9.L.t.G.",
"x } *         . > - :             } e.e.A.5.).H.7.F.5.U.(.z U.r.A. X5.Z.i.5.G.i D w.5.D.R.Y.y.c d Z.",
"A.~ }.4.3.1.2..                   { G.H.c.H.G.G.Z.c.^.E.S.H.Z.Z.G.E..XG.v.v.L.T.v.c.^.D.U j *./ < N.",
"V.H $X@X@X@X+X;                   { ) M n D.Z y.v.n V.p.8.E 9.v.p.0.F.r.i.G.Q.G.s.r.b.M } *.) B r.p.",
"7.p.{.+X-X-X=X( &                   % { { j m e.5.D.5.D A 2 Z.8.r.Z.5.M.t.5.E 5.C K { { ) ^ y.5.Z.t.",
"g.Z.p.J.H B P J  .                        ^ { { ` 9 S S n.&Xz.Z.M.y.D.z.s 9 h ] { ^ + *.9 v.G.^.G.Z.",
"v.p.e.n.0.p.p.v )                               & { { { ) { | @.} ] ) /  . .{     ) { 4 c.S.Q.n.Y.A.",
"5.t.p.i ).p.r.G )                                                               / j l G.6.t.Z.e M.t.",
"Z.v.p.H.G.H.A.S {                                                               { F  Xc.Z.Z.p.H.y.v.",
"v.p.8.D.9.v.v.v /                                                               { y.(.8.c.t.9.V.y D ",
"5.w.w.5.A.8.e.p.|                                                               } V.j.A.8.r.g.5.D q.",
").F.y.H.c.T T c._ *                                                             { u.^.v.H.H.Z.*Xx.v.",
"N.p.r.C.0.c.p.8.M {                                                             { Z C.9.V.p.0.G.0.p.",
"5.w.D 5.m.6.t.H.x K ^                                                           ) C l  Xg.r.Z.l M.t.",
"Z.c.D H.z.Z.Z.Z.^.S / &                                                         ) m T.H.A.M.u.l.y.z.",
"U.z.V I.0.c.p.0.(.a.m / ^                                                       { 4 N.0.v.p.9.x.9.i.",
"S.S.Z.f.G.8.e.H.j.A.p.l  .*.&                                                   { 8 5.Z.9.G. X5.`.G.",
"Z.s.i.N.c.v.v.v.D.u.T Y [ & =.*.&                                               ) L T.x.z.G./.T.H.G.",
"v.p.r.v.0.c.p.8.C.e.y.c.|     { {        .| ) ( / ^ ^ { ;.;.;.;.:.;.)           $ { D.0.p.H._.[.t.i.",
"x G.~.5.A.8.q.z.5.).F.5./ X   ) {       _ r S m w I `  .          + -.            { c A.8.q.m.Q.A.V ",
"z.x.U.;XV.Z.v.z.^.H.H.A.&      .^     $ X.G.c.c.Z.W v. .            { )           { f K.Z.N.w.T.i.v.",
"x.A d H.9.v.p.9.D.r.p.c./     |       { 7 b.s S v.0.V.U { X         X =.*           | S.F.t.9.N.9.p.",
"5.p.s.5.A.8.r.Z.5.~.G.x }     ;.      ^ m e T q.5.G.5.i...)     X   X *./ $         ) g q.r.g.5.g.t.",
"Z.v.y.H.c.Z.Z.p.H.G.S.c.{     -.      { B G.z.F.`.v.A.G.n.` /         O.N ] $         | 8 Z.Z..XZ.M.",
"Z.A d D.0.W k.0.C.r.p.F {     =.      { 6.z.e.p.A.0.v.^./.K.Q {   X   O.u.7  .$       + { C 9.~.0.M.",
"5.t.p.5.A.u d z.5.A.t.P )   * /       | v.e ~.G.7.G.5.T z.f.^.W )     } V q 9 { %       ) J  Xd.A.s.",
"Z.v.p.G.v.M.v.k.H.p.Z.&.O   ) {     $ ' p.H.A./.&Xz.N.z.W H.Z.Z.@.    * o.A.W W ^ %       | G.m.m.).",
"L.D.s.].0.y.y.9.E e.Z.%.    k {     { 7 9.C.r.p.D.y P.Z.r.D.9.v.X.%     | v.0.D.a {       { 6.D.Y.Y.",
"j.^.`.R.G.b V M.3 v.A.|     $.+     { t Z.x Z.t.7.G.R.H.p.5.T n b {   X } 5.F.5.t.L *     { L.9.T.s.",
"I x.A.G.v.A.A.y.n.'.X.^ X   -.      { x.p.H.p.U.).v.z.n.n.R Y v.Z.}     / c.v.x.n.s {     ^ x.z.v.Z.",
"G i.r.D.9.p.G | { O ( X * ) {     $ [ p.0.C.9.p.D.0.n.H.H.n.0.v.! @.    * n.v j =.]  .    { v v.9.p.",
"7.p.s.x A.8.#.%     & -.{ { %     { 8 8.A.x Z.t.5.x.x y.i.5.v.] ^   X   ] l { ^           { p.5.k.Z ",
"D.V.p.H.v. Xo.} *.] =.$           } F.~.p.H.v.v.Z.n.A.v.y.G.! ^       O +.m {           ^ _ c.&Xz.c.",
"n.i.s.(.0.V.A.8.E C )           ) j Z.Z.9.].t.p.v.9.v.t.e.E o.^ * ^ ]  .U 8 {         $ ) s y m.y D ",
"r y.A.Y.A.8.Z Y 5.M.K { { { { } j c.8.e.A.W.v.q.5.G.5.p.y.2 c.c n v.g.A.e.1 } ( } } ) ) w t.v.2 c.t.",
".X~.p.S.c.^.H.W H.v.Z.A.H.x.T y.H.v.Z.Z.v.H.z.c.A.v.;X~.y.b.C.D.Z.v.G.v.z.W n.z.U U c.u.v.Z.p.S.u.!.",
"G.s.e.W 0.V.g.9.D.h.A.v.0.n.A d C.8.p.v.a.D.r.p.v.0.~.Z.e.E R.A.p.9.C.a.p.V.h.V.H.R.m.9.v.p.0.Z.b u.",
"5.i.T 0 Z.8.e.Z.x Z.t.5.H.x t.p.x A.8.t.Z.5.Z.t.5.G.f.A.u.q &XZ.e.Z.5.W Z 8./.7.D.S.5.G.9.t.M.5.v.t.",
").I.c.H.V.H.H.z.H.v.M.A.V.Z.v.p.H.v.Z.M.y.b.z.M.A.v.A.v.v.H.~.S.Z.v.H.y.c.A.A.A.Z.Z.H.v.Z.Z.p.H.D.G.",
"A.S.S.C.f.U.K.u v.a.p.v.0.v.p.r.D.9.I.L.b m.t.e.z.0.v.Z.a.E 8.v.p.0.C.e.i.V.9.x.e.r.C.9.v.p.8.T W.G."
};
