/* XPM */
static char *result[] = {
/* columns rows colors chars-per-pixel */
"50 50 183 2 ",
"   c #000000",
".  c #0C0C0C",
"X  c #110000",
"o  c #1A0000",
"O  c gray7",
"+  c #1C1C1C",
"@  c #2C0000",
"#  c #242424",
"$  c gray17",
"%  c #343534",
"&  c #3B3C3B",
"*  c #510000",
"=  c #750101",
"-  c #7E0101",
";  c #2E4B0F",
":  c #2E5203",
">  c #255B00",
",  c #2A5C01",
"<  c #375C08",
"1  c #2F4C1A",
"2  c #354D1F",
"3  c #375915",
"4  c #3C5C14",
"5  c #315719",
"6  c #3A561B",
"7  c #2E6300",
"8  c #316504",
"9  c #3B6503",
"0  c #356A01",
"q  c #3C6C02",
"w  c #39610C",
"e  c #366B0D",
"r  c #396F0C",
"t  c #3E7302",
"y  c #3F720D",
"u  c #356711",
"i  c #3D6113",
"p  c #3B6D12",
"a  c #2E4820",
"s  c #3B5324",
"d  c #3D4C32",
"f  c #3F433D",
"g  c #427303",
"h  c #447902",
"j  c #497D02",
"k  c #46740B",
"l  c #487509",
"z  c #467C0D",
"x  c #4B7C0C",
"c  c #456B15",
"v  c #44651A",
"b  c #426B1A",
"n  c #45681A",
"m  c #457515",
"M  c #4A7315",
"N  c #4B7D14",
"B  c #45741B",
"V  c #4B751C",
"C  c #4C7C1D",
"Z  c #50771D",
"A  c #517D1D",
"S  c #435B2C",
"D  c #415235",
"F  c #49593C",
"G  c #436223",
"H  c #486E26",
"J  c #457423",
"K  c #4B7521",
"L  c #477923",
"P  c #4D7C23",
"I  c #457629",
"U  c #4D7B29",
"Y  c #527C22",
"T  c #597F2F",
"R  c #536F3C",
"E  c #527036",
"W  c #587839",
"Q  c #454545",
"!  c #474946",
"~  c #494E46",
"^  c #4C4C4C",
"/  c #4C5545",
"(  c #4D5A44",
")  c #4B5049",
"_  c #50534F",
"`  c #535B4E",
"'  c #535353",
"]  c #575955",
"[  c #585B56",
"{  c #5B5C5B",
"}  c #4D6240",
"|  c #576949",
" . c #597643",
".. c #5A6454",
"X. c #5D6B54",
"o. c #5E625B",
"O. c #5D7051",
"+. c #60635E",
"@. c #627256",
"#. c #657E52",
"$. c #636463",
"%. c #676866",
"&. c #6B6C6A",
"*. c #747474",
"=. c #7C7C7C",
"-. c #890202",
";. c #920202",
":. c #4D8201",
">. c #4E820C",
",. c #508505",
"<. c #52860D",
"1. c #568C0C",
"2. c #588E0D",
"3. c #4E8115",
"4. c #4E801D",
"5. c #528514",
"6. c #568A12",
"7. c #598C16",
"8. c #54841D",
"9. c #59871F",
"0. c #56881B",
"q. c #5B8C1C",
"w. c #5E9414",
"e. c #5E911D",
"r. c #619715",
"t. c #629817",
"y. c #62951D",
"u. c #659B1B",
"i. c #699E1E",
"p. c #4E8021",
"a. c #4F8128",
"s. c #548322",
"d. c #598623",
"f. c #578821",
"g. c #5C8B22",
"h. c #548329",
"j. c #5A8529",
"k. c #5C8A29",
"l. c #5F9022",
"z. c #5D9029",
"x. c #5F8B31",
"c. c #608F25",
"v. c #628E29",
"b. c #629424",
"n. c #669825",
"m. c #699C25",
"M. c #64932A",
"N. c #69972C",
"B. c #679929",
"V. c #6A9D2A",
"C. c #668F34",
"Z. c #649131",
"A. c #699633",
"S. c #6D9B33",
"D. c #6C9739",
"F. c #719E36",
"G. c #739F3B",
"H. c #6DA224",
"J. c #6EA12C",
"K. c #71A725",
"L. c #72A827",
"P. c #71A32F",
"I. c #74AA29",
"U. c #78AE2C",
"Y. c #6FA030",
"T. c #73A433",
"R. c #76A932",
"E. c #7AAD35",
"W. c #76A43B",
"Q. c #7BAC3A",
"!. c #7EB532",
"~. c #7EB13B",
"^. c #79A440",
"/. c #7CA942",
"(. c #80B735",
"). c #83BA36",
"_. c #81B43D",
"`. c #85B93F",
"'. c #83B442",
"]. c #86BA41",
"[. c #88BD42",
"{. c #8CC046",
"}. c #91C54B",
/* pixels */
"R.M.j.m.f.b.M.A.[.V.M.n.c.n.g.s.I g.b.n.n.V.n.V.P.g.n.g.9.z.d.b.B.H.V.V.k.I M.E.V.V.~.g.b.n.n.U.g.l.",
"j.B.m.M.1.q.T.!.N.p B c.w.g.7.6.j.1.g.q.1.v.6.0.g.1.F.b.6.v.2.g.q.2.v.7.0.d.2.S.J.m.V.2.f.q.<.k.<.0.",
"7 4.e.:.n.<.6.n.:.b.7.,.B.:.8.0.j '.e.6.b.j b.8.h B.H.m.e.1.B.<.3.L :.l.7.:.V.u.f.C :.n.<.6.e.0 e.6.",
"b.l.q.V.f.~.Q.f.P.g.c.n.g.s.s.Z / V.n.b.q.V.q.b.V.D.n.q.q.V.g.V.B.B V.q.l.b.g.n.d.V j.d.b.l.8.V.q.l.",
"A.b.7.F.2.b.b.1.v.N 4 S 6 X.X.{ +.<.f.g.1.M.6.q.Y.).b.q.6.h.2.c.k.>.l.6.q.c.2.W.M.6.k.1.g.4.e b.6.b.",
"i.R.R.t.n.<.6.c.: ' ] =.{ O   + X.U x 6.b.:.R.V.1.Y.,.T.T.0 n.6.7.f.:.P N ,.M.I.J.e.:.n.<.6.l.:.e.y.",
"b.n.n.V.s.L K d ] + ^ {       ] 4 K g.b.8.I k.V.V.c.n.V.E.}.g.b.M.x.h.V k.J.g.n.l.f.P.g.~.~.q.m.l.M.",
"d.q.6.v.y A 2 ' X X ^ .     ! $.] k M.b.1.j.p C c.2.g.q.q.T.2.M.W.!.k.6.0.f.w.f.4.>.k.1.B.n.7.T.i.n.",
",.A M 9 n s { @ - -.*     # $.# ] 1 q.y.n.:.l.7.,.n.,.q.e.1.n.u.n.n.:.l.5.t h.t 8.q.t V.6.7.n.u.l.5.",
"q.  O +.] & . * -.;.=           + ) q.M.c.V.f.g.n.D.n.c.c.V.g.d.d.q.V.q.l.b.j.I Y q.V.g.b.y.q.V.8.g.",
"8.  % &       @ -.-.*             ' A n.H.b.6.q.n.(.b.m.n.g.1.q.9.1.v.1.q.b.t.Y 8.6.M.1.A.V.1.A.6.M.",
"j ] &           X o               ] 5.6.n.j Q.V.,.N.,.Y.T.h F.6.n.'.:.b.0.:.M.t C 4.:.M.H.H.9.k b n.",
"n.s ^                             ] B.V.9.V.V.V.n.d.R.P.m.V.b.b.V.P.`.b.f.g.A.H.g.f.R.M.V d $.^ ; l.",
"d.M ' +                           ' ~ v x v.x 4.f.x c.q.6.U 1.g.q.1.N.7.q.M.U.M.q.6.j.v ] $.^ b 1.e.",
":.7.c ! ^ ! ! ! %                   $ ' ] d c 5.:.M.,.C B > b.<.6.b.:.l.q.:.U >.M D ' ' ^ Q 8.:.l.7.",
"b.c.q.c.v G G s {                         Q ' ' ( 6 B K d.].d.c.g.s.b.8.n 5 s _ ' Q + $.6 g.M.R.M.b.",
"f.q.6.j.2.q.q.l ^                               % ' ] ' ^ _ [ o.] _ ^ ! { { ' .   ! ' < f.V.I.j.H.n.",
":.7.q.q Q.e.6.A ^                                                               ! d g M.>.6.n.0 b.7.",
"n.g.q.V.B.V.n.V '                                                               ' A _.f.b.b.q.V.8.q.",
"g.7.6.v.1.g.q.l !                                                               ' 5.W.<.f.7.1.c.u C ",
":.C 4.:.n.<.6.f.{                                                               ] c.i.n.<.7.y.:.C 3.",
"Q.S.8.V.f.P P f.F &                                                             ' d.R.d.J.V.b.[.k.q.",
"z.7.6.v.2.s.q.<.v '                                                             ' N v.1.c.y.1.N.2.0.",
":.4.C :.k.>.7.V.j f !                                                           ^ M g _.q.6.y.g l.7.",
"n.s.P V.s.b.b.b.E.V ^ $                                                         ^ c J.V.n.b.8.a.8.f.",
"G.s.m S.2.f.q.2.W.7.c ~ Q                                                       ' w z.1.g.q.2.d.1.0.",
"i.m.y.t.B.<.5.V.i.n.q.g [ %.%                                                   ' 4 :.b.<.V._.:.Q.B.",
"b.g.0.z.f.g.g.g.B.8.P L ] % $.$.%                                               ^ F V.g.s.N.Q.J.V.V.",
"d.7.6.k.2.f.q.2.v.5.A d.`     ] ]       { { ! ! Q Q ! ' *.*.*.*.*.*.^           # _ M.2.f.V.!./.w.8.",
":.J.J.:.n.<.N s.:.Q.V.:.! .   ^ '       / 9 V M 9 J ( {           + &.            ' k n.<.3.g.U.b.m ",
"a.k.J.{.c.b.g.8.R.V.V.n.%     { !     # | V.s.f.b.Y g.{   .   . .   ' ^           _ a C.b.g.4.V.0.k.",
"s.B c N.1.g.f.1.M.6.q.d.!     ]       ' 3 h.u V g.2.c.K !           . %.&           { n.V.q.1.b.2.0.",
":.7.e.:.n.<.6.b.:.R.V.j ]     *.      Q c 0 P 3.:.N.:.q.} ^     .   . $.! #         ! d >.6.b.:.b.6.",
"b.g.8.V.f.l.b.f.V.V.n.9.'     &.      ] M M.s.V.~.g.n.M.j.( !         ..n ' #         { i b.l.`.b.l.",
"b.B p M.2.s.8.1.v.6.q.Z ! .   %.      ' x h.6.q.n.2.g.R.E.Z.R '       ..8.3 { #       + ' M 1.T.w.q.",
":.7.q.:.b.y p p.j n.7.H ^   & !       ] g.0 S.n.:.V.:.P s.t.T.Y ^ .   { m 8 6 ] $       ^ S _.r.b.e.",
"b.g.0.V.g.l.l.P V.g.b.#.O   ^ '     # ( q.V.B.E.].s.z.s.C V.b.b...    &  .n.Y Y ! $       ] V.d.z.Q.",
"A.M.e.^.2.8.s.1.U 6.b.@.    f '     ' 4 1.v.6.q.M.e D.M.6.M.1.g.| $   . ..g.2.c.4 ]       ] x M.H.H.",
"i.R.~.K.B.k m l., f.n.]   . o.+     _ w b.j b.7.:.N.H.V.q.:.L >.M '     ' j B.:.0.D &     ' S.1.J.e.",
"J d.n.V.g.n.n.8.T #.| !     &.      ] d.q.V.q.P.~.g.s.k.j.I L g.b.]     ! g.g.g.s.c '     Q d.U g.b.",
"Y 0.1.c.1.q.A [ _ . ^ . & ^ ]     # ` g.1.v.6.q.b.2.j.V.V.j.2.k.W { .   & d.l d %._ {     ' l d.1.q.",
"<.q.e.,.n.<.O.$ .   % &.' ' #     ' < 5.b.:.b.7.:.d.j 8.0.:.g.` !       ' g ' !           ] q.:.p.3.",
"b.c.g.V.g._. .] { ' %.+           ] M.R.q.V.g.q.M.s.n.g.8.B.E Q       O ..n '           Q ( s.`.s.f.",
"d.0.e.G.1.b.b.1.Y k '           ^ d c.b.1.^.q.q.g.2.g.7.5.U  .Q & f _ [ V v '         # ^ i e k.p V ",
"0 A n.K.n.<.N L :.g.d ] ' ' ' ] d d.<.6.V.L.g.3.:.B.:.e.s.> d.k N g.y.n.5.: ] ! ] { ^ ^ 9 6.g., f.6.",
"].T.q.V.f.T.T.V V.v.v.b.N.g.P 8.V.d.b.b.g.V.s.f.n.k.].R.8.s.v.b.b.d.V.c.s.U j.8.K V d.8.g.b.0.J.8.R.",
"M.e.6.Y 1.c.y.1.M.u.n.g.2.d.m p v.1.q.g.w.v.6.q.c.2.T.b.5.U K.n.q.1.v.7.q.c.u.c.V.K.M.1.g.e.1.b.z s.",
":.8.P 7 b.<.6.b.j b.7.:.V.j q.g.j n.<.6.n.:.b.7.:.M.t.n.d.8 ].b.6.b.:.Y N <.E.,.b.n.:.B.<.6.l.:.l.6.",
"~.S.d.V.l.J.V.s.V.f.b.n.g.n.g.q.V.g.b.b.8.h.s.l.n.g.n.c.g.V.P.m.b.q.V.Y f.n.n.n.n.e.V.g.b.b.q.m.M.M.",
"n.m.m.c.t.F.Z.r b.7.q.g.2.g.q.6.v.1.S.A.z j.1.8.s.2.g.b.7.U 1.g.q.1.v.6.q.g.2.s.8.6.v.2.q.q.<.U I.B."
};
