/* XPM */
static char *dee9d54baa3f4cd3a25b0b9cd65a52818GT761LF7fVkWbVa[] = {
/* columns rows colors chars-per-pixel */
"50 50 153 2 ",
"   c #382E37",
".  c #3D333C",
"X  c #40363E",
"o  c #42393F",
"O  c #3F3740",
"+  c #413741",
"@  c #453B43",
"#  c #483F46",
"$  c #473D48",
"%  c #493E49",
"&  c #474045",
"*  c #494047",
"=  c #4C424B",
"-  c #51474E",
";  c #52494E",
":  c #4E4450",
">  c #514751",
",  c #554C54",
"<  c #594F54",
"1  c #574D59",
"2  c #594F58",
"3  c #5A5157",
"4  c #57505A",
"5  c #5D545B",
"6  c #60575D",
"7  c #62595E",
"8  c #5F5760",
"9  c #5E5962",
"0  c #605760",
"q  c #655C63",
"w  c #685F65",
"e  c #675E68",
"r  c #685F69",
"t  c #696066",
"y  c #67606A",
"u  c #6C636B",
"i  c #6E686F",
"p  c #70666E",
"a  c #72696E",
"s  c #756C72",
"d  c #786F75",
"f  c #7B7276",
"g  c #7D747A",
"h  c #7F787F",
"j  c #80777C",
"k  c #837A7E",
"l  c #857C82",
"z  c #887F83",
"x  c #868083",
"c  c #8B8285",
"v  c #878088",
"b  c #8D8589",
"n  c #8F888D",
"m  c #90878C",
"M  c #938A8D",
"N  c #968D91",
"B  c #958E90",
"V  c #968E91",
"C  c #958D92",
"Z  c #968D92",
"A  c #968D93",
"S  c #978E92",
"D  c #978E93",
"F  c #978F93",
"G  c #958C91",
"H  c #978E94",
"J  c #978F94",
"K  c #968D92",
"L  c #988F93",
"P  c #988F94",
"I  c #988F93",
"U  c #979093",
"Y  c #979194",
"T  c #979196",
"R  c #999092",
"E  c #9A9193",
"W  c #999095",
"Q  c #989195",
"!  c #9A9194",
"~  c #9A9195",
"^  c #9B9294",
"/  c #9A9295",
"(  c #999096",
")  c #999196",
"_  c #9A9196",
"`  c #9A9097",
"'  c #9A9296",
"]  c #9B9296",
"[  c #9B9297",
"{  c #9A9397",
"}  c #9C9394",
"|  c #9B9597",
" . c #9D9496",
".. c #9C9497",
"X. c #9A9195",
"o. c #979198",
"O. c #9B9398",
"+. c #9B9299",
"@. c #9C9398",
"#. c #9C9299",
"$. c #9D939A",
"%. c #9B9499",
"&. c #9D9499",
"*. c #9E9598",
"=. c #9F9698",
"-. c #9F9699",
";. c #9F9799",
":. c #9E959A",
">. c #9C969A",
",. c #9D969A",
"<. c #9D979A",
"1. c #9D969B",
"2. c #9D979B",
"3. c #9E969A",
"4. c #9F969B",
"5. c #9D9499",
"6. c #9E989B",
"7. c #9F999D",
"8. c #9F989B",
"9. c #A09799",
"0. c #A0979A",
"q. c #A0979B",
"w. c #A0979C",
"e. c #A0979D",
"r. c #A1989A",
"t. c #A1989B",
"y. c #A1989D",
"u. c #A1999D",
"i. c #A2999C",
"p. c #A3999D",
"a. c #A09A9D",
"s. c #A19B9F",
"d. c #A39A9E",
"f. c #A29C9E",
"g. c #A29A9E",
"h. c #A29BA0",
"j. c #A59CA1",
"k. c #A59FA1",
"l. c #A69EA1",
"z. c #A59EA3",
"x. c #A59EA4",
"c. c #A49DA1",
"v. c #A7A1A5",
"b. c #A6A0A3",
"n. c #A8A2A5",
"m. c #A9A3A5",
"M. c #A9A3A7",
"N. c #AAA4A6",
"B. c #A9A3A6",
"V. c #ABA5A9",
"C. c #ABA5AA",
"Z. c #B0A9AE",
"A. c #B5ADB2",
/* pixels */
"k c M B B M S %.d.n.n.C.n.n.x.z.f.$.S $.l # M S W R  .d.d.z.z.$.| 6.Y U m 2 M | M b Y M z z k w 7 k ",
"U W } 9.9.i.i. .I 9.w.w.w.w.4.4.w.w.$.6.w - f W i.6.9.6.6.d.z.i.| 6.f.6.7 * b f.$.} 6.| ..@.b 6 7 m ",
"M M m } R M S M M ..@.@.@.@.@.A S Y W 6.q * l W $.$.W S H H W W Y Y Y <.7 . k k.W S $.W L ..M 6 6 c ",
"b c z c z k g k z m N N M M N N S S U %.7 # l +.$.| M c l l k l c b b Y t & f =.M l z S L L M 5 7 k ",
"c x f g k d a a s l l g s d h l G S S %.e # g W 1.C l i f s d g b c x | 7 = k i.b l j n ` P m 6 7 b ",
"k a d g k l f s d d j d s g g h l G m W 6 & j | H G g s d l l v U b x B 7 = k i.M s l N P N M 5 7 c ",
"g a a s d l g g h g g s a s g d g b b | 5 * k 6.W c f g g k v c B b b B t = f } M d z A N M M 5 p b ",
"x k g g g d f h h d s s p s d g g l c W 5 * k | H l h h h l v c c M M M 6 & f W M g l N N m M 2 t m ",
"c c k x c c z c v b b z l l z v m @.S 4.5 * k Y b b v v v v v n C o.o.>.3 . k $.L z M M c c m 5 6 l ",
"s k k k f p e 5 5 5 8 8 1 : > : : > , 5 u # l l l l l l x x h i y q 9 t s . 5 * q i 0 5 j j j p ; d ",
"; - - = # = = = = % $ $ $ @ @ @ # + + @ $ . > # $ @ @ $ & & * * * * * * * . + & @ * # # # # + @ @ = ",
"5 q t u i i u a d q O q d d l l z v v v l l d u y e q q y u u y e 5 . 0 q 0 5 9 q t w e 0 5 5 5 < , ",
"M  .w.d.M.Z.A.Z.j.s @ g S @.+.+.+.%.$.W $.d.d.f.b.b.f.r.6.$.%.| S t & g x.C.V.M.f.b.b.b.p.P I @.W L ",
"W W +.$.@.@.@.@.b 7 . k W W ..W W +.+.W R R S S W  .R R U M M 6. .6 # a j.x.h.j.6.i.d.f.h.@.@.@.W W ",
"W W W H P @.@.q.S 6 @ g m S P W |  . .$.R R B M M R } M m m b m 6.q # u h.d.$.n l n N H A n G P W P ",
"S G b l b P @.$.S 7 o k m R S R M R R  . .} c m M R } M m k c x M q # u 7.w.$.z s f l l z j g M W S ",
"z z l l z n H 4.M q + j b P M P V R R R N @.N M M M L m c z c k c w @ t r.9.S l g h l l j g d b N M ",
"C l p p p g z P M w + j M z g N m R R V M N N ..L M m b z z z z z 7 & t k. .G g l z n z g d j z M m ",
"l s p e e s j b M u + d b s y s g j c c z n C H L m m m z z k c b q @ u k.| m c z b H n l d l m N b ",
"l s j s u s j z m t @ s l r s s s s u u g z l g z b m M z z c c c 7 @ i =.M S m z z A h.H M N P P b ",
"p p u 0 1 2 2 0 w u # 2 q 1 : = $ % , 1 2 0 > , 0 u i y w t u u , 7 + s d q 6 p d p r 2 = % = 2 w w ",
"$ $ % % $ $ $ % % = = + @ + @ + @ $ @ + @ + O O + @ + O o o o o + # . = @ @ & = $ $ % % % % * # % % ",
"0 0 0 0 0 8 8 2 5 5 5 0 0 0 w w 8 . i s s d g h g @ > y e u e e e e u i u w 7 7 0 2 1 1 , = O 1 1 2 ",
"z A $.e.j.j.h.h.h.h.h.h.` G M c q   l A.A.A.A.C.C . s H H $.6.6.d.7.d.f.z.f.f.9.N b z z v 7 # M +.P ",
"z ` H #.#.#.I #.9.9.L I 9.G G k 6   s c 9.M M c u O s m w.j.j.j.r.l.=.l.r.r.r.r.6.$.6.d.s 5 ; b W R ",
"z C H #.#.H I I I 9.I S I S I c 6 X u c b j k z i + p z j.w.@.N M } } =.=.=.} R S M m $.s 7 = m i.$.",
"z M M H z l l j k m M M I @...b 6   u b c a s k u @ t k w.q.b j k z z M M M c c b c x b k 7 @ c 6.$.",
"z z z z z g a p d j b M I 9.I m 6 X 7 M b f j k a @ i j ..L k l z c M M R M c j c l g l k 7 & c R  .",
"c c z z l z z j s j k R M M M k 6   7 M c j j k a X t j $.M j j c R R M z k k s d f f l k 6 ; m m R ",
"m c k c z k l l k j c c c M } c 6   w M M j k c a X p k q.b k k z R M R M k z j g l c x j 6 ; m c c ",
"c m c c c k d j k k k c c c M k 6 . w m R c c c a o p k p.V c k k m M R M c k k z c z b s 7 , M c c ",
"z c k k k f d j k k k k c c M c 7 X 7 m M M c c s o p c r.M b k k c z c c c z k z c c m f 6 , M k c ",
"z c c k f f k f k k l z b b M m p . w c m b k m f * a f 9.9.9.I I V G b b G M b z m b b f 7 > S l k ",
"z c k j g g f s a k z v b z c m w . p m 9.V b M a = s R x.9.z m G M S I H ` N M m $.P S c 5 = b b M ",
"; ; ; * * % % = $ = : $ % % * - < . 6 < 3 u t 7 < * f 7 > $ $ $ % $ # % % = = = = % = $ 5 e * l 2 5 ",
"o X * * = = = = * % $ $ @ @ # @ + + $ + + # @ @ @ . @ + + + O O X X X X O . . . X . . . . .   . . O ",
"6 ; @.d.I @.W H A H P H C A A H S #.p # d z z z c c z z z z l 0 , l j l l l v v b v b v n n n n z l ",
"7 6 k C.n.V.b.z.h.w.w.p.h.h.h.w.p.z 0 @ j #.#.$.4.4.h.j.x.e.l 6 2 l @.9.7.s.h.7.h.7.7.4.4.%.4.o.` M ",
"r w l j.j.b.f.i.4.4.9.I 9.I P P M p q @ d M A A N n M z z z s 5 5 d j...+.W S S ` ` P N G G b b b l ",
"r q l j.j...S L A N M L M L #...m w 0 @ p m A I n b z l l l s 2 5 s q...+.+.+.+.` H G N A b l l M l ",
"0 w j p.e.z z m b b m b m V 9.} M w 7 o a M S m k s k j j k j < < j M R #.} } } P b b b m z z z M z ",
"8 r j j.#.z l k z z c z m m V R R p 7 o t b M M c k j k k k f < 3 s N ` ` } } M b z z z z l z z b z ",
"8 y j #.G l j d k l l k k c V R R a w o a m c c k k k M M z f < 6 j ` R ` ` R k g j j j l l z z m l ",
"5 r j #.z d p p d g c c k k m R M j 7 o a M M z j j j c M z j 6 6 s M m N M k j d g g g g l l b m z ",
"1 r g S j r p q u p j z c k c M k j 6 o a c M c k k k c m z k 3 6 d 9.m M c j j a j a j g j j l c l ",
"5 e k b j p u w q p s k k k k k c a 6 o j R c k k c c c c k j 3 6 d 9.R R c k j j j j a d g d g c k ",
"8 u l v j j s g p a f k k j k c k j 7 * d 9.M k k z c c c c s 6 6 j 9.m k k k j j j k j p j l j j j ",
"8 u k b z M l j k b c c m c M c k k 6 o j 9.} M c z c M c k k < < k 9.R M R R M k M b k j j j j j f ",
"q u i = % % % % % % % - - % > - % - < @ w $ % % , 6 , ; = - 6 6 < u % % % = = # * # - # * < 3 w 7 a ",
"@ O . + + + @ @ @ @ + @ @ @ @ + X X .   . X + + + + X     X X X . + X X @ @ o @ @ o # # o @ @ @ X o "
};
