/* XPM */
static char *result[] = {
/* columns rows colors chars-per-pixel */
"50 50 234 2 ",
"   c #010101",
".  c #0B0B06",
"X  c #160801",
"o  c #0A1501",
"O  c #1B1C02",
"+  c #151515",
"@  c #1C1C1C",
"#  c #360700",
"$  c #281A02",
"%  c #381A02",
"&  c #152702",
"*  c #1C3205",
"=  c #392C06",
"-  c #232323",
";  c #2A2A2A",
":  c #343434",
">  c #3B3B3B",
",  c #471900",
"<  c #521300",
"1  c #482B04",
"2  c #572501",
"3  c #583908",
"4  c #672F00",
"5  c #703809",
"6  c #2A4509",
"7  c #295800",
"8  c #345011",
"9  c #375813",
"0  c #366906",
"q  c #366A07",
"w  c #3B6C11",
"e  c #3E5A25",
"r  c #3F473B",
"t  c #3B6222",
"y  c #5A4609",
"u  c #5C5015",
"i  c #684805",
"p  c #794705",
"a  c #735007",
"s  c #416D0A",
"d  c #447707",
"f  c #497E01",
"g  c #4B7E0D",
"h  c #456818",
"j  c #477515",
"k  c #4B7C14",
"l  c #45741A",
"z  c #4A741B",
"x  c #4C7B1D",
"c  c #517E1D",
"v  c #5B7C1D",
"b  c #71690B",
"n  c #464635",
"m  c #485A39",
"M  c #745D2A",
"N  c #496D24",
"B  c #487726",
"V  c #4D7424",
"C  c #4D7B24",
"Z  c #527E21",
"A  c #527C2A",
"S  c #4B6638",
"D  c #506E3B",
"F  c #577738",
"G  c #434343",
"H  c #484D44",
"J  c #4B4B4A",
"K  c #4D5349",
"L  c #505F46",
"P  c #535E4D",
"I  c #535353",
"U  c #555A53",
"Y  c #5B5B5B",
"T  c #4E6342",
"R  c #546847",
"E  c #54634B",
"W  c #5D7A45",
"Q  c #5C7549",
"!  c #5A6354",
"~  c #617D4A",
"^  c #616A5A",
"/  c #647755",
"(  c #646463",
")  c #666D63",
"_  c #6D6D6D",
"`  c #6E756A",
"'  c #727272",
"]  c #787B77",
"[  c #8E3802",
"{  c #A53F00",
"}  c #964604",
"|  c #845902",
" . c #995403",
".. c #8A4D12",
"X. c #895917",
"o. c #A54200",
"O. c #A64B00",
"+. c #AD560A",
"@. c #8F6D0A",
"#. c #99640B",
"$. c #A76A08",
"%. c #AB7906",
"&. c #B2770D",
"*. c #83742A",
"=. c #A57B23",
"-. c #B1742F",
";. c #C85C04",
":. c #C97706",
">. c #D07108",
",. c #E47904",
"<. c #F37603",
"1. c #EF7410",
"2. c #CE7628",
"3. c #E06F21",
"4. c #987759",
"5. c #967D68",
"6. c #4D8201",
"7. c #4E820C",
"8. c #508605",
"9. c #52860D",
"0. c #568C0C",
"q. c #588E0D",
"w. c #4E8117",
"e. c #528513",
"r. c #568A12",
"t. c #598C15",
"y. c #54851C",
"u. c #56881C",
"i. c #5B8C1C",
"p. c #5D9313",
"a. c #5F911E",
"s. c #6F801B",
"d. c #659B1B",
"f. c #669B1B",
"g. c #6AA11F",
"h. c #4E8021",
"j. c #4F8128",
"k. c #548323",
"l. c #598623",
"z. c #5C8B22",
"x. c #578428",
"c. c #5B8B29",
"v. c #5F9121",
"b. c #5D9029",
"n. c #608F25",
"m. c #628F29",
"M. c #629423",
"N. c #669825",
"B. c #699C25",
"V. c #64932A",
"C. c #69972B",
"Z. c #679929",
"A. c #6A9D2A",
"S. c #648D3B",
"D. c #699535",
"F. c #6D9B33",
"G. c #719E36",
"H. c #6DA224",
"J. c #6EA12C",
"K. c #73A829",
"L. c #73A333",
"P. c #76A932",
"I. c #78AB36",
"U. c #7BAD39",
"Y. c #7EB138",
"T. c #668549",
"R. c #6C845C",
"E. c #738C5D",
"W. c #7AA741",
"Q. c #75876A",
"!. c #7D936C",
"~. c #96830E",
"^. c #BD8503",
"/. c #AE911B",
"(. c #B0922F",
"). c #82B73B",
"_. c #BDB038",
"`. c #CF8D0F",
"'. c #C79303",
"]. c #C98418",
"[. c #E58806",
"{. c #F5890A",
"}. c #E79707",
"|. c #E49518",
" X c #C9A50D",
".X c #F8A705",
"XX c #FBB606",
"oX c #F7A916",
"OX c #EFB211",
"+X c #C98526",
"@X c #D78626",
"#X c #E79928",
"$X c #F69624",
"%X c #F09130",
"&X c #DBB638",
"*X c #F5A42A",
"=X c #EAB131",
"-X c #F9B836",
";X c #EFC718",
":X c #F6CC11",
">X c #F9C519",
",X c #FBD031",
"<X c #F8E42B",
"1X c #B6895B",
"2X c #87B944",
"3X c #838B7F",
"4X c #87967D",
"5X c #B8A966",
"6X c #8FC349",
"7X c #FAE756",
"8X c #E4C969",
"9X c #F5EA6D",
"0X c #8B8C8A",
"qX c #8D9A84",
"wX c #939D8D",
"eX c #979A96",
"rX c #95A18E",
"tX c #9DA697",
"yX c #A2AE9B",
"uX c #A5A8A2",
"iX c #ACACAB",
"pX c #ACB3A9",
"aX c #B8BBB6",
"sX c #F5DC85",
"dX c #C0C1BF",
"fX c #C4C4C4",
"gX c #C7CAC5",
"hX c #CCCDCC",
"jX c #D3D4D3",
"kX c #D7D8D7",
"lX c #DADADA",
"zX c #E4E4E4",
"xX c #ECECEC",
"cX c #F1F1F1",
/* pixels */
"P.V.k.A.z.M.V.D.2XA.M.M.c.N.v.c B c.N.N.N.A.M.A.J.z.N.z.u.c.z.M.B.A.J.J.c.B N.I.A.Z.).n.M.M.N.P.i.v.",
"x.Z.B.V.0.i.J.Y.F.w l M.p.n.u.r.x.0.z.i.0.m.r.u.z.q.F.N.r.V.0.z.z.0.c.r.u.l.q.F.J.B.C.0.i.i.9.c.9.u.",
"0 y.a.6.N.9.r.N.6.M.t.8.Z.6.u.u.f 2Xd.e.M.f M.e.d Z.B.B.d.0.Z.9.k C 6.v.r.6.Z.f.l.x 6.N.9.t.a.0 v.t.",
"v.z.i.A.z.U.U.i.J.z.v.N.z.k.k.y.A.A.N.M.z.Z.z.M.J.F.N.i.l.Z.z.A.Z.z A.z.z.N.c.N.k.V z.l.z.v.y.A.i.v.",
"F.n.t.G.0.M.M.0.M.e.y.z.q.Z y.0.m.9.i.z.0.n.r.z.A.).V.t.e.k.0.! U d V.r.u.n.t.G.Z.r.x.E U y.q m.r.v.",
"f.P.P.f.Z.9.r.M.6.B j t.2Xg u.u.6.A g r.M.6.I.A.q.L.8.L.L.0 Z.E ) ] s T n G G m W k U _ ^ e.d.6.a.d.",
"M.N.N.A.k.B B u.A.x N C L.l.z h z 9 h z z B c.C.A.n.N.A.U.6Xn./ J J I @           G _ - Q.U.i.A.M.M.",
"l.i.0.n.w Z y.9.m.e.h 8                   o * w n.q.n.i.t.L.q.F _ I +               I ( Q V.t.L.B.M.",
"6.u.u.6.M.9.r.i.7 o                             O h f k 6 o   * L     < #     , 4 X   E e.r.N.f.v.r.",
"M.n.i.A.z.M.z O >.>.  O.3.2 %.}..X`.1 #.,.2 % 1.[   &         * F ; +.-X@X. X @X-X#.  ~ N.v.i.Z.y.z.",
"u.i.r.V.9.8     $.*X=.<.+.#.>X'.@.oX].$..Xi % $XO.          o y.c G  .2.5 : - -.2...; C F.Z.0.F.r.C.",
"6.i.i.6.h         2.-X<.1 '.7X$   +X*X=.oXa , <.o.          h r.M.r   @ ( ; @ ( :   : z.J.H.d.p.h.M.",
"N.z.i.z           ..1.+.  `.,X+   2.*X-.,Xp % <.O.          h N.A.m   _ + ; >   ( - H m.j.k.c.v.x v.",
"l.i.g o           5 $X$.   .XX/.X.%X2.*.,X(.$.<. .          & i.i.R G G ; : ; > : I T H.V.v.f.c.r.i.",
"6.i.9             3 1. .    &.$X%X2.3 + 5X9X>X>.$             q r.F ( -.2.(.2.(.-.( S x.7.r.N.6.v.r.",
"M.i.o                           .                             6 v.k.J 5.#X%X#X|.1XI n.k.v.M.V.P.Z.M.",
"n.k                                                             C g ! 5.].+X+X&.4.U m.0.z.N.K.z.H.B.",
"f j                                                             V D.I I ( ' ' _ Y I w N.e.r.M.0 v.t.",
"M.z $ a 3       y /.@.=     *./.~.= p 5 ..5 = M i = p 2 i b     V.T.-             . ^ z.v.v.i.A.y.z.",
"i.j 3 XX%.    X.OXOX<X9X3 5X8X,X;X%.|.{.1.3.3 oX:.X.$XX.^..X    c.E                 G k i.i.0.m.w l ",
"f h y >X=.    @X|.X b 9X5XsX8XM = y [.,.a p   }.:.a oX| &.[.  O c.G .     .     .     / e.r.d.6.w.w.",
").C.i >X=.    *X X    9X5X5XsX9X;X| ,.{.$X{.  =X].p .Xa $.<.  9 ^       .   . .       G Z.A.M.).c.z.",
"V.v.b >X=.    |.&X  y <X_.u u /.:X'.|.,.      ].$.1 |.i  .;.  F :           .         @ W z.0.Z.r.i.",
"6.k.s.OX#X2.;.#.-X&XOX:Xb ;X X'.XX$.|.<.;.>.2 ;. .4 ;.p [ { 8 L .   . .   .       . .   L r.M.d a.r.",
"M.k.v /.$.+...  | ^.%.i   @.^.^.|   } o.{ o., o.[ < O.2 4 { V G               . .       n M.y.j.y.k.",
"L.k.j F.d o                                             & Z g :     .     . .         . G y.0.c.0.u.",
"B.B.M.d.Z.d &                                         6 y.6.Z :   .   @     . .         @ T.).6.Y.Z.",
"M.v.u.b.l.z.l.8                         @ _ hXjXkX' 9 h.y.A.V :       (         G .       Q I.J.J.Z.",
"z.i.r.c.0.z.i.0.Z 6 o           Y eX0X- ] 0XeXfXzXtXk.l w m.T.  .   > G .     . I +   .   F Y.U.p.w.",
"f A.J.6.N.9.w.C 6.U.C.0 9 * ' hXxXaX] eXI Y iXlXaXF f x x 6.W       J           : >       S c.P.Z.j ",
"k.c.J.6Xz.M.z.y.P.A.Z.M.k.!.yXaXlXzXcXcXlXY iXxXjXuXT.z.k.L.Q       Y             I       S x J.k.v.",
"l.l h A.0.z.i.0.Z.r.i.z.7.x Z V aXcXcXcXxXzXdXcXcXcXzXwXk A S     - Y G         > Y -     E 0.v.0.i.",
"6.i.a.6.M.9.r.M.6.P.N.8.Z.7 l y.f E.dXcXcXcXcXcXcXcXcXcX0X7 H     G Y t Q S T R N I I     E v.7.a.t.",
"M.l.y.Z.z.v.v.z.A.Z.N.N.z.N.l.c.2Xx fXcXcXcXcXcXcXcXcXcXdXt G   . I ( z z.B.B c.j.( J     ! M.).M.v.",
"M.l w V.0.y.y.0.m.r.i.n.q.z.w.y.W.3XcXcXcXcXcXcXcXcXcXcXhXfXG .   Y Y e.w.j.p.v.l ` K     H q.P.r.v.",
"6.i.i.6.N.w w j.6.M.t.7.Z.6.i.B.T.zXcXcXcXcXcXcXcXcXcXcXjXhXJ     I Y z.k 0 Q.pXtX) Y     H ).p.N.a.",
"M.v.z.Z.z.v.v.h.A.z.M.N.z.N.v.W lXcXcXcXcXcXcXcXcXcXcXcXcXzXI     Y 0XzXfXaXzXzXrXT _ .   H J.c.v.I.",
"D.v.t.W.q.k.y.0.A e.M.F.0.c.R.lXcXcXcXcXcXcXcXcXcXcXuXtXfXlXI     ' tXkXlXjXlXzX` S '   . G 0.b.H.J.",
"H.I.U.K.B.d j v.7 z.B.H.z.tXzXcXcXcXcXcXcXcXcXcXzX4XH.A.a.d Y     ( lXcXcXcXxXtXr.i.K     r Y.0.J.a.",
"w c.Z.A.z.N.N.l.J.i.z.R.hXcXcXcXcXcXcXcXcXcXcXkXqXz.k.c.x.B J     ! T.4XtXpXQ.l.k.y.!     I A.j.v.v.",
"Z u.r.n.q.z.i.0.z.W pXcXcXcXcXcXcXcXcXcXcXcXkXxXlXA l.A.H.V I I G R m.e.y.V.0.k.w w /   : _ j x.r.i.",
"8.i.a.f N.9.V wXgXxXcXcXcXcXcXcXcXcXcXcXzXlXcXcXcXwXf y.z I + .   / 6.v.t.0.Z.d z.v.Q > -   Y s w.w.",
"N.n.Z Q.eXuXpXuX!.V W tXkXcXcXcXcXcXcXcXjXzXcXcXcXuXN.z.P ;     J N B C v.N.m.z.k.w.t I     - ! j.k.",
"l.c h E.j l.M.0.m.i.u.c.g qXjXcXcXcXcXcXcXiXfXxXcXzX4Xu.( > G   I 9.W.t.y.z.g.n.x w j.U   ; J ( w k ",
"0 y.N.H.N.9.k C 6.M.t.r.2X0.c 3XhXcXcXcXcXgXV R.kXcXxXaXU ( - G S N.H.N.e.q A.6.t.i.6.F J I J n z.t.",
").P.i.A.z.L.A.C A.n.M.N.L.V.y.r.l.iXxXcXcXzXe z.S.aXxXcXzXeX_ T z.z.Z.z.k.j.V.N.V.V.Z.l.D E m Z.y.L.",
"N.i.e.j.0.M.z.0.m.d.M.M.0.l.l w c.g iXcXcXcX^ t.z.9.T.rXyXQ.H.V.i.0.V.p.i.c.f.M.A.J.V.0.z.a.0.b.d l.",
"6.y.x 0 M.9.r.M.6.M.t.7.A.f i.i.f V.m xXcXcXgXN W dXzXlX] 0 2Xd.r.M.6.C k 9.I.6.N.N.6.N.9.r.M.6.v.t.",
"Y.F.z.A.n.A.A.k.A.z.v.N.z.N.z.i.A.z.i.Q.lXcXcXkXzXcXcXhXA A.L.N.M.i.Z.k.l.N.N.N.M.M.N.z.M.n.t.J.V.V.",
"V.B.B.n.d.F.D.q V.r.t.n.q.z.u.r.m.q.F.D.w eXgXlXzXlXiXx.i.A 0.z.z.0.n.r.u.n.q.k.y.0.V.q.i.u.9.A K.Z."
};
