/* XPM */
static char *result[] = {
/* columns rows colors chars-per-pixel */
"50 50 202 2 ",
"   c #010101",
".  c #0C0C0C",
"X  c #151515",
"o  c #1E1E1E",
"O  c #230101",
"+  c #370202",
"@  c #23150D",
"#  c #33150D",
"$  c #2B2D12",
"%  c #272727",
"&  c #303030",
"*  c #393939",
"=  c #4E0E0A",
"-  c #680D0A",
";  c #7D0A0A",
":  c #75130E",
">  c #412F2F",
",  c #314F0B",
"<  c #2E6201",
"1  c #356B01",
"2  c #346809",
"3  c #3F720D",
"4  c #3B6D12",
"5  c #3E592D",
"6  c #386223",
"7  c #416D0A",
"8  c #467B07",
"9  c #48631E",
"0  c #4A7D14",
"q  c #477718",
"w  c #45741A",
"e  c #4C7B1D",
"r  c #507E1C",
"t  c #776F0E",
"y  c #68761B",
"u  c #7C741A",
"i  c #465E33",
"p  c #486D24",
"a  c #447522",
"s  c #497724",
"d  c #4C7B24",
"f  c #4D7B29",
"g  c #557522",
"h  c #517D21",
"j  c #507034",
"k  c #474A46",
"l  c #5D5E5B",
"z  c #605F5F",
"x  c #5A6C4E",
"c  c #5D7749",
"v  c #667959",
"b  c #676A62",
"n  c #696C63",
"m  c #6C7D64",
"M  c #7E7D7D",
"N  c #890E0D",
"B  c #980E0E",
"V  c #8B120F",
"C  c #9D1010",
"Z  c #A21010",
"A  c #A11B11",
"S  c #A31C1C",
"D  c #9A360E",
"F  c #992911",
"G  c #9C3412",
"H  c #A02011",
"J  c #A42424",
"K  c #A42A2A",
"L  c #A53333",
"P  c #A63A3A",
"I  c #8A5A18",
"U  c #915A19",
"Y  c #85681B",
"T  c #85731E",
"R  c #864848",
"E  c #A94545",
"W  c #AA4C4C",
"Q  c #AC5353",
"!  c #AE5D5D",
"~  c #957169",
"^  c #B06666",
"/  c #B36D6D",
"(  c #B67777",
")  c #B77A7A",
"_  c #B87C7C",
"`  c #4D8201",
"'  c #4E840B",
"]  c #508605",
"[  c #52860D",
"{  c #568C0C",
"}  c #588E0D",
"|  c #4D8115",
" . c #4F801A",
".. c #528513",
"X. c #568A12",
"o. c #598C16",
"O. c #54851D",
"+. c #56881C",
"@. c #5A8C1C",
"#. c #5D9313",
"$. c #5E911D",
"%. c #648211",
"&. c #629618",
"*. c #669B1B",
"=. c #699E1F",
"-. c #6AA11F",
";. c #4E8021",
":. c #4F8128",
">. c #548323",
",. c #598624",
"<. c #598527",
"1. c #5C8C22",
"2. c #538229",
"3. c #5B8B29",
"4. c #5F9121",
"5. c #5D9029",
"6. c #5C8132",
"7. c #618E24",
"8. c #628F29",
"9. c #778724",
"0. c #629423",
"q. c #669825",
"w. c #699B25",
"e. c #65942A",
"r. c #69972B",
"t. c #679929",
"y. c #6A9D2A",
"u. c #72972C",
"i. c #699633",
"p. c #6D9B33",
"a. c #729E35",
"s. c #739F3B",
"d. c #6DA223",
"f. c #6EA12C",
"g. c #73A92A",
"h. c #73A433",
"j. c #76AA32",
"k. c #78A937",
"l. c #7BAD39",
"z. c #7CB330",
"x. c #7EB13B",
"c. c #6D8B51",
"v. c #7AA641",
"b. c #6D8461",
"n. c #778B69",
"m. c #7E8678",
"M. c #82B63C",
"N. c #87BA44",
"B. c #879979",
"V. c #8FC349",
"C. c #8B8B8B",
"Z. c #8A9284",
"A. c #8E9A85",
"S. c #909E86",
"D. c #979996",
"F. c #BA8383",
"G. c #BD8C8C",
"H. c #A59D9D",
"J. c #BF9090",
"K. c #95A38A",
"L. c #9BA393",
"P. c #9CA398",
"I. c #A3AB9C",
"U. c #A1B096",
"Y. c #A3A4A2",
"T. c #A6ABA3",
"R. c #ABACAB",
"E. c #B6AFAA",
"W. c #B1B5AC",
"Q. c #B4B4B3",
"!. c #B8BBB5",
"~. c #BCBCBC",
"^. c #C29696",
"/. c #C59D9D",
"(. c #C7A1A1",
"). c #C9A5A5",
"_. c #CCACAC",
"`. c #C8B8B8",
"'. c #D1B5B5",
"]. c #D4BCBC",
"[. c #BEC0BB",
"{. c #C1C4BD",
"}. c #C4C4C4",
"|. c #CACAC6",
" X c #CCCCCB",
".X c #D6C1C1",
"XX c #D8C5C5",
"oX c #D0CECD",
"OX c #DCCBCB",
"+X c #D3D6CF",
"@X c #D4D4D3",
"#X c #DDD1D1",
"$X c #D4D8D1",
"%X c #DDDCDC",
"&X c #E2D6D6",
"*X c #E4DBDB",
"=X c #E4E4E4",
"-X c #EAE4E4",
";X c #ECECEC",
":X c #F0EFEF",
">X c #F1F1F1",
",X c #FDFDFD",
/* pixels */
"j.e.>.y.1.0.e.i.N.p.0.0.3.q.1. .s 5.0.q.q.y.0.y.f.1.q.1.@.3.,.0.y.y.y.y.3.s t.k.y.y.M.1.4.q.q.j.1.4.",
"<.t.w.e.{ @.h.z.y.4 w 0.#.7.@.X.6.{ @.@.{ 0.X.@.1.} p.0.X.e.{ 1.@.{ e.X.+.,.} p.f.w.r.{ 1.@.{ ,.[ +.",
"< O.@.` q.[ X.q.` 4.o.` t.` +.+.` N.$.X.0.8 &.O.8 r.d.w.$.{ t.[ 0 s 8 4.X.` t.*.1.d ` q.[ X.&.1 $.X.",
"0.4.1.y.1.l.k.1.f.1.0.q.1.>.>.O.y.y.q.0.1.y.,.0.y.i.0.7.@.y.1.y.t.e y.1.4.q.1.q.,.w 3.,.1.4.>.y.@.4.",
"i.0.o.p.{ 0.0.{ e...+.1.} >.+.X.8.[ +.1.{ e.o.1.9 g q.$...2.} P.D.8 3.X.@.1.X.s.e.X.,.Z.P.r 2 e.{ 5.",
"w.j.j.*.t.[ X.0.` s q X.N.8 +.@.` f | X.0.` h., @ @ , h.h.1 0.P.@XD.7 n.Q.}. X!.B.q Y.@XR.X.$.` 4.*.",
"0.q.q.y.>.s s ,.y.e p s a.M.T Y T I Y u y p $ @ @ @ @ $ y.V.1.S.%X%X%X;X>X>X>X>X>X%X@X=XL.x.1.y.0.0.",
"@.@.X.7.3 h O.' 7.%.Y D Z Z Z Z Z Z C Z Z Z V : # @ @ @ @ 6.{ c.@X%X>X>X>X>X>X>X>X>X=X@Xn.q.o.h.w.0.",
"` @.@.` 0.[ X.%.I A Z Z Z Z Z Z Z Z Z Z Z Z Z Z Z ; # - V C Z G B.:X;X#X;X>X:X>X@X;X>XI.[ o.q.=.4...",
"0.1.+.y.7.0.T H Z Z Z Z Z Z Z Z Z Z Z Z Z Z Z Z Z Z C Z Z Z C F j >XOX|.~.>X:X X!.@X>Xn.0.5.o.y.O.1.",
"1.@.X.8.} U Z Z OX].Z /.&XE (.*X-X.XP G.*XW J *XJ.Z Z Z Z Z Z = $ *X~.D.Y.;X;XQ.C.~.;Xd i.r.{ y.X.t.",
"` @.@.` U Z Z Z ^.:X^.;X'._ >X_.G.-X.X^.>XQ K >X/.Z Z Z Z C V @ X  X>X;X@X;X>X@X;X>X%X1.g.d.0.#.;.q.",
"0.1.@.T Z Z Z Z Z OX:X-XL '.:XZ Z .X-X^.>XQ K >X).Z Z Z Z Z : @ @ Q.:X@X;X:X>X>X@X;X}.6.f >.1.5.e 5.",
"1.o.%.A Z Z Z Z Z / >X/.Z ].:XS Z .X-X^.>XQ K >X/.Z Z Z Z Z C # @ C.-X-X>Xk & =X;X%XD.>X+X1.&.3.{ @.",
"` @.U Z Z Z Z Z Z W >X^.Z F.>X).F.-X.X) :X/.J.>XJ.Z Z Z Z Z C : % * %X:X>X@XQ. X|.}.@X,X%X .4.` 0.X.",
"0.7.H Z Z Z Z Z Z E *X^.Z Z ).-X:XXXE Z ].;X;X].J Z Z Z Z Z C R %XR.Y.!. X X=X,X,X,X;X,X,XA.q.j.t.0.",
"1.u Z Z Z Z Z Z Z Z Z Z Z Z Z Z Z Z Z Z Z Z Z Z Z Z Z Z Z Z Z ~ ,X,X,X,X,X;X@X@X~.M 6.m.[.c.g.3.d.w.",
"` Y Z Z Z Z Z Z Z Z Z Z Z Z Z Z Z Z Z Z Z Z Z Z Z Z Z Z Z Z Z S @X,X@X!.Y.Q.}.~.~.@X3 q.[ ..#.1 4.o.",
"0.u Z Z Z Z Z Z Z Z Z Z Z Z Z Z Z Z Z Z Z Z Z Z Z Z Z Z Z Z Z Z }.;X}.>X;X>X>X>X>X>XL.1.4.4.+.f.O.1.",
"1.u Z E ) P L ) E Z ) ! _ _ ) K ) / Z ! / K ) W Q _ K / / Z Z Z |.R.>X>X>X>X>X>X>X>X%X0 1.$.{ 0.2 q ",
"8 y Z ! :X^.^.:X_.^ :X^.&X:X&XW >X:X! '.&XE :X/.(.>XE OX&XZ Z L @X%X:X>X>X>X>X>X>X>X>XA.[ X.$.` :.| ",
"z.y.G Z -X'.'.:X&X/.:XL ^.:X^ E >X-X.X].*XL :X^./.>XS XX#XZ Z G.~.>X>X>X>X>X>X>X>X>X>X@Xt.y.4.N.,.4.",
"7.$.t Z XX#X*XOX;X].&XZ ^.;X^ W >X).>X&X&XJ >X^.^.;XZ XXOXZ Z E.=X>X>X>X>X>X>X>X>X>X>X>Xn.$.{ q.X.@.",
"` e g G ^.:X:X( :X:X_.Z ^.>X^ W >X) OX:X&XZ *X) ( &XZ _.'.Z G.}.>X>X>X>X>X>X>X>X>X>X>X>XW.X.4.8 4.X.",
"q.>.e 9.! >X-XA *X:XF.E &X>XXXW >X( ^ :X&XE .X_ F..XP )._.Q #X@X>X>X>X>X>X>X>X>X>X>X>X>X|.4.O.:.O.1.",
"a.>.q p.t (.G.Z _ (.K P (.(./.L (.W Z F.^.P (.^ / (.L G.J.H.@X;X>X>X>X>X>X>X>X>X>X>X>X>X=XO.{ 3.{ O.",
"w.w.&.&.w.y F Z Z Z Z Z Z Z Z Z Z Z Z Z Z Z Z Z Z Z Z B =   z =X>X>X>X:X>X>X>X>X>X>X>X>X>Xc.x.` l.t.",
"0.4.,.5.1.1.%.U Z Z Z Z Z Z Z Z Z Z Z Z Z Z Z Z Z Z ; O     o :X>X>X>X@X>X>X>X>X$X>X>X>X>XL.l.d.y.w.",
"1.@.X.8.{ @.1.{ y U A Z Z Z Z Z Z Z Z Z Z Z Z B N +         z >X>X>X=X=X>X>X>X>X@X>X>X>X>XU.z.v.o.O.",
"8 y.f.` q.[ 0 h ` l.u.t U D S Z Z Z Z Z B ; - O             M >X>X>X@X>X>X>X>X>X;X%X>X>X>XL.5.z.q.q ",
",.,.a.N.1.0.7.r j.y.y.4.,.q.+X*X#X> +                       C.>X>X>X@X>X>X>X>X>X>X@X>X>X>XI. .f.O.4.",
"1.w 4 y.} 1.@.} t.X.+.1.' s +X-X@X                          R.>X>X>X X=X>X>X>X>X=X X>X>X>X!.{ 5.{ +.",
"` +.@.` 0.[ X.0.` h.y.` t.< @X=X@X                          ~.>X>X;XoXY.b.K.L.m a ~.=X>X>X{.4.` 0.X.",
"0.1.O.y.1.0.5.@.y.y.q.q.1.q.@X=XoX                          @X>X>X;X X~.,.q.d >.h ~.=X>X>X{.4.N.0.4.",
"e.w 4 e.{ ;.O.{ 8.X.@.7.} 3.$X-X@X                          %X>X>X=X}.|.O.:.{ <.w Q.%X>X>X|.{ h.X.4.",
"` o.@.` 0.3 4 >.` q.o.` y.` $X=X%X. . . . . X . X . . . . . %X>X>X%X~.$X0 2 2.` O.T.@X>X>X|.M.&.*.$.",
"0.4.@.y.1.0.1.d y.1.0.q.1.q.$X-X-X* X X X X X X X X X X X X oX>X>X@X[.$X4.4.h f.3.Z.@X>X>X Xf.3.5.k.",
"i.5.@.k.{ >.O.{ f ..0.p.} 1.$X=X=XM % o o o o o o o o o o o  X>X>X@XQ.+X@.5.{ e. .j |.>X>X X{ 5.d.f.",
"=.j.l.g.q.7 0 4.< 1.w.-.t.` oX%X*XP.% % % % % % % % % % % % }.>X>X~.}.|.X.` t.` 1.+.W.>X>X|.x.{ f.$.",
"a ,.q.y.1.q.t.1.y.@.1.q.1.q.{.oXoXQ.& & & & & & & & & & & & !.:X>XQ. X!.1.q.1.1.>.>.P.>X>X}.q.:.$.0.",
"h @.X.7.} 1.@.{ 8.X.@.1.o.1.W.{.`.!.k * * * * * * * * * * & }.=X-XR.!.R.O.0.} >.4 3 Z.>X=X}.q 3.X.+.",
"] @.@.] q.[ X.0.` 4.o.` 3.` S.I.I.U.m.b b b n n b b b b l Q.>X>X>XZ.L.S.@.{ q.3 1.4.c ;X;X>X!.3 ;.0 ",
"q.1.1.y.,.M.l.1.y.@.1.q.,.k.y.@.y.y.l.h.1.r.1.1.0.>.t.1.C.;X>X>X=Xp f >.0.0.e.1.>.;.6 %X>X>X;XL.>.1.",
">.@.@.s.} 0.q.{ 8.X.o.1.{ 0.@.X.i.{ 0.0.{ k.@.@.1.{ 1.o.C.%X@X>XQ.{ s.o.+.,.w.7.q 4 <.R.>X;X XR.2 e ",
"1 O.q.d.y.[ 0 s 8 0.X.o.N.{ @.&.} q.[ X.q.g.1.e ] r.` @.x ~.;X-Xc w.d.w.| 8 q.` o.@.` c =X~.=Xk 1...",
"N.h.@.y.1.f.y.h y.7.0.q.h.e.,.>.w.1.0.0.1.y.,.1.q.1.N.h.r 5 Y.m 7.,.y.,.>.:.3.q.e.e.q.1.v T.i 0.1.h.",
"r.@...2.{ 7.7.} 0.*.0.7.} ,.w 4 7.{ 1.4.#.e.X.o.1.{ h.q.X.f g.q.@.{ 8.#.@.3.*.0.y.d.e.{ 1.1.{ 5.8 >.",
"` +.e < 7.{ X.*.8 0.o.] y.8 @.@.8 0.[ X.0.` 0.o.] t.&.q.O.< N.0.X.0.` d | [ k.] 0.t.` t.[ X.&.` 4.X.",
"x.p.1.y.1.f.y.>.y.,.4.q.5.0.1.1.y.1.0.4.O.2.>.5.q.1.q.7.1.y.f.w.0.1.y.r ,.q.r.q.0.4.y.1.0.1.@.y.e.e.",
"q.w.w.8.&.a.8.3 e.X.@.1.} 1.o.X.e.{ p.i.8 3.{ +.>.} 1.0.o.f } 1.@.{ 8.X.+.1.{ ,.+.{ e.{ @.@.{ f g.t."
};
